<svg width="64" height="63" viewBox="0 0 64 63" fill="none" xmlns="http://www.w3.org/2000/svg">
<circle cx="32.4248" cy="31.5" r="31.5" fill="#E3DEFF"/>
<path d="M33.2123 16.6568C29.6238 16.6568 26.1822 18.0824 23.6447 20.6199C21.1072 23.1574 19.6816 26.599 19.6816 30.1875C19.6816 33.7912 21.0873 37.0626 23.3845 39.4876L24.1422 40.2874L25.3748 41.5785C25.584 41.7976 25.8519 41.9517 26.1465 42.0224L33.2123 43.7182C34.9892 43.7182 36.7487 43.3682 38.3903 42.6882C40.0319 42.0083 41.5235 41.0116 42.7799 39.7552C44.0364 38.4987 45.0331 37.0071 45.713 35.3655C46.393 33.7239 46.743 31.9644 46.743 30.1875C46.743 28.4107 46.393 26.6512 45.713 25.0096C45.0331 23.3679 44.0364 21.8763 42.7799 20.6199C41.5235 19.3634 40.0319 18.3668 38.3903 17.6868C36.7487 17.0068 34.9892 16.6568 33.2123 16.6568ZM16.6748 30.1875C16.6748 21.0543 24.0791 13.65 33.2123 13.65C42.3455 13.65 49.7498 21.0543 49.7498 30.1875C49.7498 39.3207 42.3455 46.725 33.2123 46.725H19.8032C18.6022 46.725 17.8431 45.4346 18.4266 44.3848L19.9404 41.6614C20.2558 41.094 20.1848 40.3954 19.8042 39.8696C17.7711 37.0607 16.6704 33.6732 16.6748 30.1875Z" fill="#2A2A2A"/>
<circle cx="32.6113" cy="30.7889" r="14.7334" fill="#2A2A2A"/>
<rect x="23.5" y="25.725" width="18.9" height="1.575" rx="0.7875" fill="#9F90F9"/>
<rect x="23.5" y="29.925" width="18.9" height="1.575" rx="0.7875" fill="#9F90F9"/>
<rect x="32.4248" y="34.125" width="9.975" height="1.575" rx="0.7875" fill="#9F90F9"/>
</svg>
