<svg width="64" height="63" viewBox="0 0 64 63" fill="none" xmlns="http://www.w3.org/2000/svg">
<circle cx="32.3496" cy="31.5" r="31.5" fill="#E3DEFF"/>
<path fill-rule="evenodd" clip-rule="evenodd" d="M32.2075 20.8317C33.9081 19.2561 36.1398 18.3789 38.4581 18.375C40.9641 18.375 43.3569 19.4059 45.1079 21.2208C46.8504 23.0372 47.821 25.4582 47.8158 27.9752C47.821 30.4922 46.8504 32.9132 45.1079 34.7296C43.9522 35.9274 42.7979 37.1543 41.6378 38.3855C39.2799 40.8887 36.8973 43.4194 34.4217 45.802L34.4174 45.8078C33.8027 46.3899 32.9831 46.7059 32.1368 46.6871C31.2905 46.6683 30.4858 46.3164 29.8975 45.7076L19.3056 34.7296C15.6976 30.9879 15.6976 24.9624 19.3056 21.2222C20.9733 19.4747 23.262 18.454 25.6765 18.3809C28.091 18.3078 30.4372 19.1882 32.2075 20.8317Z" fill="#2A2A2A"/>
</svg>
