<svg width="600" height="276" viewBox="0 0 600 276" fill="none" xmlns="http://www.w3.org/2000/svg">
<rect width="600" height="276" rx="30" fill="#2D2D2D"/>
<rect x="237.714" y="160.143" width="32.1429" height="40.7143" rx="7" fill="#FF8C4B"/>
<path d="M252.714 203C266.917 203 278.429 193.625 278.429 177.219C278.429 170.188 276.286 158.469 267.714 149.094C268.786 156.125 262.357 158.469 262.357 158.469C265.571 146.75 257 130.344 244.143 128C245.673 137.375 246.286 146.75 235.571 156.125C230.214 160.812 227 168.917 227 177.219C227 193.625 238.511 203 252.714 203ZM252.714 198.312C245.613 198.312 239.857 193.625 239.857 185.422C239.857 181.906 240.929 176.047 245.214 171.359C244.679 174.875 248.429 177.219 248.429 177.219C246.821 171.359 250.571 161.984 257 160.812C256.233 165.5 255.929 170.188 261.286 174.875C263.964 177.219 265.571 181.269 265.571 185.422C265.571 193.625 259.816 198.312 252.714 198.312Z" fill="#FF5252"/>
<rect x="72.5714" y="201.714" width="31.7143" height="40.1714" rx="7" fill="#FF8C4B"/>
<path d="M87.3714 244C101.385 244 112.743 234.75 112.743 218.562C112.743 211.625 110.629 200.062 102.171 190.812C103.229 197.75 96.8857 200.062 96.8857 200.062C100.057 188.5 91.6 172.312 78.9143 170C80.4239 179.25 81.0286 188.5 70.4571 197.75C65.1714 202.375 62 210.372 62 218.562C62 234.75 73.3579 244 87.3714 244ZM87.3714 239.375C80.3647 239.375 74.6857 234.75 74.6857 226.656C74.6857 223.188 75.7429 217.406 79.9714 212.781C79.4429 216.25 83.1429 218.562 83.1429 218.562C81.5571 212.781 85.2571 203.531 91.6 202.375C90.8431 207 90.5429 211.625 95.8286 216.25C98.4714 218.562 100.057 222.558 100.057 226.656C100.057 234.75 94.3782 239.375 87.3714 239.375Z" fill="#FF5252"/>
<ellipse cx="445.094" cy="73.6113" rx="54.8585" ry="31.2533" transform="rotate(20.6779 445.094 73.6113)" fill="black"/>
<circle cx="533.032" cy="153.17" r="21.7334" fill="#EEA586"/>
<circle cx="393.447" cy="153.17" r="21.7334" fill="#EEA586"/>
<path fill-rule="evenodd" clip-rule="evenodd" d="M395.285 132.953V159.576C395.285 197.867 426.326 228.908 464.618 228.908C502.909 228.908 533.95 197.867 533.95 159.576V132.953H395.285Z" fill="#FFCEB2"/>
<path fill-rule="evenodd" clip-rule="evenodd" d="M395.185 165.789V144.278C395.185 105.959 426.248 74.8948 464.567 74.8948C502.887 74.8948 533.95 105.959 533.95 144.278V165.789H395.185Z" fill="#FFCEB2"/>
<rect x="436.609" y="142.151" width="27.5494" height="38.5692" rx="13.7747" fill="white"/>
<rect x="465.688" y="142.151" width="27.5494" height="38.5692" rx="13.7747" fill="white"/>
<rect x="452.831" y="161.435" width="8.57094" height="11.9381" rx="4.28547" fill="black"/>
<rect x="482.218" y="161.435" width="8.57094" height="11.9381" rx="4.28547" fill="black"/>
<circle cx="465.076" cy="177.964" r="4.28547" fill="#EEA586"/>
<path d="M471.964 127.239C436.823 121.117 446.098 89.2816 455.128 74.1294H486.81C495.993 79.3842 515.614 92.71 520.635 103.975C526.91 118.055 515.89 134.891 471.964 127.239Z" fill="black"/>
<path d="M496.337 124.213C469.098 101.182 489.118 94.3887 504.564 85.871L522.318 88.517C533.338 93.2614 551.449 116.455 550.094 128.713C548.399 144.035 530.385 153.001 496.337 124.213Z" fill="black"/>
<path d="M398.181 81.1791C428.305 61.5945 453.76 59.7391 460.514 79.2323L452.105 102.808C446.041 134.59 397.275 141.934 383.967 135.749C367.332 128.017 360.525 105.66 398.181 81.1791Z" fill="black"/>
<ellipse cx="505.224" cy="86.7917" rx="43.5009" ry="23.7231" transform="rotate(10.8491 505.224 86.7917)" fill="black"/>
<rect x="460.306" y="145.723" width="28.5379" height="13.0511" transform="rotate(-22.6679 460.306 145.723)" fill="#FFCEB2"/>
<rect width="28.5379" height="13.0511" transform="matrix(-0.922754 -0.385389 -0.385389 0.922754 469.364 145.723)" fill="#FFCEB2"/>
<path d="M465.094 159.038L490.761 149.057" stroke="#BF7E63" stroke-width="4.14948" stroke-linecap="round" stroke-linejoin="round"/>
<path d="M465.094 159.038L439.427 149.057" stroke="#BF7E63" stroke-width="4.14948" stroke-linecap="round" stroke-linejoin="round"/>
<rect x="455.112" y="183.279" width="21.3891" height="25.6669" rx="10.6945" fill="#FF5252"/>
<rect x="462.992" y="192.262" width="5.6287" height="7.70006" rx="2.81435" fill="#C23939"/>
<rect x="509.25" y="201.75" width="33.75" height="42.75" rx="7" fill="#FF8C4B"/>
<path d="M525 246.75C539.913 246.75 552 236.906 552 219.68C552 212.297 549.75 199.992 540.75 190.148C541.875 197.531 535.125 199.992 535.125 199.992C538.5 187.688 529.5 170.461 516 168C517.607 177.844 518.25 187.688 507 197.531C501.375 202.453 498 210.963 498 219.68C498 236.906 510.087 246.75 525 246.75ZM525 241.828C517.544 241.828 511.5 236.906 511.5 228.293C511.5 224.602 512.625 218.449 517.125 213.527C516.562 217.219 520.5 219.68 520.5 219.68C518.812 213.527 522.75 203.684 529.5 202.453C528.694 207.375 528.375 212.297 534 217.219C536.812 219.68 538.5 223.932 538.5 228.293C538.5 236.906 532.457 241.828 525 241.828Z" fill="#FF5252"/>
</svg>
