<svg width="389" height="59" viewBox="0 0 389 59" fill="none" xmlns="http://www.w3.org/2000/svg">
<path d="M24.0617 37.1466H9.02312C7.49921 37.1466 6.06888 36.7589 4.73212 35.9836C3.4221 35.2083 2.44627 34.0988 1.80462 32.6551C1.18972 31.2114 0.989201 29.7008 1.20308 28.1234L3.64935 9.23505C3.86323 7.65768 4.45141 6.16051 5.41387 4.74354C6.37634 3.29984 7.63289 2.19033 9.18353 1.41501C10.7342 0.612959 12.2848 0.211932 13.8355 0.211932C15.4128 0.211932 16.8565 0.612959 18.1665 1.41501C19.5033 2.19033 20.4791 3.29984 21.094 4.74354C21.709 6.16051 21.9095 7.65768 21.6956 9.23505L20.4123 19.1003H26.4277L27.711 9.23505C27.9249 7.65768 28.5131 6.16051 29.4755 4.74354C30.438 3.29984 31.6945 2.19033 33.2452 1.41501C34.7958 0.612959 36.3465 0.211932 37.8971 0.211932C39.4745 0.211932 40.9182 0.612959 42.2282 1.41501C43.565 2.19033 44.5408 3.29984 45.1557 4.74354C45.7706 6.16051 45.9711 7.65768 45.7572 9.23505L40.5439 49.1774C40.3567 50.7548 39.7552 52.2653 38.7393 53.709C37.7501 55.1527 36.4801 56.2622 34.9295 57.0375C33.4056 57.8129 31.8817 58.2005 30.3578 58.2005C28.8339 58.2005 27.4035 57.8129 26.0668 57.0375C24.7568 56.2622 23.7809 55.1527 23.1393 53.709C22.5244 52.2653 22.3105 50.7548 22.4976 49.1774L24.0617 37.1466ZM62.6004 37.1466C62.5202 37.6813 62.587 38.1892 62.8009 38.6705C63.0148 39.125 63.3356 39.4859 63.7634 39.7532C64.2179 40.0206 64.6991 40.1543 65.2071 40.1543C65.7418 40.1543 66.2631 40.0206 66.7711 39.7532C67.2791 39.4859 67.6934 39.125 68.0143 38.6705C68.3351 38.1892 68.5356 37.6813 68.6158 37.1466L70.6611 21.2659C70.7413 20.7312 70.6744 20.2232 70.4605 19.742C70.2734 19.2607 69.9526 18.8998 69.4981 18.6592C69.0436 18.3918 68.5623 18.2582 68.0544 18.2582C67.5464 18.2582 67.0384 18.3918 66.5305 18.6592C66.0225 18.8998 65.5947 19.2607 65.2472 19.742C64.9264 20.2232 64.7258 20.7312 64.6456 21.2659L62.6004 37.1466ZM46.5994 21.306C47.0806 17.6165 48.4842 14.0875 50.8102 10.7189C53.1361 7.32349 56.0904 4.73018 59.6729 2.93892C63.2821 1.12093 66.8513 0.211932 70.3803 0.211932C73.9361 0.211932 77.2646 1.12093 80.3659 2.93892C83.4939 4.73018 85.7798 7.32349 87.2235 10.7189C88.6939 14.0875 89.1885 17.6165 88.7073 21.306L86.6621 37.1867C86.1808 40.8227 84.804 44.3116 82.5315 47.6535C80.259 50.9687 77.3315 53.562 73.749 55.4334C70.1665 57.2782 66.5305 58.2005 62.841 58.2005C59.2318 58.2005 55.8631 57.2782 52.7351 55.4334C49.6338 53.562 47.3747 50.9687 45.9578 47.6535C44.5408 44.3116 44.0729 40.8227 44.5542 37.1867L46.5994 21.306ZM113.09 37.1466H98.0512C96.5273 37.1466 95.097 36.7589 93.7602 35.9836C92.4502 35.2083 91.4744 34.0988 90.8327 32.6551C90.2178 31.2114 90.0173 29.7008 90.2312 28.1234L92.6775 9.23505C92.8913 7.65768 93.4795 6.16051 94.442 4.74354C95.4045 3.29984 96.661 2.19033 98.2116 1.41501C99.7623 0.612959 101.313 0.211932 102.864 0.211932C104.441 0.211932 105.885 0.612959 107.195 1.41501C108.531 2.19033 109.507 3.29984 110.122 4.74354C110.737 6.16051 110.938 7.65768 110.724 9.23505L109.44 19.1003H115.456L116.739 9.23505C116.953 7.65768 117.541 6.16051 118.504 4.74354C119.466 3.29984 120.723 2.19033 122.273 1.41501C123.824 0.612959 125.375 0.211932 126.925 0.211932C128.503 0.211932 129.946 0.612959 131.256 1.41501C132.593 2.19033 133.569 3.29984 134.184 4.74354C134.799 6.16051 134.999 7.65768 134.785 9.23505L129.572 49.1774C129.385 50.7548 128.783 52.2653 127.767 53.709C126.778 55.1527 125.508 56.2622 123.958 57.0375C122.434 57.8129 120.91 58.2005 119.386 58.2005C117.862 58.2005 116.432 57.8129 115.095 57.0375C113.785 56.2622 112.809 55.1527 112.167 53.709C111.552 52.2653 111.339 50.7548 111.526 49.1774L113.09 37.1466ZM200.193 40.1543C201.717 40.1543 203.134 40.5419 204.444 41.3173C205.781 42.0926 206.756 43.2021 207.371 44.6458C208.013 46.0895 208.24 47.6 208.053 49.1774C207.839 50.7548 207.238 52.2519 206.248 53.6689C205.286 55.0859 204.029 56.1954 202.479 56.9974C200.955 57.7995 199.404 58.2005 197.827 58.2005H173.605C172.161 58.1738 170.798 57.7861 169.514 57.0375C168.178 56.2622 167.202 55.1527 166.587 53.709C165.945 52.2653 165.731 50.7548 165.945 49.1774L171.118 9.23505C171.332 7.65768 171.934 6.14714 172.923 4.70344C173.939 3.25974 175.222 2.15023 176.773 1.37491C178.217 0.626327 179.674 0.238667 181.144 0.211932H204.564C206.142 0.211932 207.599 0.612959 208.935 1.41501C210.272 2.19033 211.235 3.29984 211.823 4.74354C212.438 6.16051 212.638 7.65768 212.424 9.23505C212.21 10.8124 211.595 12.323 210.58 13.7667C209.59 15.2104 208.334 16.3199 206.81 17.0952C205.286 17.8705 203.762 18.2582 202.238 18.2582H188.603C188.496 18.2582 188.389 18.2849 188.282 18.3384C188.175 18.3918 188.082 18.4721 188.002 18.579C187.948 18.6592 187.922 18.7528 187.922 18.8597L187.841 19.5816C187.815 19.6885 187.815 19.7954 187.841 19.9024C187.895 19.9826 187.962 20.0494 188.042 20.1029C188.149 20.1564 188.256 20.1831 188.363 20.1831H196.784C198.362 20.1831 199.805 20.5841 201.115 21.3862C202.452 22.1615 203.415 23.271 204.003 24.7147C204.618 26.1317 204.818 27.6288 204.604 29.2062C204.417 30.7836 203.816 32.2941 202.8 33.7378C201.81 35.1815 200.541 36.291 198.99 37.0664C197.466 37.8417 195.942 38.2293 194.418 38.2293H185.997C185.89 38.2293 185.783 38.2561 185.676 38.3095C185.596 38.363 185.515 38.4432 185.435 38.5502C185.382 38.6304 185.342 38.7239 185.315 38.8309L185.235 39.5527C185.208 39.6597 185.208 39.7666 185.235 39.8736C185.288 39.9538 185.355 40.0206 185.435 40.0741C185.542 40.1275 185.649 40.1543 185.756 40.1543H200.193ZM228.786 46.8915L228.505 49.1774C228.292 50.7548 227.69 52.2519 226.701 53.6689C225.738 55.0859 224.482 56.1954 222.931 56.9974C221.407 57.7995 219.857 58.2005 218.279 58.2005C216.729 58.2005 215.285 57.7995 213.948 56.9974C212.611 56.1954 211.649 55.0859 211.061 53.6689C210.446 52.2519 210.245 50.7548 210.459 49.1774L215.512 10.1975H215.552C215.579 9.8767 215.606 9.55587 215.633 9.23505C215.846 7.65768 216.448 6.14714 217.437 4.70344C218.453 3.25974 219.723 2.15023 221.247 1.37491C222.771 0.599592 224.295 0.211932 225.819 0.211932H237.809C241.365 0.211932 244.707 1.12093 247.835 2.93892C250.963 4.73018 253.249 7.32349 254.693 10.7189C256.163 14.0875 256.658 17.6165 256.176 21.306C255.695 24.942 254.318 28.4175 252.046 31.7327C250.468 34.0854 248.543 36.0638 246.271 37.6679L246.311 37.708L250.682 42.761C251.672 43.8838 252.286 45.2206 252.527 46.7712C252.768 48.3219 252.567 49.8859 251.925 51.4633C251.284 53.0406 250.321 54.3908 249.038 55.5136C247.808 56.6098 246.365 57.3851 244.707 57.8396C243.049 58.2941 241.472 58.3075 239.975 57.8797C238.504 57.4252 237.275 56.6365 236.285 55.5136L228.786 46.8915ZM234.721 24.2736C235.256 24.2736 235.777 24.1399 236.285 23.8726C236.793 23.6052 237.208 23.2443 237.529 22.7898C237.876 22.3085 238.077 21.8006 238.13 21.2659C238.21 20.7312 238.144 20.2232 237.93 19.742C237.716 19.2607 237.382 18.8998 236.927 18.6592C236.499 18.3918 236.031 18.2582 235.523 18.2582H233.117C233.01 18.2582 232.903 18.2849 232.796 18.3384C232.69 18.3918 232.596 18.4721 232.516 18.579C232.462 18.6592 232.436 18.7528 232.436 18.8597L231.794 23.672C231.794 23.779 231.807 23.8859 231.834 23.9929C231.887 24.0731 231.954 24.1399 232.035 24.1934C232.115 24.2468 232.208 24.2736 232.315 24.2736H234.721ZM273.621 46.8915L273.34 49.1774C273.126 50.7548 272.525 52.2519 271.536 53.6689C270.573 55.0859 269.317 56.1954 267.766 56.9974C266.242 57.7995 264.692 58.2005 263.114 58.2005C261.564 58.2005 260.12 57.7995 258.783 56.9974C257.446 56.1954 256.484 55.0859 255.896 53.6689C255.281 52.2519 255.08 50.7548 255.294 49.1774L260.347 10.1975H260.387C260.414 9.8767 260.441 9.55587 260.467 9.23505C260.681 7.65768 261.283 6.14714 262.272 4.70344C263.288 3.25974 264.558 2.15023 266.082 1.37491C267.606 0.599592 269.13 0.211932 270.653 0.211932H282.644C286.2 0.211932 289.542 1.12093 292.67 2.93892C295.798 4.73018 298.084 7.32349 299.527 10.7189C300.998 14.0875 301.492 17.6165 301.011 21.306C300.53 24.942 299.153 28.4175 296.881 31.7327C295.303 34.0854 293.378 36.0638 291.106 37.6679L291.146 37.708L295.517 42.761C296.506 43.8838 297.121 45.2206 297.362 46.7712C297.603 48.3219 297.402 49.8859 296.76 51.4633C296.119 53.0406 295.156 54.3908 293.873 55.5136C292.643 56.6098 291.199 57.3851 289.542 57.8396C287.884 58.2941 286.307 58.3075 284.81 57.8797C283.339 57.4252 282.109 56.6365 281.12 55.5136L273.621 46.8915ZM279.556 24.2736C280.091 24.2736 280.612 24.1399 281.12 23.8726C281.628 23.6052 282.043 23.2443 282.363 22.7898C282.711 22.3085 282.912 21.8006 282.965 21.2659C283.045 20.7312 282.978 20.2232 282.765 19.742C282.551 19.2607 282.216 18.8998 281.762 18.6592C281.334 18.3918 280.866 18.2582 280.358 18.2582H277.952C277.845 18.2582 277.738 18.2849 277.631 18.3384C277.524 18.3918 277.431 18.4721 277.351 18.579C277.297 18.6592 277.27 18.7528 277.27 18.8597L276.629 23.672C276.629 23.779 276.642 23.8859 276.669 23.9929C276.722 24.0731 276.789 24.1399 276.869 24.1934C276.95 24.2468 277.043 24.2736 277.15 24.2736H279.556ZM317.413 37.1466C317.333 37.6813 317.4 38.1892 317.614 38.6705C317.828 39.125 318.149 39.4859 318.576 39.7532C319.031 40.0206 319.512 40.1543 320.02 40.1543C320.555 40.1543 321.076 40.0206 321.584 39.7532C322.092 39.4859 322.506 39.125 322.827 38.6705C323.148 38.1892 323.349 37.6813 323.429 37.1466L325.474 21.2659C325.554 20.7312 325.487 20.2232 325.273 19.742C325.086 19.2607 324.765 18.8998 324.311 18.6592C323.856 18.3918 323.375 18.2582 322.867 18.2582C322.359 18.2582 321.851 18.3918 321.343 18.6592C320.835 18.8998 320.408 19.2607 320.06 19.742C319.739 20.2232 319.539 20.7312 319.459 21.2659L317.413 37.1466ZM301.412 21.306C301.894 17.6165 303.297 14.0875 305.623 10.7189C307.949 7.32349 310.903 4.73018 314.486 2.93892C318.095 1.12093 321.664 0.211932 325.193 0.211932C328.749 0.211932 332.078 1.12093 335.179 2.93892C338.307 4.73018 340.593 7.32349 342.036 10.7189C343.507 14.0875 344.001 17.6165 343.52 21.306L341.475 37.1867C340.994 40.8227 339.617 44.3116 337.344 47.6535C335.072 50.9687 332.144 53.562 328.562 55.4334C324.979 57.2782 321.343 58.2005 317.654 58.2005C314.045 58.2005 310.676 57.2782 307.548 55.4334C304.447 53.562 302.188 50.9687 300.771 47.6535C299.354 44.3116 298.886 40.8227 299.367 37.1867L301.412 21.306ZM360.644 46.8915L360.363 49.1774C360.149 50.7548 359.548 52.2519 358.559 53.6689C357.596 55.0859 356.34 56.1954 354.789 56.9974C353.265 57.7995 351.715 58.2005 350.137 58.2005C348.586 58.2005 347.143 57.7995 345.806 56.9974C344.469 56.1954 343.507 55.0859 342.919 53.6689C342.304 52.2519 342.103 50.7548 342.317 49.1774L347.37 10.1975H347.41C347.437 9.8767 347.464 9.55587 347.49 9.23505C347.704 7.65768 348.306 6.14714 349.295 4.70344C350.311 3.25974 351.581 2.15023 353.105 1.37491C354.629 0.599592 356.153 0.211932 357.676 0.211932H369.667C373.223 0.211932 376.565 1.12093 379.693 2.93892C382.821 4.73018 385.107 7.32349 386.55 10.7189C388.021 14.0875 388.515 17.6165 388.034 21.306C387.553 24.942 386.176 28.4175 383.904 31.7327C382.326 34.0854 380.401 36.0638 378.129 37.6679L378.169 37.708L382.54 42.761C383.529 43.8838 384.144 45.2206 384.385 46.7712C384.626 48.3219 384.425 49.8859 383.783 51.4633C383.142 53.0406 382.179 54.3908 380.896 55.5136C379.666 56.6098 378.222 57.3851 376.565 57.8396C374.907 58.2941 373.33 58.3075 371.833 57.8797C370.362 57.4252 369.132 56.6365 368.143 55.5136L360.644 46.8915ZM366.579 24.2736C367.114 24.2736 367.635 24.1399 368.143 23.8726C368.651 23.6052 369.066 23.2443 369.386 22.7898C369.734 22.3085 369.935 21.8006 369.988 21.2659C370.068 20.7312 370.001 20.2232 369.787 19.742C369.574 19.2607 369.239 18.8998 368.785 18.6592C368.357 18.3918 367.889 18.2582 367.381 18.2582H364.975C364.868 18.2582 364.761 18.2849 364.654 18.3384C364.547 18.3918 364.454 18.4721 364.374 18.579C364.32 18.6592 364.293 18.7528 364.293 18.8597L363.652 23.672C363.652 23.779 363.665 23.8859 363.692 23.9929C363.745 24.0731 363.812 24.1399 363.892 24.1934C363.973 24.2468 364.066 24.2736 364.173 24.2736H366.579Z" fill="#5A42EE"/>
</svg>
