<svg width="21" height="26" viewBox="0 0 21 26" fill="none" xmlns="http://www.w3.org/2000/svg">
<path d="M10.5 17.931C12.0734 17.9293 13.5819 17.3147 14.6945 16.2222C15.8071 15.1297 16.433 13.6485 16.4348 12.1034V5.82759C16.4348 4.28201 15.8095 2.79975 14.6965 1.70686C13.5835 0.613976 12.074 0 10.5 0C8.926 0 7.41646 0.613976 6.30347 1.70686C5.19049 2.79975 4.56522 4.28201 4.56522 5.82759V12.1034C4.56703 13.6485 5.19288 15.1297 6.30548 16.2222C7.41807 17.3147 8.92655 17.9293 10.5 17.931ZM7.30435 5.82759C7.30435 4.99536 7.64103 4.19721 8.24033 3.60873C8.83963 3.02026 9.65246 2.68966 10.5 2.68966C11.3475 2.68966 12.1604 3.02026 12.7597 3.60873C13.359 4.19721 13.6957 4.99536 13.6957 5.82759V12.1034C13.6957 12.9357 13.359 13.7338 12.7597 14.3223C12.1604 14.9108 11.3475 15.2414 10.5 15.2414C9.65246 15.2414 8.83963 14.9108 8.24033 14.3223C7.64103 13.7338 7.30435 12.9357 7.30435 12.1034V5.82759ZM11.8696 22.3264V24.6552C11.8696 25.0118 11.7253 25.3539 11.4684 25.6061C11.2116 25.8583 10.8632 26 10.5 26C10.1368 26 9.78841 25.8583 9.53157 25.6061C9.27473 25.3539 9.13043 25.0118 9.13043 24.6552V22.3264C6.60591 21.9969 4.28893 20.779 2.60973 18.8989C0.930535 17.0188 0.00322692 14.6042 0 12.1034C0 11.7468 0.144293 11.4047 0.401136 11.1525C0.657979 10.9003 1.00633 10.7586 1.36957 10.7586C1.7328 10.7586 2.08115 10.9003 2.33799 11.1525C2.59484 11.4047 2.73913 11.7468 2.73913 12.1034C2.73913 14.1246 3.55679 16.0629 5.01224 17.4921C6.46768 18.9212 8.44169 19.7241 10.5 19.7241C12.5583 19.7241 14.5323 18.9212 15.9878 17.4921C17.4432 16.0629 18.2609 14.1246 18.2609 12.1034C18.2609 11.7468 18.4052 11.4047 18.662 11.1525C18.9188 10.9003 19.2672 10.7586 19.6304 10.7586C19.9937 10.7586 20.342 10.9003 20.5989 11.1525C20.8557 11.4047 21 11.7468 21 12.1034C20.9968 14.6042 20.0695 17.0188 18.3903 18.8989C16.7111 20.779 14.3941 21.9969 11.8696 22.3264Z" fill="white"/>
</svg>
