<svg width="30" height="30" viewBox="0 0 30 30" fill="none" xmlns="http://www.w3.org/2000/svg">
<g filter="url(#filter0_d_394_7985)">
<circle cx="15.4677" cy="14.5322" r="11.4677" fill="black" fill-opacity="0.63"/>
<path d="M10.669 19.4464H20.2896C21.451 19.4464 22.043 18.8656 22.043 17.7153V11.8691C22.043 10.7188 21.451 10.1437 20.2896 10.1437H18.983C18.5475 10.1437 18.4136 10.0544 18.1623 9.77513L17.7098 9.27243C17.4363 8.96558 17.1516 8.79785 16.5708 8.79785H14.3485C13.7733 8.79785 13.4884 8.96558 13.2094 9.27243L12.757 9.77513C12.5113 10.0486 12.3717 10.1437 11.9362 10.1437H10.6688C9.50732 10.1437 8.91528 10.7188 8.91528 11.8691V17.7153C8.91528 18.8656 9.50756 19.4464 10.669 19.4464ZM10.6854 18.5473C10.1327 18.5473 9.81442 18.2514 9.81442 17.6706V11.9193C9.81442 11.3385 10.1327 11.0426 10.6854 11.0426H12.1595C12.6622 11.0426 12.9302 10.9478 13.2094 10.6352L13.6504 10.1437C13.9687 9.78633 14.1307 9.69699 14.6277 9.69699H16.2916C16.7886 9.69699 16.9506 9.78633 17.2689 10.1437L17.7098 10.635C17.9891 10.9478 18.2571 11.0426 18.7598 11.0426H20.2729C20.8256 11.0426 21.1441 11.3385 21.1441 11.9193V17.6706C21.1441 18.2514 20.8258 18.5473 20.2729 18.5473H10.6854ZM15.4765 17.6596C15.8777 17.6607 16.2751 17.5825 16.6458 17.4293C17.0166 17.2761 17.3534 17.0511 17.6368 16.7672C17.9202 16.4833 18.1445 16.1461 18.297 15.775C18.4495 15.404 18.527 15.0064 18.5251 14.6053C18.5251 12.9076 17.1738 11.551 15.4763 11.551C13.79 11.551 12.4332 12.9076 12.4332 14.6053C12.4332 16.3026 13.79 17.6596 15.4763 17.6596M19.491 13.2425C19.8707 13.2425 20.1833 12.9357 20.1833 12.5559C20.1833 12.3723 20.1104 12.1962 19.9805 12.0664C19.8507 11.9365 19.6746 11.8636 19.491 11.8636C19.3073 11.8636 19.1312 11.9365 19.0014 12.0664C18.8716 12.1962 18.7986 12.3723 18.7986 12.5559C18.7986 12.9357 19.1112 13.2425 19.491 13.2425ZM15.4765 16.811C14.2648 16.811 13.2766 15.8282 13.2766 14.6053C13.2766 13.3826 14.2593 12.3999 15.4765 12.3999C15.7663 12.3995 16.0532 12.4563 16.321 12.567C16.5887 12.6778 16.832 12.8402 17.0369 13.045C17.2417 13.2499 17.4042 13.4932 17.5149 13.7609C17.6257 14.0286 17.6825 14.3156 17.6822 14.6053C17.6826 14.8951 17.6257 15.182 17.515 15.4498C17.4043 15.7175 17.2418 15.9608 17.037 16.1657C16.8321 16.3706 16.5888 16.5331 16.321 16.6438C16.0533 16.7545 15.7663 16.8113 15.4765 16.811Z" fill="white"/>
</g>
<defs>
<filter id="filter0_d_394_7985" x="0.941945" y="0.00639844" width="29.0514" height="29.0517" filterUnits="userSpaceOnUse" color-interpolation-filters="sRGB">
<feFlood flood-opacity="0" result="BackgroundImageFix"/>
<feColorMatrix in="SourceAlpha" type="matrix" values="0 0 0 0 0 0 0 0 0 0 0 0 0 0 0 0 0 0 127 0" result="hardAlpha"/>
<feOffset/>
<feGaussianBlur stdDeviation="1.52903"/>
<feComposite in2="hardAlpha" operator="out"/>
<feColorMatrix type="matrix" values="0 0 0 0 0 0 0 0 0 0 0 0 0 0 0 0 0 0 0.25 0"/>
<feBlend mode="normal" in2="BackgroundImageFix" result="effect1_dropShadow_394_7985"/>
<feBlend mode="normal" in="SourceGraphic" in2="effect1_dropShadow_394_7985" result="shape"/>
</filter>
</defs>
</svg>
