<svg width="15" height="12" viewBox="0 0 15 12" fill="none" xmlns="http://www.w3.org/2000/svg">
<path d="M2.669 11.4464H12.2896C13.451 11.4464 14.043 10.8656 14.043 9.71535V3.86906C14.043 2.71882 13.451 2.1437 12.2896 2.1437H10.983C10.5475 2.1437 10.4136 2.05435 10.1623 1.77513L9.70984 1.27243C9.43634 0.965576 9.15164 0.797852 8.5708 0.797852H6.34845C5.77333 0.797852 5.48839 0.965576 5.2094 1.27243L4.75698 1.77513C4.51135 2.04864 4.37174 2.1437 3.93622 2.1437H2.66876C1.50732 2.1437 0.915283 2.71882 0.915283 3.86906V9.71535C0.915283 10.8656 1.50756 11.4464 2.669 11.4464ZM2.68544 10.5473C2.13271 10.5473 1.81442 10.2514 1.81442 9.67056V3.91933C1.81442 3.33849 2.13271 3.04259 2.68544 3.04259H4.15946C4.66216 3.04259 4.93018 2.94777 5.2094 2.63519L5.65039 2.1437C5.96869 1.78633 6.13069 1.69699 6.62767 1.69699H8.29157C8.78855 1.69699 8.95056 1.78633 9.26885 2.1437L9.70984 2.63496C9.98907 2.94777 10.2571 3.04259 10.7598 3.04259H12.2729C12.8256 3.04259 13.1441 3.33849 13.1441 3.91933V9.67056C13.1441 10.2514 12.8258 10.5473 12.2729 10.5473H2.68544ZM7.47654 9.6596C7.87768 9.66073 8.27509 9.58247 8.64584 9.42931C9.0166 9.27614 9.35338 9.05112 9.63677 8.7672C9.92016 8.48328 10.1445 8.14608 10.297 7.77504C10.4495 7.40399 10.527 7.00644 10.5251 6.6053C10.5251 4.90757 9.17379 3.55101 7.4763 3.55101C5.79001 3.55101 4.4332 4.90757 4.4332 6.6053C4.4332 8.30256 5.79001 9.6596 7.4763 9.6596M11.491 5.24254C11.8707 5.24254 12.1833 4.93568 12.1833 4.55592C12.1833 4.3723 12.1104 4.1962 11.9805 4.06636C11.8507 3.93653 11.6746 3.86358 11.491 3.86358C11.3073 3.86358 11.1312 3.93653 11.0014 4.06636C10.8716 4.1962 10.7986 4.3723 10.7986 4.55592C10.7986 4.93568 11.1112 5.24254 11.491 5.24254ZM7.47654 8.81097C6.26483 8.81097 5.27659 7.82821 5.27659 6.6053C5.27659 5.38263 6.25935 4.39987 7.47654 4.39987C7.76627 4.39953 8.05322 4.45634 8.32096 4.56704C8.58871 4.67775 8.83199 4.84019 9.03687 5.04504C9.24175 5.2499 9.40421 5.49316 9.51494 5.76089C9.62568 6.02863 9.68252 6.31557 9.68221 6.6053C9.68255 6.89505 9.62574 7.18202 9.51501 7.44978C9.40429 7.71754 9.24183 7.96083 9.03695 8.16571C8.83207 8.3706 8.58878 8.53305 8.32102 8.64378C8.05326 8.7545 7.76629 8.81132 7.47654 8.81097Z" fill="white"/>
</svg>
