<svg width="36" height="34" viewBox="0 0 36 34" fill="none" xmlns="http://www.w3.org/2000/svg">
<path d="M10.0454 34C10.8622 34 11.4176 33.5723 12.3975 32.6853L18.0495 27.6406H28.5193C33.3866 27.6406 36 24.9293 36 20.1138V7.52611C36 2.71133 33.3866 0 28.5193 0H7.48072C2.63017 0 0 2.69521 0 7.52611V20.1138C0 24.9454 2.62947 27.6406 7.48072 27.6406H8.26475V31.9127C8.26475 33.1783 8.91846 34 10.0454 34ZM10.7144 30.9928V26.2271C10.7144 25.3401 10.3883 24.9945 9.48993 24.9945H7.49675C4.18151 24.9945 2.62947 23.3019 2.62947 20.0977V7.52611C2.62947 4.32187 4.18151 2.64613 7.49744 2.64613H28.5193C31.8185 2.64613 33.3698 4.32187 33.3698 7.52611V20.0977C33.3698 23.3019 31.8185 24.9945 28.5193 24.9945H17.9345C17.0362 24.9945 16.563 25.1263 15.9413 25.7671L10.7144 30.9928Z" fill="white"/>
</svg>
