<svg width="19" height="13" viewBox="0 0 19 13" fill="none" xmlns="http://www.w3.org/2000/svg">
<path d="M5.86536 10.5059L1.93019 6.91846C1.71814 6.72515 1.43055 6.61655 1.13068 6.61655C0.830802 6.61655 0.54321 6.72515 0.331167 6.91846C0.119124 7.11176 0 7.37394 0 7.64731C0 7.78267 0.029246 7.91671 0.0860678 8.04176C0.14289 8.16682 0.226174 8.28045 0.331167 8.37617L5.07152 12.6976C5.5138 13.1008 6.22825 13.1008 6.67053 12.6976L18.6688 1.75961C18.8809 1.56631 19 1.30413 19 1.03076C19 0.757383 18.8809 0.495206 18.6688 0.301902C18.4568 0.108597 18.1692 0 17.8693 0C17.5695 0 17.2819 0.108597 17.0698 0.301902L5.86536 10.5059Z" fill="#5A42EE"/>
</svg>
