<svg width="29" height="29" viewBox="0 0 29 29" fill="none" xmlns="http://www.w3.org/2000/svg">
<g id="Group 3010">
<circle id="Ellipse 457" cx="14.5" cy="14.5" r="14.5" fill="#C1B7FF"/>
<path id="Vector" d="M10.9392 17.8896L7.62542 14.8541C7.44686 14.6905 7.20467 14.5986 6.95215 14.5986C6.69962 14.5986 6.45744 14.6905 6.27888 14.8541C6.10032 15.0176 6 15.2395 6 15.4708C6 15.5853 6.02463 15.6988 6.07248 15.8046C6.12033 15.9104 6.19046 16.0065 6.27888 16.0875L10.2708 19.7441C10.6432 20.0853 11.2448 20.0853 11.6173 19.7441L21.7211 10.4889C21.8997 10.3253 22 10.1035 22 9.87218C22 9.64086 21.8997 9.41902 21.7211 9.25546C21.5426 9.09189 21.3004 9 21.0479 9C20.7953 9 20.5531 9.09189 20.3746 9.25546L10.9392 17.8896Z" fill="white"/>
</g>
</svg>
