<svg width="18" height="18" viewBox="0 0 18 18" fill="none" xmlns="http://www.w3.org/2000/svg">
<path d="M14 8.5C14 11.5376 11.5376 14 8.5 14C5.46243 14 3 11.5376 3 8.5C3 5.46243 5.46243 3 8.5 3C11.5376 3 14 5.46243 14 8.5Z" fill="white"/>
<path d="M17.6897 8.84483C17.6897 13.7297 13.7297 17.6897 8.84483 17.6897C3.95996 17.6897 0 13.7297 0 8.84483C0 3.95996 3.95996 0 8.84483 0C13.7297 0 17.6897 3.95996 17.6897 8.84483ZM4.55789 8.84483C4.55789 11.2124 6.47722 13.1318 8.84483 13.1318C11.2124 13.1318 13.1318 11.2124 13.1318 8.84483C13.1318 6.47722 11.2124 4.55789 8.84483 4.55789C6.47722 4.55789 4.55789 6.47722 4.55789 8.84483Z" fill="#606060"/>
</svg>
