<svg width="30" height="29" viewBox="0 0 30 29" fill="none" xmlns="http://www.w3.org/2000/svg">
<g id="Group 3008">
<circle id="Ellipse 458" cx="15.271" cy="14.5" r="14.5" fill="#9F90F9"/>
<path id="Vector" d="M11.9392 17.8896L8.62542 14.8541C8.44686 14.6905 8.20467 14.5986 7.95215 14.5986C7.69962 14.5986 7.45744 14.6905 7.27888 14.8541C7.10032 15.0176 7 15.2395 7 15.4708C7 15.5853 7.02463 15.6988 7.07248 15.8046C7.12033 15.9104 7.19046 16.0065 7.27888 16.0875L11.2708 19.7441C11.6432 20.0853 12.2448 20.0853 12.6173 19.7441L22.7211 10.4889C22.8997 10.3253 23 10.1035 23 9.87218C23 9.64086 22.8997 9.41902 22.7211 9.25546C22.5426 9.09189 22.3004 9 22.0479 9C21.7953 9 21.5531 9.09189 21.3746 9.25546L11.9392 17.8896Z" fill="white"/>
</g>
</svg>
