<svg width="18" height="18" viewBox="0 0 18 18" fill="none" xmlns="http://www.w3.org/2000/svg">
<g id="Group 3091">
<path id="Vector" d="M7.43268 10.7529L5.46509 8.95923C5.35907 8.86258 5.21527 8.80828 5.06534 8.80828C4.9154 8.80828 4.77161 8.86258 4.66558 8.95923C4.55956 9.05588 4.5 9.18697 4.5 9.32366C4.5 9.39134 4.51462 9.45835 4.54303 9.52088C4.57144 9.58341 4.61309 9.64023 4.66558 9.68808L7.03576 11.8488C7.2569 12.0504 7.61413 12.0504 7.83527 11.8488L13.8344 6.37981C13.9404 6.28315 14 6.15207 14 6.01538C14 5.87869 13.9404 5.7476 13.8344 5.65095C13.7284 5.5543 13.5846 5.5 13.4347 5.5C13.2847 5.5 13.1409 5.5543 13.0349 5.65095L7.43268 10.7529Z" fill="#606060"/>
<circle id="Ellipse 483" cx="9" cy="9" r="8" stroke="#606060" stroke-width="1.25"/>
</g>
</svg>
