<svg width="40" height="40" viewBox="0 0 40 40" fill="none" xmlns="http://www.w3.org/2000/svg">
<circle cx="20.0219" cy="19.9779" r="19.9779" fill="#44515C"/>
<path d="M15.1168 24.6483L10.551 20.4661C10.305 20.2407 9.97131 20.1141 9.62338 20.1141C9.27546 20.1141 8.94178 20.2407 8.69576 20.4661C8.44974 20.6914 8.31152 20.9971 8.31152 21.3158C8.31152 21.4736 8.34546 21.6298 8.41138 21.7756C8.47731 21.9214 8.57394 22.0539 8.69576 22.1655L14.1957 27.2035C14.7089 27.6736 15.5378 27.6736 16.051 27.2035L29.9719 14.4518C30.2179 14.2264 30.3561 13.9208 30.3561 13.6021C30.3561 13.2834 30.2179 12.9777 29.9719 12.7524C29.7259 12.527 29.3922 12.4004 29.0443 12.4004C28.6963 12.4004 28.3627 12.527 28.1166 12.7524L15.1168 24.6483Z" fill="white"/>
</svg>
