<svg width="40" height="41" viewBox="0 0 40 41" fill="none" xmlns="http://www.w3.org/2000/svg">
<g id="Group 3010">
<circle id="Ellipse 457" cx="20.0219" cy="20.6791" r="19.9779" fill="#E3DEFF"/>
<path id="Vector" d="M15.1168 25.3493L10.551 21.167C10.305 20.9416 9.97131 20.815 9.62338 20.815C9.27546 20.815 8.94178 20.9416 8.69576 21.167C8.44974 21.3924 8.31152 21.698 8.31152 22.0167C8.31152 22.1745 8.34546 22.3308 8.41138 22.4766C8.47731 22.6224 8.57394 22.7548 8.69576 22.8664L14.1957 27.9044C14.7089 28.3745 15.5378 28.3745 16.051 27.9044L29.9719 15.1527C30.2179 14.9274 30.3561 14.6217 30.3561 14.303C30.3561 13.9843 30.2179 13.6786 29.9719 13.4533C29.7259 13.2279 29.3922 13.1013 29.0443 13.1013C28.6963 13.1013 28.3627 13.2279 28.1166 13.4533L15.1168 25.3493Z" fill="white"/>
</g>
</svg>
