<svg width="17" height="17" viewBox="0 0 17 17" fill="none" xmlns="http://www.w3.org/2000/svg">
<path fill-rule="evenodd" clip-rule="evenodd" d="M3.02596 0.352567C2.55578 -0.117612 1.79347 -0.117612 1.32329 0.352566C0.853113 0.822745 0.853114 1.58506 1.32329 2.05523L7.2826 8.01454L1.32322 13.9739C0.853043 14.4441 0.853043 15.2064 1.32322 15.6766C1.7934 16.1468 2.55571 16.1468 3.02589 15.6766L8.98526 9.7172L14.9446 15.6766C15.4148 16.1467 16.1771 16.1467 16.6473 15.6766C17.1175 15.2064 17.1175 14.4441 16.6473 13.9739L10.6879 8.01454L16.6472 2.05525C17.1174 1.58507 17.1174 0.822759 16.6472 0.352581C16.177 -0.117597 15.4147 -0.117597 14.9446 0.352581L8.98526 6.31187L3.02596 0.352567Z" fill="#44515C"/>
</svg>
