<svg width="15" height="15" viewBox="0 0 15 15" fill="none" xmlns="http://www.w3.org/2000/svg">
<path id="Vector" d="M0.734251 0.258968C0.886628 0.107003 1.09318 0.0216454 1.30854 0.0216454C1.5239 0.0216454 1.73045 0.107003 1.88283 0.258968L7.53904 5.90694L13.1952 0.258968C13.2946 0.152149 13.4209 0.0740611 13.561 0.0329303C13.701 -0.00820047 13.8496 -0.0108509 13.991 0.0252584C14.1325 0.0613678 14.2615 0.1349 14.3646 0.238108C14.4677 0.341316 14.541 0.470377 14.5768 0.611696C14.6129 0.752767 14.6103 0.900936 14.5693 1.04067C14.5283 1.1804 14.4504 1.30654 14.3438 1.40587L8.68762 7.05384L14.3438 12.7018C14.4508 12.801 14.529 12.9272 14.5702 13.067C14.6114 13.2068 14.614 13.3552 14.5779 13.4964C14.5417 13.6376 14.4681 13.7665 14.3647 13.8695C14.2614 13.9724 14.1321 14.0456 13.9906 14.0813C13.8493 14.1174 13.7009 14.1148 13.561 14.0739C13.4211 14.0329 13.2947 13.9552 13.1952 13.8487L7.53904 8.20075L1.88283 13.8487C1.72881 13.9922 1.52499 14.0704 1.31435 14.0668C1.10372 14.0631 0.902723 13.978 0.753755 13.8292C0.604795 13.6805 0.519503 13.4798 0.515864 13.2695C0.512226 13.0591 0.590524 12.8556 0.734251 12.7018L6.39046 7.05384L0.734251 1.40587C0.582064 1.25372 0.496582 1.04747 0.496582 0.832421C0.496582 0.617375 0.582064 0.411123 0.734251 0.258968Z" fill="white"/>
</svg>
