<svg width="15" height="15" viewBox="0 0 15 15" fill="none" xmlns="http://www.w3.org/2000/svg">
<path d="M0.252721 0.275369C0.414748 0.113779 0.634384 0.0230162 0.863382 0.0230162C1.09238 0.0230162 1.31202 0.113779 1.47404 0.275369L7.48848 6.28104L13.5029 0.275369C13.6085 0.161785 13.7429 0.0787516 13.8918 0.0350159C14.0407 -0.00871983 14.1987 -0.0115381 14.3491 0.0268581C14.4995 0.0652544 14.6367 0.143444 14.7463 0.253188C14.8559 0.362932 14.9339 0.500168 14.972 0.650436C15.0103 0.800442 15.0076 0.957994 14.964 1.10657C14.9204 1.25515 14.8376 1.38929 14.7242 1.49491L8.7098 7.50058L14.7242 13.5062C14.838 13.6117 14.9211 13.7459 14.9649 13.8946C15.0087 14.0433 15.0116 14.201 14.9731 14.3512C14.9347 14.5014 14.8563 14.6384 14.7464 14.7479C14.6365 14.8573 14.4991 14.9351 14.3486 14.9732C14.1984 15.0115 14.0406 15.0087 13.8918 14.9652C13.743 14.9217 13.6087 14.839 13.5029 14.7258L7.48848 8.72012L1.47404 14.7258C1.31026 14.8784 1.09354 14.9615 0.869561 14.9577C0.645585 14.9538 0.431863 14.8632 0.273461 14.7051C0.115066 14.5469 0.0243724 14.3335 0.0205033 14.1098C0.0166343 13.8862 0.099892 13.6698 0.252721 13.5062L6.26715 7.50058L0.252721 1.49491C0.0908956 1.33312 0 1.11381 0 0.88514C0 0.656476 0.0908956 0.43716 0.252721 0.275369Z" fill="#B5B5B5"/>
</svg>
