<svg width="28" height="17" viewBox="0 0 28 17" fill="none" xmlns="http://www.w3.org/2000/svg">
<rect y="1" width="28" height="15" rx="1" fill="#2D2D2D"/>
<path d="M13.1309 9.02441H4.35449V8.19727H8.23242V7.15527H5.50391V3.51367H6.51367V4.55566H10.9717V3.51367H11.9922V7.15527H9.24219V8.19727H13.1309V9.02441ZM12.0566 12.9131H11.0254V10.7002H5.33203V9.88379H12.0566V12.9131ZM10.9717 6.33887V5.31836H6.51367V6.33887H10.9717ZM17.2021 5.7373C17.1986 6.30306 17.2988 6.86165 17.5029 7.41309C17.707 7.96094 17.9917 8.45329 18.3569 8.89014C18.7257 9.3234 19.1465 9.65462 19.6191 9.88379L18.9854 10.7002C18.4697 10.4316 18.0132 10.0431 17.6157 9.53467C17.2218 9.0262 16.9175 8.44613 16.7026 7.79443C16.4842 8.4891 16.1691 9.10856 15.7573 9.65283C15.3491 10.1935 14.8747 10.6035 14.334 10.8828L13.7002 10.0557C14.1836 9.82292 14.6133 9.47917 14.9893 9.02441C15.3688 8.56966 15.6624 8.05404 15.8701 7.47754C16.0778 6.90104 16.1816 6.32096 16.1816 5.7373V4.09375H17.2021V5.7373ZM21.3594 7.12305H22.9062V7.99316H21.3594V12.9131H20.3389V3.28809H21.3594V7.12305Z" fill="#C1B7FF"/>
</svg>
