<svg width="17" height="17" viewBox="0 0 17 17" fill="none" xmlns="http://www.w3.org/2000/svg">
<path id="Vector" d="M16.4299 12.324C16.4295 13.4475 16.0455 14.5371 15.3414 15.4126C14.7885 16.1 14.0642 16.6231 13.2473 16.9328C12.8647 17.0778 12.46 16.8434 12.3306 16.4553C12.175 15.9885 12.4819 15.4976 12.9253 15.2843C13.0798 15.21 13.2287 15.1235 13.3705 15.0254C13.7705 14.7486 14.1041 14.3866 14.3474 13.9654H12.3224C11.8867 13.9654 11.4688 13.7923 11.1606 13.4842C10.8525 13.1761 10.6794 12.7582 10.6794 12.3224V9.03643C10.6794 8.60068 10.8525 8.18278 11.1606 7.87466C11.4688 7.56654 11.8867 7.39344 12.3224 7.39344H14.736C14.5355 5.80541 13.7624 4.3451 12.5618 3.28653C11.3612 2.22796 9.81557 1.64387 8.21494 1.64387C6.6143 1.64387 5.06867 2.22796 3.86806 3.28653C2.66746 4.3451 1.89439 5.80541 1.69392 7.39344H4.10747C4.54322 7.39344 4.96112 7.56654 5.26924 7.87466C5.57735 8.18278 5.75046 8.60068 5.75046 9.03643V12.3224C5.75046 12.7582 5.57735 13.1761 5.26924 13.4842C4.96112 13.7923 4.54322 13.9654 4.10747 13.9654H1.64299C1.20724 13.9654 0.78934 13.7923 0.48122 13.4842C0.1731 13.1761 0 12.7582 0 12.3224V8.21494C0 3.67783 3.67783 0 8.21494 0C12.752 0 16.4299 3.67783 16.4299 8.21494V12.3224V12.324ZM14.7869 12.3224V9.03643H12.3224V12.3224H14.7869ZM1.64299 9.03643V12.3224H4.10747V9.03643H1.64299Z" fill="#555555"/>
</svg>
