<svg width="21" height="17" viewBox="0 0 21 17" fill="none" xmlns="http://www.w3.org/2000/svg">
<path d="M7.922 1.70001V0H12.8804V1.70001L10.4012 4.25003L7.922 1.70001Z" fill="#E2E2E2"/>
<path d="M12.8804 14.8751L11.6384 7.42305C11.5376 6.81827 11.0143 6.375 10.4012 6.375C9.78806 6.375 9.2648 6.81827 9.164 7.42305L7.922 14.8751L10.4012 17.0001L12.8804 14.8751Z" fill="#E2E2E2"/>
<path d="M11.4631 5.313L13.9423 3.18799H20.6715C18.9715 5.17134 15.9493 5.66717 14.6507 5.66717L16.4215 8.14636L13.5882 9.9172L11.4631 5.313Z" fill="#E2E2E2"/>
<path d="M9.33844 5.313L6.85926 3.18799H0.13004C1.83005 5.17134 4.8523 5.66717 6.15092 5.66717L4.38007 8.14636L7.21342 9.9172L9.33844 5.313Z" fill="#E2E2E2"/>
</svg>
