<svg width="17" height="17" viewBox="0 0 17 17" fill="none" xmlns="http://www.w3.org/2000/svg">
<path d="M9.12195 17C10.4488 10.0341 7.46341 2.4878 3.73171 0C5.39024 2.98537 5.80488 7.04878 5.80488 8.70732C4.14634 5.72195 1.2439 4.42276 0 4.14634C1.65854 5.47317 2.62602 7.73984 2.90244 8.70732C3.56585 14.3463 7.3252 16.5854 9.12195 17Z" fill="#E2E2E2"/>
<path d="M10.3659 9.95122L9.53658 6.63415C10.3659 4.14634 12.0244 1.2439 14.0976 0C11.7756 3.64878 12.8537 6.63415 10.3659 9.95122Z" fill="#E2E2E2"/>
<path d="M10.7805 15.3415V12.0244C11.5924 8.37093 15.1862 5.24737 16.893 4.2101C16.9311 4.1841 16.9668 4.16293 17 4.14634C16.9652 4.16663 16.9295 4.18789 16.893 4.2101C16.2967 4.61733 15.1358 6.20962 14.5122 9.95122C13.8488 13.9317 11.6098 15.2033 10.7805 15.3415Z" fill="#E2E2E2"/>
</svg>
