<svg width="17" height="16" viewBox="0 0 17 16" fill="none" xmlns="http://www.w3.org/2000/svg">
<path d="M7.90837 1.86373L6.11418 5.34959C6.04229 5.48927 5.90893 5.58704 5.75409 5.61358L1.96934 6.2624C1.56628 6.3315 1.41211 6.8289 1.70543 7.11385L4.33821 9.67141C4.45772 9.7875 4.51155 9.95549 4.48177 10.1194L3.82322 13.7445C3.75006 14.1473 4.16541 14.4625 4.53362 14.2837L8.12101 12.5412C8.26652 12.4705 8.43725 12.4746 8.57921 12.5522L12.1514 14.5042C12.5184 14.7047 12.9547 14.393 12.884 13.9809L12.2232 10.1295C12.1941 9.96 12.2542 9.78747 12.3822 9.67267L15.2209 7.12716C15.5339 6.84656 15.382 6.32851 14.967 6.26133L10.955 5.61177C10.7983 5.5864 10.663 5.48814 10.5904 5.34702L8.79751 1.86373C8.61141 1.50216 8.09448 1.50216 7.90837 1.86373Z" fill="#E3DEFF" stroke="#5A42EE" stroke-width="1.5" stroke-linecap="round"/>
</svg>
