<svg width="18" height="18" viewBox="0 0 18 18" fill="none" xmlns="http://www.w3.org/2000/svg">
<path id="Vector" fill-rule="evenodd" clip-rule="evenodd" d="M9 16.0714C10.8755 16.0714 12.6741 15.3264 14.0003 14.0003C15.3264 12.6741 16.0714 10.8755 16.0714 9C16.0714 7.12454 15.3264 5.32589 14.0003 3.99974C12.6741 2.67359 10.8755 1.92857 9 1.92857C7.12454 1.92857 5.32589 2.67359 3.99974 3.99974C2.67359 5.32589 1.92857 7.12454 1.92857 9C1.92857 10.8755 2.67359 12.6741 3.99974 14.0003C5.32589 15.3264 7.12454 16.0714 9 16.0714ZM9 18C11.3869 18 13.6761 17.0518 15.364 15.364C17.0518 13.6761 18 11.3869 18 9C18 6.61305 17.0518 4.32387 15.364 2.63604C13.6761 0.948211 11.3869 0 9 0C6.61305 0 4.32387 0.948211 2.63604 2.63604C0.948211 4.32387 0 6.61305 0 9C0 11.3869 0.948211 13.6761 2.63604 15.364C4.32387 17.0518 6.61305 18 9 18ZM6.99429 4.55143C7.54714 4.09629 8.27229 3.825 9 3.825C10.5647 3.825 12.0086 4.87929 12.0086 6.57643C12.0086 7.06114 11.907 7.53429 11.6254 7.99071C11.358 8.42657 10.9659 8.78014 10.5004 9.10543C10.2214 9.30214 10.0813 9.43586 10.0131 9.52714C9.96429 9.594 9.96429 9.61714 9.96429 9.64157C9.96429 9.89732 9.86269 10.1426 9.68185 10.3234C9.50101 10.5043 9.25574 10.6059 9 10.6059C8.74426 10.6059 8.49899 10.5043 8.31815 10.3234C8.13731 10.1426 8.03571 9.89732 8.03571 9.64157C8.03571 8.62071 8.73514 7.98814 9.39471 7.52657C9.75471 7.27457 9.909 7.09971 9.98357 6.97886C10.0549 6.85777 10.0881 6.71796 10.0787 6.57771C10.0787 6.192 9.76629 5.75357 9 5.75357C8.71478 5.75949 8.43969 5.86039 8.21829 6.04029C8.00357 6.21771 7.92129 6.40929 7.92129 6.57771C7.92129 6.83346 7.81969 7.07873 7.63885 7.25957C7.45801 7.44041 7.21274 7.542 6.957 7.542C6.70126 7.542 6.45599 7.44041 6.27515 7.25957C6.09431 7.07873 5.99271 6.83346 5.99271 6.57771C5.99271 5.71114 6.43629 5.00914 6.99557 4.55014L6.99429 4.55143ZM9 14.1429C9.34099 14.1429 9.66802 14.0074 9.90914 13.7663C10.1503 13.5252 10.2857 13.1981 10.2857 12.8571C10.2857 12.5162 10.1503 12.1891 9.90914 11.948C9.66802 11.7069 9.34099 11.5714 9 11.5714C8.65901 11.5714 8.33198 11.7069 8.09086 11.948C7.84974 12.1891 7.71429 12.5162 7.71429 12.8571C7.71429 13.1981 7.84974 13.5252 8.09086 13.7663C8.33198 14.0074 8.65901 14.1429 9 14.1429Z" fill="#555555"/>
</svg>
