<svg width="16" height="29" viewBox="0 0 16 29" fill="none" xmlns="http://www.w3.org/2000/svg">
<path d="M3.20643 14.048L14.8045 1.84649C14.9 1.74816 14.9755 1.63142 15.0266 1.50302C15.0778 1.37463 15.1035 1.23713 15.1024 1.09849C15.1013 0.95984 15.0733 0.822798 15.0201 0.695292C14.9669 0.567786 14.8895 0.452347 14.7924 0.355655C14.6954 0.258963 14.5805 0.182939 14.4546 0.131981C14.3286 0.0810236 14.194 0.0561445 14.0586 0.0587838C13.9232 0.061423 13.7896 0.0915283 13.6656 0.147357C13.5417 0.203186 13.4297 0.28363 13.3363 0.384034L1.04442 13.3168C0.858368 13.5126 0.754272 13.7749 0.754272 14.048C0.754272 14.3212 0.858368 14.5835 1.04442 14.7793L13.3363 27.712C13.4297 27.8124 13.5417 27.8929 13.6656 27.9487C13.7896 28.0045 13.9232 28.0346 14.0586 28.0373C14.194 28.0399 14.3286 28.015 14.4546 27.9641C14.5805 27.9131 14.6954 27.8371 14.7924 27.7404C14.8895 27.6437 14.9669 27.5283 15.0201 27.4008C15.0733 27.2733 15.1013 27.1362 15.1024 26.9976C15.1035 26.8589 15.0778 26.7214 15.0266 26.593C14.9755 26.4647 14.9 26.3479 14.8045 26.2496L3.20643 14.048Z" fill="#5A42EE"/>
</svg>
