<svg width="373" height="76" viewBox="0 0 373 76" fill="none" xmlns="http://www.w3.org/2000/svg">
<path d="M3.72546 27.9473C4.30826 23.2163 6.09095 18.691 9.07352 14.3715C12.0561 10.0176 15.8443 6.69219 20.4382 4.39526C25.0663 2.06405 29.643 0.89845 34.1683 0.89845C38.7279 0.89845 42.996 2.06405 46.9728 4.39526C50.9838 6.69219 53.9321 10.0004 55.8177 14.32C56.1948 15.1771 56.5205 16.0342 56.7947 16.8912C57.1033 17.6797 57.2918 18.4854 57.3604 19.3081C57.3947 19.3424 57.4118 19.3767 57.4118 19.411C57.5489 20.3366 57.5489 21.2965 57.4118 22.2907C57.1375 24.3134 56.3662 26.2332 55.0977 28.0502C53.8636 29.8671 52.2694 31.2899 50.3153 32.3183C48.3612 33.3468 46.3728 33.861 44.3502 33.861C42.3618 33.861 40.4934 33.3468 38.745 32.3183C37.0309 31.2899 35.7967 29.8671 35.0425 28.0502C34.8025 27.5359 34.5968 26.936 34.4254 26.2503C34.3911 26.1475 34.3568 26.0446 34.3226 25.9418C34.0483 25.3247 33.6198 24.8619 33.037 24.5534C32.4542 24.2105 31.8371 24.0391 31.1857 24.0391C30.5343 24.0391 29.883 24.2105 29.2316 24.5534C28.5802 24.8619 28.0317 25.3247 27.5861 25.9418C27.1747 26.5589 26.9347 27.2274 26.8661 27.9473L24.1921 48.2597C24.1235 48.9453 24.2092 49.5967 24.4492 50.2138C24.7235 50.8309 25.152 51.2937 25.7348 51.6022C25.9405 51.7393 26.1633 51.8593 26.4033 51.9622C26.4376 51.5165 26.4719 51.0708 26.5062 50.6252C26.7804 48.6025 27.5346 46.6827 28.7688 44.8657C30.0372 43.0145 31.6485 41.5917 33.6026 40.5975C35.591 39.5691 37.5794 39.0548 39.5678 39.0548H44.6587C46.6814 39.0548 48.5498 39.5691 50.2639 40.5975C51.978 41.5917 53.2122 43.0145 53.9664 44.8657C54.7549 46.6827 55.012 48.6025 54.7378 50.6252L53.0408 63.6868C52.8008 65.7095 52.0295 67.6464 50.7267 69.4977C49.424 71.3489 47.7956 72.7716 45.8415 73.7658C43.8874 74.76 41.9333 75.2571 39.9792 75.2571C38.0251 75.2571 36.2081 74.76 34.5283 73.7658C34.3911 73.6973 34.254 73.6287 34.1169 73.5601C30.8943 74.6915 27.6889 75.2571 24.5006 75.2571C19.9753 75.2571 15.7072 74.1087 11.6961 71.8117C7.71936 69.4805 4.80535 66.138 2.9541 61.7841C1.13713 57.5674 0.485763 53.1621 1 48.5682L3.72546 27.9473ZM91.6086 27.8959C91.7114 27.2102 91.6257 26.576 91.3514 25.9932C91.0772 25.3761 90.6658 24.8962 90.1173 24.5534C89.5688 24.2105 88.9517 24.0391 88.266 24.0391C87.5804 24.0391 86.8947 24.2105 86.2091 24.5534C85.5577 24.8962 85.0263 25.3761 84.6149 25.9932C84.2378 26.6103 83.9979 27.2445 83.895 27.8959L82.8665 35.8666C82.8322 36.0037 82.8494 36.1408 82.918 36.278C82.9865 36.3808 83.0722 36.4665 83.1751 36.5351C83.2779 36.6036 83.3979 36.6379 83.535 36.6379H89.7059C89.843 36.6379 89.9801 36.6036 90.1173 36.5351C90.2544 36.4665 90.3572 36.3808 90.4258 36.278C90.4944 36.1408 90.5458 36.0037 90.5801 35.8666L91.6086 27.8959ZM86.9804 63.6868L88.0603 55.4076C88.0603 55.2704 88.026 55.1505 87.9575 55.0476C87.9232 54.9105 87.8546 54.8076 87.7518 54.7391C87.6489 54.6705 87.5289 54.6362 87.3918 54.6362H81.221C81.0838 54.6362 80.9467 54.6705 80.8096 54.7391C80.6725 54.8076 80.5525 54.9105 80.4496 55.0476C80.3811 55.1505 80.3468 55.2704 80.3468 55.4076L79.2669 63.6868C78.9926 65.7095 78.2213 67.6293 76.9528 69.4462C75.7186 71.2632 74.1074 72.6859 72.119 73.7144C70.1649 74.7429 68.1765 75.2571 66.1538 75.2571C64.1654 75.2571 62.3142 74.7429 60.6001 73.7144C58.8859 72.6859 57.6518 71.2632 56.8976 69.4462C56.1091 67.6293 55.8519 65.7095 56.1262 63.6868L60.8058 27.5873C61.4571 22.9935 63.2398 18.5711 66.1538 14.32C69.1364 10.0004 72.9246 6.69219 77.5185 4.39526C82.1123 2.06405 86.6719 0.89845 91.1972 0.89845C95.7567 0.89845 100.042 2.06405 104.053 4.39526C108.064 6.69219 110.995 10.0004 112.847 14.32C114.664 18.5711 115.315 22.9935 114.801 27.5873L110.121 63.6868C109.847 65.7095 109.075 67.6293 107.807 69.4462C106.573 71.2632 104.962 72.6859 102.973 73.7144C101.019 74.7429 99.0307 75.2571 97.008 75.2571C95.0197 75.2571 93.1684 74.7429 91.4543 73.7144C89.7402 72.6859 88.4889 71.2632 87.7004 69.4462C86.9461 67.6293 86.7062 65.7095 86.9804 63.6868ZM148.689 27.8959C148.792 27.2102 148.706 26.5589 148.432 25.9418C148.157 25.3247 147.729 24.8619 147.146 24.5534C146.598 24.2105 145.998 24.0391 145.346 24.0391C144.695 24.0391 144.026 24.2105 143.341 24.5534C142.689 24.8619 142.158 25.3247 141.747 25.9418C141.335 26.5589 141.078 27.2102 140.975 27.8959L136.347 63.6868C136.073 65.7095 135.302 67.6293 134.033 69.4462C132.799 71.2632 131.188 72.6859 129.199 73.7144C127.245 74.7429 125.257 75.2571 123.234 75.2571C121.246 75.2571 119.394 74.7429 117.68 73.7144C115.966 72.6859 114.732 71.2632 113.978 69.4462C113.189 67.6293 112.932 65.7095 113.207 63.6868L119.84 12.4688C120.114 10.4461 120.886 8.50916 122.154 6.6579C123.457 4.80665 125.085 3.38393 127.039 2.38974C128.994 1.39555 130.948 0.89845 132.902 0.89845H148.38C152.906 0.89845 157.191 2.04691 161.236 4.34384C161.888 4.75523 162.539 5.2009 163.19 5.68085C163.945 5.2009 164.733 4.75523 165.556 4.34384C170.115 2.04691 174.675 0.89845 179.235 0.89845C183.76 0.89845 188.028 2.06405 192.039 4.39526C196.05 6.69219 198.981 10.0004 200.832 14.32C202.615 18.5711 203.249 22.9935 202.735 27.5873L198.056 63.6868C197.781 65.7095 197.01 67.6293 195.742 69.4462C194.507 71.2632 192.896 72.6859 190.908 73.7144C188.954 74.7429 186.965 75.2571 184.943 75.2571C182.954 75.2571 181.103 74.7429 179.389 73.7144C177.675 72.6859 176.423 71.2632 175.635 69.4462C174.881 67.6293 174.641 65.7095 174.915 63.6868L179.543 27.8959C179.646 27.2102 179.56 26.5589 179.286 25.9418C179.012 25.3247 178.583 24.8619 178 24.5534C177.452 24.2105 176.852 24.0391 176.201 24.0391C175.549 24.0391 174.881 24.2105 174.195 24.5534C173.544 24.8619 173.012 25.3247 172.601 25.9418C172.189 26.5589 171.932 27.2102 171.83 27.8959L167.201 63.6868C166.927 65.7095 166.156 67.6293 164.887 69.4462C163.653 71.2632 162.042 72.6859 160.054 73.7144C158.099 74.7429 156.111 75.2571 154.088 75.2571C152.1 75.2571 150.249 74.7429 148.535 73.7144C146.82 72.6859 145.569 71.2632 144.781 69.4462C144.026 67.6293 143.786 65.7095 144.061 63.6868L148.689 27.8959ZM205.821 27.9473C206.403 23.2163 208.186 18.691 211.169 14.3715C214.151 10.0176 217.939 6.69219 222.533 4.39526C227.161 2.06405 231.738 0.89845 236.263 0.89845C240.823 0.89845 245.091 2.06405 249.068 4.39526C253.079 6.69219 256.027 10.0004 257.913 14.32C258.29 15.1771 258.616 16.0342 258.89 16.8912C259.198 17.6797 259.387 18.4854 259.456 19.3081C259.49 19.3424 259.507 19.3767 259.507 19.411C259.644 20.3366 259.644 21.2965 259.507 22.2907C259.233 24.3134 258.461 26.2332 257.193 28.0502C255.959 29.8671 254.365 31.2899 252.41 32.3183C250.456 33.3468 248.468 33.861 246.445 33.861C244.457 33.861 242.589 33.3468 240.84 32.3183C239.126 31.2899 237.892 29.8671 237.138 28.0502C236.898 27.5359 236.692 26.936 236.521 26.2503C236.486 26.1475 236.452 26.0446 236.418 25.9418C236.143 25.3247 235.715 24.8619 235.132 24.5534C234.549 24.2105 233.932 24.0391 233.281 24.0391C232.629 24.0391 231.978 24.2105 231.327 24.5534C230.675 24.8619 230.127 25.3247 229.681 25.9418C229.27 26.5589 229.03 27.2274 228.961 27.9473L226.287 48.2597C226.219 48.9453 226.304 49.5967 226.544 50.2138C226.819 50.8309 227.247 51.2937 227.83 51.6022C228.036 51.7393 228.258 51.8593 228.498 51.9622C228.533 51.5165 228.567 51.0708 228.601 50.6252C228.876 48.6025 229.63 46.6827 230.864 44.8657C232.132 43.0145 233.744 41.5917 235.698 40.5975C237.686 39.5691 239.675 39.0548 241.663 39.0548H246.754C248.777 39.0548 250.645 39.5691 252.359 40.5975C254.073 41.5917 255.307 43.0145 256.062 44.8657C256.85 46.6827 257.107 48.6025 256.833 50.6252L255.136 63.6868C254.896 65.7095 254.125 67.6464 252.822 69.4977C251.519 71.3489 249.891 72.7716 247.937 73.7658C245.983 74.76 244.028 75.2571 242.074 75.2571C240.12 75.2571 238.303 74.76 236.623 73.7658C236.486 73.6973 236.349 73.6287 236.212 73.5601C232.989 74.6915 229.784 75.2571 226.596 75.2571C222.07 75.2571 217.802 74.1087 213.791 71.8117C209.815 69.4805 206.9 66.138 205.049 61.7841C203.232 57.5674 202.581 53.1621 203.095 48.5682L205.821 27.9473ZM280.796 48.2597C280.693 48.9453 280.779 49.5967 281.053 50.2138C281.328 50.7966 281.739 51.2594 282.288 51.6022C282.87 51.945 283.488 52.1165 284.139 52.1165C284.825 52.1165 285.493 51.945 286.144 51.6022C286.796 51.2594 287.327 50.7966 287.739 50.2138C288.15 49.5967 288.407 48.9453 288.51 48.2597L291.132 27.8959C291.235 27.2102 291.15 26.5589 290.875 25.9418C290.635 25.3247 290.224 24.8619 289.641 24.5534C289.058 24.2105 288.441 24.0391 287.79 24.0391C287.139 24.0391 286.487 24.2105 285.836 24.5534C285.184 24.8619 284.636 25.3247 284.19 25.9418C283.779 26.5589 283.522 27.2102 283.419 27.8959L280.796 48.2597ZM260.278 27.9473C260.895 23.2163 262.695 18.691 265.678 14.3715C268.66 10.0176 272.449 6.69219 277.042 4.39526C281.671 2.06405 286.247 0.89845 290.773 0.89845C295.332 0.89845 299.6 2.06405 303.577 4.39526C307.588 6.69219 310.519 10.0176 312.37 14.3715C314.256 18.691 314.89 23.2163 314.273 27.9473L311.651 48.3111C311.033 52.9735 309.268 57.4474 306.354 61.7327C303.44 65.9837 299.686 69.3091 295.092 71.7089C290.498 74.0744 285.836 75.2571 281.105 75.2571C276.477 75.2571 272.157 74.0744 268.146 71.7089C264.169 69.3091 261.272 65.9837 259.456 61.7327C257.639 57.4474 257.039 52.9735 257.656 48.3111L260.278 27.9473ZM337.877 48.2597C337.774 48.9453 337.86 49.5967 338.134 50.2138C338.408 50.7966 338.819 51.2594 339.368 51.6022C339.951 51.945 340.568 52.1165 341.219 52.1165C341.905 52.1165 342.573 51.945 343.225 51.6022C343.876 51.2594 344.407 50.7966 344.819 50.2138C345.23 49.5967 345.487 48.9453 345.59 48.2597L348.213 27.8959C348.316 27.2102 348.23 26.5589 347.956 25.9418C347.716 25.3247 347.304 24.8619 346.722 24.5534C346.139 24.2105 345.522 24.0391 344.87 24.0391C344.219 24.0391 343.568 24.2105 342.916 24.5534C342.265 24.8619 341.716 25.3247 341.271 25.9418C340.859 26.5589 340.602 27.2102 340.499 27.8959L337.877 48.2597ZM317.359 27.9473C317.976 23.2163 319.776 18.691 322.758 14.3715C325.741 10.0176 329.529 6.69219 334.123 4.39526C338.751 2.06405 343.328 0.89845 347.853 0.89845C352.412 0.89845 356.681 2.06405 360.657 4.39526C364.668 6.69219 367.6 10.0176 369.451 14.3715C371.336 18.691 371.971 23.2163 371.353 27.9473L368.731 48.3111C368.114 52.9735 366.348 57.4474 363.434 61.7327C360.52 65.9837 356.766 69.3091 352.172 71.7089C347.579 74.0744 342.916 75.2571 338.185 75.2571C333.557 75.2571 329.237 74.0744 325.226 71.7089C321.25 69.3091 318.353 65.9837 316.536 61.7327C314.719 57.4474 314.119 52.9735 314.736 48.3111L317.359 27.9473Z" fill="#5A42EE"/>
</svg>
