<svg width="279" height="57" viewBox="0 0 279 57" fill="none" xmlns="http://www.w3.org/2000/svg">
<path d="M3.03491 20.869C3.47005 17.3367 4.80106 13.958 7.02794 10.7329C9.25482 7.48213 12.0832 4.99929 15.5131 3.28433C18.9686 1.54378 22.3857 0.673505 25.7645 0.673505C29.1688 0.673505 32.3555 1.54378 35.3247 3.28433C38.3195 4.99929 40.5208 7.46933 41.9286 10.6945C42.2101 11.3344 42.4533 11.9743 42.658 12.6142C42.8884 13.2029 43.0292 13.8044 43.0804 14.4187C43.106 14.4443 43.1188 14.4699 43.1188 14.4955C43.2212 15.1866 43.2212 15.9033 43.1188 16.6456C42.914 18.1558 42.3381 19.5892 41.391 20.9458C40.4696 22.3024 39.2793 23.3647 37.8203 24.1326C36.3613 24.9004 34.8768 25.2844 33.3666 25.2844C31.882 25.2844 30.487 24.9004 29.1816 24.1326C27.9018 23.3647 26.9803 22.3024 26.4172 20.9458C26.238 20.5619 26.0844 20.1139 25.9564 19.602C25.9308 19.5252 25.9052 19.4484 25.8796 19.3716C25.6749 18.9109 25.3549 18.5653 24.9198 18.335C24.4846 18.079 24.0239 17.951 23.5376 17.951C23.0512 17.951 22.5649 18.079 22.0786 18.335C21.5923 18.5653 21.1827 18.9109 20.85 19.3716C20.5428 19.8324 20.3636 20.3315 20.3124 20.869L18.3159 36.0349C18.2647 36.5468 18.3287 37.0331 18.5079 37.4938C18.7127 37.9546 19.0326 38.3001 19.4678 38.5305C19.6213 38.6329 19.7877 38.7225 19.9669 38.7993C19.9925 38.4665 20.0181 38.1338 20.0437 37.801C20.2484 36.2908 20.8116 34.8574 21.733 33.5008C22.6801 32.1186 23.8831 31.0564 25.3421 30.3141C26.8267 29.5462 28.3113 29.1622 29.7959 29.1622H33.5969C35.1071 29.1622 36.5021 29.5462 37.7819 30.3141C39.0618 31.0564 39.9832 32.1186 40.5463 33.5008C41.1351 34.8574 41.327 36.2908 41.1223 37.801L39.8552 47.5532C39.6761 49.0634 39.1002 50.5096 38.1275 51.8918C37.1548 53.274 35.939 54.3362 34.48 55.0785C33.021 55.8208 31.562 56.192 30.103 56.192C28.6441 56.192 27.2874 55.8208 26.0332 55.0785C25.9308 55.0273 25.8285 54.9761 25.7261 54.925C23.32 55.7696 20.9268 56.192 18.5463 56.192C15.1676 56.192 11.9808 55.3345 8.98606 53.6195C6.01688 51.879 3.84119 49.3833 2.45899 46.1326C1.10239 42.9843 0.616055 39.6951 1 36.2652L3.03491 20.869ZM68.6511 20.8306C68.7279 20.3187 68.6639 19.8452 68.4592 19.41C68.2544 18.9493 67.9472 18.5909 67.5377 18.335C67.1282 18.079 66.6674 17.951 66.1555 17.951C65.6436 17.951 65.1316 18.079 64.6197 18.335C64.1334 18.5909 63.7366 18.9493 63.4295 19.41C63.1479 19.8708 62.9687 20.3443 62.892 20.8306L62.1241 26.7818C62.0985 26.8842 62.1113 26.9865 62.1625 27.0889C62.2137 27.1657 62.2776 27.2297 62.3544 27.2809C62.4312 27.3321 62.5208 27.3577 62.6232 27.3577H67.2305C67.3329 27.3577 67.4353 27.3321 67.5377 27.2809C67.6401 27.2297 67.7169 27.1657 67.7681 27.0889C67.8193 26.9865 67.8576 26.8842 67.8832 26.7818L68.6511 20.8306ZM65.1956 47.5532L66.0019 41.3717C66.0019 41.2693 65.9763 41.1797 65.9251 41.1029C65.8995 41.0005 65.8483 40.9238 65.7715 40.8726C65.6948 40.8214 65.6052 40.7958 65.5028 40.7958H60.8954C60.7931 40.7958 60.6907 40.8214 60.5883 40.8726C60.4859 40.9238 60.3963 41.0005 60.3195 41.1029C60.2683 41.1797 60.2427 41.2693 60.2427 41.3717L59.4365 47.5532C59.2317 49.0634 58.6558 50.4968 57.7087 51.8534C56.7872 53.21 55.5842 54.2722 54.0996 55.0401C52.6406 55.808 51.156 56.192 49.6459 56.192C48.1613 56.192 46.7791 55.808 45.4992 55.0401C44.2194 54.2722 43.298 53.21 42.7348 51.8534C42.1461 50.4968 41.9541 49.0634 42.1589 47.5532L45.6528 20.6003C46.1392 17.1703 47.4702 13.8684 49.6459 10.6945C51.8727 7.46933 54.7011 4.99929 58.131 3.28433C61.5609 1.54378 64.9653 0.673505 68.344 0.673505C71.7483 0.673505 74.9478 1.54378 77.9426 3.28433C80.9374 4.99929 83.1259 7.46933 84.5081 10.6945C85.8647 13.8684 86.351 17.1703 85.9671 20.6003L82.4732 47.5532C82.2684 49.0634 81.6925 50.4968 80.7454 51.8534C79.8239 53.21 78.6209 54.2722 77.1363 55.0401C75.6773 55.808 74.1927 56.192 72.6826 56.192C71.198 56.192 69.8158 55.808 68.536 55.0401C67.2561 54.2722 66.3219 53.21 65.7332 51.8534C65.17 50.4968 64.9909 49.0634 65.1956 47.5532ZM111.269 20.8306C111.346 20.3187 111.282 19.8324 111.077 19.3716C110.872 18.9109 110.552 18.5653 110.117 18.335C109.708 18.079 109.26 17.951 108.773 17.951C108.287 17.951 107.788 18.079 107.276 18.335C106.79 18.5653 106.393 18.9109 106.086 19.3716C105.779 19.8324 105.587 20.3187 105.51 20.8306L102.054 47.5532C101.85 49.0634 101.274 50.4968 100.327 51.8534C99.4051 53.21 98.2021 54.2722 96.7175 55.0401C95.2585 55.808 93.7739 56.192 92.2638 56.192C90.7792 56.192 89.397 55.808 88.1172 55.0401C86.8373 54.2722 85.9159 53.21 85.3528 51.8534C84.764 50.4968 84.5721 49.0634 84.7768 47.5532L89.7297 9.31227C89.9345 7.80209 90.5104 6.35589 91.4575 4.97369C92.4301 3.59149 93.646 2.52924 95.105 1.78695C96.5639 1.04465 98.0229 0.673505 99.4819 0.673505H111.039C114.417 0.673505 117.617 1.53098 120.637 3.24594C121.124 3.55309 121.61 3.88585 122.096 4.24419C122.659 3.88585 123.248 3.55309 123.862 3.24594C127.267 1.53098 130.671 0.673505 134.075 0.673505C137.454 0.673505 140.641 1.54378 143.636 3.28433C146.63 4.99929 148.819 7.46933 150.201 10.6945C151.532 13.8684 152.006 17.1703 151.622 20.6003L148.128 47.5532C147.923 49.0634 147.347 50.4968 146.4 51.8534C145.479 53.21 144.276 54.2722 142.791 55.0401C141.332 55.808 139.847 56.192 138.337 56.192C136.853 56.192 135.47 55.808 134.191 55.0401C132.911 54.2722 131.976 53.21 131.388 51.8534C130.825 50.4968 130.645 49.0634 130.85 47.5532L134.306 20.8306C134.383 20.3187 134.319 19.8324 134.114 19.3716C133.909 18.9109 133.589 18.5653 133.154 18.335C132.744 18.079 132.296 17.951 131.81 17.951C131.324 17.951 130.825 18.079 130.313 18.335C129.826 18.5653 129.43 18.9109 129.122 19.3716C128.815 19.8324 128.623 20.3187 128.547 20.8306L125.091 47.5532C124.886 49.0634 124.31 50.4968 123.363 51.8534C122.442 53.21 121.239 54.2722 119.754 55.0401C118.295 55.808 116.811 56.192 115.3 56.192C113.816 56.192 112.434 55.808 111.154 55.0401C109.874 54.2722 108.94 53.21 108.351 51.8534C107.788 50.4968 107.609 49.0634 107.814 47.5532L111.269 20.8306ZM153.925 20.869C154.36 17.3367 155.691 13.958 157.918 10.7329C160.145 7.48213 162.974 4.99929 166.404 3.28433C169.859 1.54378 173.276 0.673505 176.655 0.673505C180.059 0.673505 183.246 1.54378 186.215 3.28433C189.21 4.99929 191.411 7.46933 192.819 10.6945C193.101 11.3344 193.344 11.9743 193.548 12.6142C193.779 13.2029 193.92 13.8044 193.971 14.4187C193.996 14.4443 194.009 14.4699 194.009 14.4955C194.112 15.1866 194.112 15.9033 194.009 16.6456C193.804 18.1558 193.229 19.5892 192.281 20.9458C191.36 22.3024 190.17 23.3647 188.711 24.1326C187.252 24.9004 185.767 25.2844 184.257 25.2844C182.772 25.2844 181.377 24.9004 180.072 24.1326C178.792 23.3647 177.871 22.3024 177.308 20.9458C177.128 20.5619 176.975 20.1139 176.847 19.602C176.821 19.5252 176.796 19.4484 176.77 19.3716C176.565 18.9109 176.245 18.5653 175.81 18.335C175.375 18.079 174.914 17.951 174.428 17.951C173.942 17.951 173.455 18.079 172.969 18.335C172.483 18.5653 172.073 18.9109 171.74 19.3716C171.433 19.8324 171.254 20.3315 171.203 20.869L169.206 36.0349C169.155 36.5468 169.219 37.0331 169.398 37.4938C169.603 37.9546 169.923 38.3001 170.358 38.5305C170.512 38.6329 170.678 38.7225 170.857 38.7993C170.883 38.4665 170.909 38.1338 170.934 37.801C171.139 36.2908 171.702 34.8574 172.623 33.5008C173.571 32.1186 174.774 31.0564 176.233 30.3141C177.717 29.5462 179.202 29.1622 180.686 29.1622H184.487C185.998 29.1622 187.393 29.5462 188.672 30.3141C189.952 31.0564 190.874 32.1186 191.437 33.5008C192.026 34.8574 192.217 36.2908 192.013 37.801L190.746 47.5532C190.567 49.0634 189.991 50.5096 189.018 51.8918C188.045 53.274 186.829 54.3362 185.37 55.0785C183.911 55.8208 182.452 56.192 180.993 56.192C179.534 56.192 178.178 55.8208 176.924 55.0785C176.821 55.0273 176.719 54.9761 176.617 54.925C174.21 55.7696 171.817 56.192 169.437 56.192C166.058 56.192 162.871 55.3345 159.877 53.6195C156.907 51.879 154.732 49.3833 153.349 46.1326C151.993 42.9843 151.506 39.6951 151.89 36.2652L153.925 20.869ZM209.905 36.0349C209.828 36.5468 209.892 37.0331 210.097 37.4938C210.301 37.929 210.608 38.2745 211.018 38.5305C211.453 38.7865 211.914 38.9144 212.4 38.9144C212.912 38.9144 213.411 38.7865 213.898 38.5305C214.384 38.2745 214.781 37.929 215.088 37.4938C215.395 37.0331 215.587 36.5468 215.664 36.0349L217.622 20.8306C217.699 20.3187 217.635 19.8324 217.43 19.3716C217.251 18.9109 216.944 18.5653 216.508 18.335C216.073 18.079 215.613 17.951 215.126 17.951C214.64 17.951 214.154 18.079 213.667 18.335C213.181 18.5653 212.771 18.9109 212.439 19.3716C212.131 19.8324 211.939 20.3187 211.863 20.8306L209.905 36.0349ZM194.585 20.869C195.046 17.3367 196.39 13.958 198.617 10.7329C200.843 7.48213 203.672 4.99929 207.102 3.28433C210.557 1.54378 213.974 0.673505 217.353 0.673505C220.757 0.673505 223.944 1.54378 226.913 3.28433C229.908 4.99929 232.097 7.48213 233.479 10.7329C234.887 13.958 235.36 17.3367 234.899 20.869L232.941 36.0732C232.481 39.5543 231.162 42.8947 228.987 46.0942C226.811 49.2682 224.008 51.751 220.578 53.5428C217.148 55.3089 213.667 56.192 210.135 56.192C206.679 56.192 203.454 55.3089 200.459 53.5428C197.49 51.751 195.327 49.2682 193.971 46.0942C192.614 42.8947 192.166 39.5543 192.627 36.0732L194.585 20.869ZM252.522 36.0349C252.446 36.5468 252.51 37.0331 252.714 37.4938C252.919 37.929 253.226 38.2745 253.636 38.5305C254.071 38.7865 254.532 38.9144 255.018 38.9144C255.53 38.9144 256.029 38.7865 256.515 38.5305C257.002 38.2745 257.399 37.929 257.706 37.4938C258.013 37.0331 258.205 36.5468 258.282 36.0349L260.24 20.8306C260.317 20.3187 260.253 19.8324 260.048 19.3716C259.869 18.9109 259.561 18.5653 259.126 18.335C258.691 18.079 258.23 17.951 257.744 17.951C257.258 17.951 256.771 18.079 256.285 18.335C255.799 18.5653 255.389 18.9109 255.057 19.3716C254.749 19.8324 254.557 20.3187 254.481 20.8306L252.522 36.0349ZM237.203 20.869C237.664 17.3367 239.008 13.958 241.234 10.7329C243.461 7.48213 246.29 4.99929 249.72 3.28433C253.175 1.54378 256.592 0.673505 259.971 0.673505C263.375 0.673505 266.562 1.54378 269.531 3.28433C272.526 4.99929 274.714 7.48213 276.097 10.7329C277.504 13.958 277.978 17.3367 277.517 20.869L275.559 36.0732C275.098 39.5543 273.78 42.8947 271.605 46.0942C269.429 49.2682 266.626 51.751 263.196 53.5428C259.766 55.3089 256.285 56.192 252.753 56.192C249.297 56.192 246.072 55.3089 243.077 53.5428C240.108 51.751 237.945 49.2682 236.589 46.0942C235.232 42.8947 234.784 39.5543 235.245 36.0732L237.203 20.869Z" fill="#5A42EE"/>
</svg>
