<svg width="103" height="22" viewBox="0 0 103 22" fill="none" xmlns="http://www.w3.org/2000/svg">
<path d="M1.74331 8.16745C1.90225 6.87718 2.38844 5.64301 3.20187 4.46494C4.0153 3.27752 5.04845 2.3706 6.30132 1.74416C7.56353 1.10838 8.81173 0.790486 10.0459 0.790486C11.2894 0.790486 12.4535 1.10838 13.538 1.74416C14.632 2.3706 15.436 3.27285 15.9503 4.45092C16.0531 4.68466 16.1419 4.91841 16.2167 5.15215C16.3009 5.3672 16.3523 5.58692 16.371 5.81131C16.3804 5.82066 16.385 5.83001 16.385 5.83936C16.4224 6.0918 16.4224 6.3536 16.385 6.62474C16.3102 7.17637 16.0999 7.69996 15.7539 8.1955C15.4173 8.69104 14.9826 9.07905 14.4496 9.35954C13.9167 9.64004 13.3744 9.78028 12.8228 9.78028C12.2805 9.78028 11.7709 9.64004 11.2941 9.35954C10.8266 9.07905 10.49 8.69104 10.2843 8.1955C10.2189 8.05525 10.1628 7.89163 10.116 7.70464C10.1067 7.67659 10.0973 7.64854 10.088 7.62049C10.0132 7.45219 9.8963 7.32597 9.73735 7.24182C9.57841 7.14833 9.41011 7.10158 9.23247 7.10158C9.05482 7.10158 8.87718 7.14833 8.69953 7.24182C8.52188 7.32597 8.37229 7.45219 8.25074 7.62049C8.13854 7.78878 8.0731 7.9711 8.0544 8.16745L7.32511 13.7072C7.30642 13.8942 7.32979 14.0718 7.39524 14.2401C7.47004 14.4084 7.58691 14.5346 7.74585 14.6188C7.80195 14.6562 7.86273 14.6889 7.92817 14.717C7.93752 14.5954 7.94687 14.4739 7.95622 14.3523C8.03102 13.8007 8.23672 13.2771 8.57331 12.7816C8.91925 12.2767 9.35869 11.8887 9.89162 11.6175C10.4339 11.337 10.9762 11.1968 11.5185 11.1968H12.9069C13.4586 11.1968 13.9681 11.337 14.4356 11.6175C14.9031 11.8887 15.2397 12.2767 15.4454 12.7816C15.6604 13.2771 15.7306 13.8007 15.6558 14.3523L15.1929 17.9146C15.1275 18.4662 14.9171 18.9945 14.5618 19.4994C14.2065 20.0043 13.7624 20.3923 13.2295 20.6634C12.6966 20.9346 12.1636 21.0701 11.6307 21.0701C11.0977 21.0701 10.6022 20.9346 10.1441 20.6634C10.1067 20.6447 10.0693 20.626 10.0319 20.6073C9.15299 20.9159 8.27879 21.0701 7.40926 21.0701C6.17509 21.0701 5.01105 20.7569 3.91713 20.1305C2.83255 19.4947 2.03782 18.5831 1.53294 17.3957C1.0374 16.2456 0.859754 15.0442 1 13.7913L1.74331 8.16745ZM25.7114 8.15343C25.7395 7.96643 25.7161 7.79346 25.6413 7.63451C25.5665 7.46622 25.4543 7.33532 25.3047 7.24182C25.1551 7.14833 24.9868 7.10158 24.7998 7.10158C24.6128 7.10158 24.4258 7.14833 24.2388 7.24182C24.0612 7.33532 23.9163 7.46622 23.8041 7.63451C23.7012 7.80281 23.6358 7.97578 23.6077 8.15343L23.3272 10.3272C23.3179 10.3646 23.3226 10.402 23.3413 10.4394C23.36 10.4675 23.3833 10.4909 23.4114 10.5096C23.4394 10.5283 23.4722 10.5376 23.5096 10.5376H25.1925C25.2299 10.5376 25.2673 10.5283 25.3047 10.5096C25.3421 10.4909 25.3702 10.4675 25.3889 10.4394C25.4076 10.402 25.4216 10.3646 25.4309 10.3272L25.7114 8.15343ZM24.4492 17.9146L24.7437 15.6566C24.7437 15.6192 24.7344 15.5865 24.7157 15.5584C24.7063 15.521 24.6876 15.493 24.6596 15.4743C24.6315 15.4556 24.5988 15.4462 24.5614 15.4462H22.8784C22.841 15.4462 22.8036 15.4556 22.7662 15.4743C22.7289 15.493 22.6961 15.521 22.6681 15.5584C22.6494 15.5865 22.64 15.6192 22.64 15.6566L22.3455 17.9146C22.2707 18.4662 22.0603 18.9898 21.7144 19.4853C21.3778 19.9809 20.9384 20.3689 20.3961 20.6494C19.8631 20.9299 19.3209 21.0701 18.7692 21.0701C18.2269 21.0701 17.7221 20.9299 17.2546 20.6494C16.7871 20.3689 16.4505 19.9809 16.2448 19.4853C16.0297 18.9898 15.9596 18.4662 16.0344 17.9146L17.3107 8.06928C17.4883 6.81641 17.9745 5.61029 18.7692 4.45092C19.5827 3.27285 20.6158 2.3706 21.8687 1.74416C23.1215 1.10838 24.3651 0.790486 25.5992 0.790486C26.8427 0.790486 28.0115 1.10838 29.1054 1.74416C30.1993 2.3706 30.9987 3.27285 31.5036 4.45092C31.9991 5.61029 32.1768 6.81641 32.0365 8.06928L30.7603 17.9146C30.6855 18.4662 30.4751 18.9898 30.1292 19.4853C29.7926 19.9809 29.3532 20.3689 28.8109 20.6494C28.2779 20.9299 27.7356 21.0701 27.184 21.0701C26.6417 21.0701 26.1368 20.9299 25.6694 20.6494C25.2019 20.3689 24.8606 19.9809 24.6456 19.4853C24.4399 18.9898 24.3744 18.4662 24.4492 17.9146ZM41.2788 8.15343C41.3068 7.96643 41.2835 7.78878 41.2087 7.62049C41.1339 7.45219 41.017 7.32597 40.858 7.24182C40.7084 7.14833 40.5448 7.10158 40.3672 7.10158C40.1895 7.10158 40.0072 7.14833 39.8202 7.24182C39.6426 7.32597 39.4977 7.45219 39.3855 7.62049C39.2733 7.78878 39.2031 7.96643 39.1751 8.15343L37.9129 17.9146C37.8381 18.4662 37.6277 18.9898 37.2818 19.4853C36.9452 19.9809 36.5057 20.3689 35.9634 20.6494C35.4305 20.9299 34.8882 21.0701 34.3366 21.0701C33.7943 21.0701 33.2894 20.9299 32.8219 20.6494C32.3544 20.3689 32.0178 19.9809 31.8121 19.4853C31.5971 18.9898 31.527 18.4662 31.6018 17.9146L33.411 3.94603C33.4858 3.3944 33.6961 2.86613 34.0421 2.36125C34.3974 1.85636 34.8415 1.46834 35.3744 1.1972C35.9073 0.926058 36.4403 0.790486 36.9732 0.790486H41.1946C42.4288 0.790486 43.5975 1.1037 44.7008 1.73014C44.8784 1.84233 45.0561 1.96388 45.2337 2.09478C45.4394 1.96388 45.6545 1.84233 45.8789 1.73014C47.1224 1.1037 48.3659 0.790486 49.6094 0.790486C50.8436 0.790486 52.0076 1.10838 53.1016 1.74416C54.1955 2.3706 54.9949 3.27285 55.4998 4.45092C55.986 5.61029 56.1589 6.81641 56.0187 8.06928L54.7424 17.9146C54.6676 18.4662 54.4573 18.9898 54.1113 19.4853C53.7747 19.9809 53.3353 20.3689 52.793 20.6494C52.2601 20.9299 51.7178 21.0701 51.1662 21.0701C50.6239 21.0701 50.119 20.9299 49.6515 20.6494C49.184 20.3689 48.8427 19.9809 48.6277 19.4853C48.422 18.9898 48.3566 18.4662 48.4313 17.9146L49.6936 8.15343C49.7216 7.96643 49.6982 7.78878 49.6234 7.62049C49.5486 7.45219 49.4318 7.32597 49.2728 7.24182C49.1232 7.14833 48.9596 7.10158 48.782 7.10158C48.6043 7.10158 48.422 7.14833 48.235 7.24182C48.0574 7.32597 47.9124 7.45219 47.8002 7.62049C47.688 7.78878 47.6179 7.96643 47.5899 8.15343L46.3277 17.9146C46.2529 18.4662 46.0425 18.9898 45.6965 19.4853C45.36 19.9809 44.9205 20.3689 44.3782 20.6494C43.8453 20.9299 43.303 21.0701 42.7514 21.0701C42.2091 21.0701 41.7042 20.9299 41.2367 20.6494C40.7692 20.3689 40.428 19.9809 40.2129 19.4853C40.0072 18.9898 39.9418 18.4662 40.0166 17.9146L41.2788 8.15343ZM56.8602 8.16745C57.0191 6.87718 57.5053 5.64301 58.3187 4.46494C59.1322 3.27752 60.1653 2.3706 61.4182 1.74416C62.6804 1.10838 63.9286 0.790486 65.1628 0.790486C66.4063 0.790486 67.5703 1.10838 68.6549 1.74416C69.7488 2.3706 70.5529 3.27285 71.0671 4.45092C71.17 4.68466 71.2588 4.91841 71.3336 5.15215C71.4177 5.3672 71.4692 5.58692 71.4879 5.81131C71.4972 5.82066 71.5019 5.83001 71.5019 5.83936C71.5393 6.0918 71.5393 6.3536 71.5019 6.62474C71.4271 7.17637 71.2167 7.69996 70.8708 8.1955C70.5342 8.69104 70.0994 9.07905 69.5665 9.35954C69.0336 9.64004 68.4913 9.78028 67.9396 9.78028C67.3973 9.78028 66.8878 9.64004 66.4109 9.35954C65.9435 9.07905 65.6069 8.69104 65.4012 8.1955C65.3357 8.05525 65.2796 7.89163 65.2329 7.70464C65.2235 7.67659 65.2142 7.64854 65.2048 7.62049C65.13 7.45219 65.0132 7.32597 64.8542 7.24182C64.6953 7.14833 64.527 7.10158 64.3493 7.10158C64.1717 7.10158 63.994 7.14833 63.8164 7.24182C63.6387 7.32597 63.4891 7.45219 63.3676 7.62049C63.2554 7.78878 63.19 7.9711 63.1713 8.16745L62.442 13.7072C62.4233 13.8942 62.4466 14.0718 62.5121 14.2401C62.5869 14.4084 62.7038 14.5346 62.8627 14.6188C62.9188 14.6562 62.9796 14.6889 63.045 14.717C63.0544 14.5954 63.0637 14.4739 63.0731 14.3523C63.1479 13.8007 63.3536 13.2771 63.6902 12.7816C64.0361 12.2767 64.4755 11.8887 65.0085 11.6175C65.5508 11.337 66.0931 11.1968 66.6353 11.1968H68.0238C68.5754 11.1968 69.085 11.337 69.5525 11.6175C70.02 11.8887 70.3565 12.2767 70.5622 12.7816C70.7773 13.2771 70.8474 13.8007 70.7726 14.3523L70.3098 17.9146C70.2443 18.4662 70.034 18.9945 69.6787 19.4994C69.3234 20.0043 68.8793 20.3923 68.3463 20.6634C67.8134 20.9346 67.2805 21.0701 66.7475 21.0701C66.2146 21.0701 65.7191 20.9346 65.2609 20.6634C65.2235 20.6447 65.1861 20.626 65.1487 20.6073C64.2698 20.9159 63.3956 21.0701 62.5261 21.0701C61.2919 21.0701 60.1279 20.7569 59.034 20.1305C57.9494 19.4947 57.1547 18.5831 56.6498 17.3957C56.1543 16.2456 55.9766 15.0442 56.1169 13.7913L56.8602 8.16745ZM77.3081 13.7072C77.28 13.8942 77.3034 14.0718 77.3782 14.2401C77.453 14.3991 77.5652 14.5253 77.7148 14.6188C77.8738 14.7123 78.0421 14.759 78.2197 14.759C78.4067 14.759 78.589 14.7123 78.7667 14.6188C78.9443 14.5253 79.0892 14.3991 79.2014 14.2401C79.3136 14.0718 79.3837 13.8942 79.4118 13.7072L80.127 8.15343C80.1551 7.96643 80.1317 7.78878 80.0569 7.62049C79.9915 7.45219 79.8793 7.32597 79.7203 7.24182C79.5614 7.14833 79.3931 7.10158 79.2154 7.10158C79.0378 7.10158 78.8602 7.14833 78.6825 7.24182C78.5049 7.32597 78.3553 7.45219 78.2337 7.62049C78.1215 7.78878 78.0514 7.96643 78.0234 8.15343L77.3081 13.7072ZM71.7123 8.16745C71.8806 6.87718 72.3714 5.64301 73.1848 4.46494C73.9983 3.27752 75.0314 2.3706 76.2843 1.74416C77.5465 1.10838 78.7947 0.790486 80.0289 0.790486C81.2724 0.790486 82.4364 1.10838 83.521 1.74416C84.6149 2.3706 85.4143 3.27752 85.9192 4.46494C86.4335 5.64301 86.6064 6.87718 86.4381 8.16745L85.7229 13.7212C85.5546 14.9928 85.0731 16.2129 84.2783 17.3816C83.4836 18.541 82.4598 19.4479 81.2069 20.1024C79.9541 20.7476 78.6825 21.0701 77.3922 21.0701C76.13 21.0701 74.952 20.7476 73.858 20.1024C72.7735 19.4479 71.9834 18.541 71.4879 17.3816C70.9923 16.2129 70.8287 14.9928 70.997 13.7212L71.7123 8.16745ZM92.8755 13.7072C92.8474 13.8942 92.8708 14.0718 92.9456 14.2401C93.0204 14.3991 93.1326 14.5253 93.2822 14.6188C93.4411 14.7123 93.6094 14.759 93.7871 14.759C93.9741 14.759 94.1564 14.7123 94.334 14.6188C94.5117 14.5253 94.6566 14.3991 94.7688 14.2401C94.881 14.0718 94.9511 13.8942 94.9792 13.7072L95.6944 8.15343C95.7225 7.96643 95.6991 7.78878 95.6243 7.62049C95.5588 7.45219 95.4466 7.32597 95.2877 7.24182C95.1287 7.14833 94.9605 7.10158 94.7828 7.10158C94.6052 7.10158 94.4275 7.14833 94.2499 7.24182C94.0722 7.32597 93.9226 7.45219 93.8011 7.62049C93.6889 7.78878 93.6188 7.96643 93.5907 8.15343L92.8755 13.7072ZM87.2796 8.16745C87.4479 6.87718 87.9388 5.64301 88.7522 4.46494C89.5656 3.27752 90.5988 2.3706 91.8517 1.74416C93.1139 1.10838 94.3621 0.790486 95.5962 0.790486C96.8398 0.790486 98.0038 1.10838 99.0884 1.74416C100.182 2.3706 100.982 3.27752 101.487 4.46494C102.001 5.64301 102.174 6.87718 102.005 8.16745L101.29 13.7212C101.122 14.9928 100.64 16.2129 99.8457 17.3816C99.051 18.541 98.0272 19.4479 96.7743 20.1024C95.5214 20.7476 94.2499 21.0701 92.9596 21.0701C91.6974 21.0701 90.5193 20.7476 89.4254 20.1024C88.3408 19.4479 87.5508 18.541 87.0552 17.3816C86.5597 16.2129 86.3961 14.9928 86.5644 13.7212L87.2796 8.16745Z" fill="#5A42EE"/>
</svg>
