<svg width="319" height="57" viewBox="0 0 319 57" fill="none" xmlns="http://www.w3.org/2000/svg">
<path d="M3.03491 20.869C3.47005 17.3367 4.80106 13.958 7.02794 10.7329C9.25482 7.48213 12.0832 4.99929 15.5131 3.28433C18.9686 1.54378 22.3857 0.673505 25.7645 0.673505C29.1688 0.673505 32.3555 1.54378 35.3247 3.28433C38.3195 4.99929 40.5208 7.46933 41.9286 10.6945C42.2101 11.3344 42.4533 11.9743 42.658 12.6142C42.8884 13.2029 43.0292 13.8044 43.0804 14.4187C43.106 14.4443 43.1188 14.4699 43.1188 14.4955C43.2212 15.1866 43.2212 15.9033 43.1188 16.6456C42.914 18.1558 42.3381 19.5892 41.391 20.9458C40.4696 22.3024 39.2793 23.3647 37.8203 24.1326C36.3613 24.9004 34.8768 25.2844 33.3666 25.2844C31.882 25.2844 30.487 24.9004 29.1816 24.1326C27.9018 23.3647 26.9803 22.3024 26.4172 20.9458C26.238 20.5619 26.0844 20.1139 25.9564 19.602C25.9308 19.5252 25.9052 19.4484 25.8796 19.3716C25.6749 18.9109 25.3549 18.5653 24.9198 18.335C24.4846 18.079 24.0239 17.951 23.5376 17.951C23.0512 17.951 22.5649 18.079 22.0786 18.335C21.5923 18.5653 21.1827 18.9109 20.85 19.3716C20.5428 19.8324 20.3636 20.3315 20.3124 20.869L18.3159 36.0349C18.2647 36.5468 18.3287 37.0331 18.5079 37.4938C18.7127 37.9546 19.0326 38.3001 19.4678 38.5305C19.6213 38.6329 19.7877 38.7225 19.9669 38.7993C19.9925 38.4665 20.0181 38.1338 20.0437 37.801C20.2484 36.2908 20.8116 34.8574 21.733 33.5008C22.6801 32.1186 23.8831 31.0564 25.3421 30.3141C26.8267 29.5462 28.3113 29.1622 29.7959 29.1622H33.5969C35.1071 29.1622 36.5021 29.5462 37.7819 30.3141C39.0618 31.0564 39.9832 32.1186 40.5463 33.5008C41.1351 34.8574 41.327 36.2908 41.1223 37.801L39.8552 47.5532C39.6761 49.0634 39.1002 50.5096 38.1275 51.8918C37.1548 53.274 35.939 54.3362 34.48 55.0785C33.021 55.8208 31.562 56.192 30.103 56.192C28.6441 56.192 27.2874 55.8208 26.0332 55.0785C25.9308 55.0273 25.8285 54.9761 25.7261 54.925C23.32 55.7696 20.9268 56.192 18.5463 56.192C15.1676 56.192 11.9808 55.3345 8.98606 53.6195C6.01688 51.879 3.84119 49.3833 2.45899 46.1326C1.10239 42.9843 0.616055 39.6951 1 36.2652L3.03491 20.869ZM68.6511 20.8306C68.7279 20.3187 68.6639 19.8452 68.4592 19.41C68.2544 18.9493 67.9472 18.5909 67.5377 18.335C67.1282 18.079 66.6674 17.951 66.1555 17.951C65.6436 17.951 65.1316 18.079 64.6197 18.335C64.1334 18.5909 63.7366 18.9493 63.4295 19.41C63.1479 19.8708 62.9687 20.3443 62.892 20.8306L62.1241 26.7818C62.0985 26.8842 62.1113 26.9865 62.1625 27.0889C62.2137 27.1657 62.2776 27.2297 62.3544 27.2809C62.4312 27.3321 62.5208 27.3577 62.6232 27.3577H67.2305C67.3329 27.3577 67.4353 27.3321 67.5377 27.2809C67.6401 27.2297 67.7169 27.1657 67.7681 27.0889C67.8193 26.9865 67.8576 26.8842 67.8832 26.7818L68.6511 20.8306ZM65.1956 47.5532L66.0019 41.3717C66.0019 41.2693 65.9763 41.1797 65.9251 41.1029C65.8995 41.0005 65.8483 40.9238 65.7715 40.8726C65.6948 40.8214 65.6052 40.7958 65.5028 40.7958H60.8954C60.7931 40.7958 60.6907 40.8214 60.5883 40.8726C60.4859 40.9238 60.3963 41.0005 60.3195 41.1029C60.2683 41.1797 60.2427 41.2693 60.2427 41.3717L59.4365 47.5532C59.2317 49.0634 58.6558 50.4968 57.7087 51.8534C56.7872 53.21 55.5842 54.2722 54.0996 55.0401C52.6406 55.808 51.156 56.192 49.6459 56.192C48.1613 56.192 46.7791 55.808 45.4992 55.0401C44.2194 54.2722 43.298 53.21 42.7348 51.8534C42.1461 50.4968 41.9541 49.0634 42.1589 47.5532L45.6528 20.6003C46.1392 17.1703 47.4702 13.8684 49.6459 10.6945C51.8727 7.46933 54.7011 4.99929 58.131 3.28433C61.5609 1.54378 64.9653 0.673505 68.344 0.673505C71.7483 0.673505 74.9478 1.54378 77.9426 3.28433C80.9374 4.99929 83.1259 7.46933 84.5081 10.6945C85.8647 13.8684 86.351 17.1703 85.9671 20.6003L82.4732 47.5532C82.2684 49.0634 81.6925 50.4968 80.7454 51.8534C79.8239 53.21 78.6209 54.2722 77.1363 55.0401C75.6773 55.808 74.1927 56.192 72.6826 56.192C71.198 56.192 69.8158 55.808 68.536 55.0401C67.2561 54.2722 66.3219 53.21 65.7332 51.8534C65.17 50.4968 64.9909 49.0634 65.1956 47.5532ZM111.269 20.8306C111.346 20.3187 111.282 19.8324 111.077 19.3716C110.872 18.9109 110.552 18.5653 110.117 18.335C109.708 18.079 109.26 17.951 108.773 17.951C108.287 17.951 107.788 18.079 107.276 18.335C106.79 18.5653 106.393 18.9109 106.086 19.3716C105.779 19.8324 105.587 20.3187 105.51 20.8306L102.054 47.5532C101.85 49.0634 101.274 50.4968 100.327 51.8534C99.4051 53.21 98.2021 54.2722 96.7175 55.0401C95.2585 55.808 93.7739 56.192 92.2638 56.192C90.7792 56.192 89.397 55.808 88.1172 55.0401C86.8373 54.2722 85.9159 53.21 85.3528 51.8534C84.764 50.4968 84.5721 49.0634 84.7768 47.5532L89.7297 9.31227C89.9345 7.80209 90.5104 6.35589 91.4575 4.97369C92.4301 3.59149 93.646 2.52924 95.105 1.78695C96.5639 1.04465 98.0229 0.673505 99.4819 0.673505H111.039C114.417 0.673505 117.617 1.53098 120.637 3.24594C121.124 3.55309 121.61 3.88585 122.096 4.24419C122.659 3.88585 123.248 3.55309 123.862 3.24594C127.267 1.53098 130.671 0.673505 134.075 0.673505C137.454 0.673505 140.641 1.54378 143.636 3.28433C146.63 4.99929 148.819 7.46933 150.201 10.6945C151.532 13.8684 152.006 17.1703 151.622 20.6003L148.128 47.5532C147.923 49.0634 147.347 50.4968 146.4 51.8534C145.479 53.21 144.276 54.2722 142.791 55.0401C141.332 55.808 139.847 56.192 138.337 56.192C136.853 56.192 135.47 55.808 134.191 55.0401C132.911 54.2722 131.976 53.21 131.388 51.8534C130.825 50.4968 130.645 49.0634 130.85 47.5532L134.306 20.8306C134.383 20.3187 134.319 19.8324 134.114 19.3716C133.909 18.9109 133.589 18.5653 133.154 18.335C132.744 18.079 132.296 17.951 131.81 17.951C131.324 17.951 130.825 18.079 130.313 18.335C129.826 18.5653 129.43 18.9109 129.122 19.3716C128.815 19.8324 128.623 20.3187 128.547 20.8306L125.091 47.5532C124.886 49.0634 124.31 50.4968 123.363 51.8534C122.442 53.21 121.239 54.2722 119.754 55.0401C118.295 55.808 116.811 56.192 115.3 56.192C113.816 56.192 112.434 55.808 111.154 55.0401C109.874 54.2722 108.94 53.21 108.351 51.8534C107.788 50.4968 107.609 49.0634 107.814 47.5532L111.269 20.8306ZM183.22 38.9144C184.679 38.9144 186.036 39.2856 187.29 40.0279C188.57 40.7702 189.504 41.8324 190.093 43.2146C190.707 44.5968 190.925 46.043 190.746 47.5532C190.541 49.0634 189.965 50.4968 189.018 51.8534C188.096 53.21 186.893 54.2722 185.409 55.0401C183.95 55.808 182.465 56.192 180.955 56.192H157.765C156.383 56.1664 155.077 55.7952 153.849 55.0785C152.569 54.3362 151.634 53.274 151.046 51.8918C150.431 50.5096 150.227 49.0634 150.431 47.5532L155.384 9.31227C155.589 7.80209 156.165 6.35589 157.112 4.97369C158.085 3.59149 159.313 2.52924 160.798 1.78695C162.18 1.07025 163.575 0.699101 164.983 0.673505H187.405C188.916 0.673505 190.311 1.05745 191.59 1.82534C192.87 2.56763 193.792 3.62988 194.355 5.01208C194.943 6.36869 195.135 7.80209 194.931 9.31227C194.726 10.8225 194.137 12.2686 193.165 13.6509C192.217 15.0331 191.014 16.0953 189.555 16.8376C188.096 17.5799 186.637 17.951 185.178 17.951H172.124C172.022 17.951 171.92 17.9766 171.817 18.0278C171.715 18.079 171.625 18.1558 171.548 18.2582C171.497 18.335 171.472 18.4246 171.472 18.527L171.395 19.2181C171.369 19.3204 171.369 19.4228 171.395 19.5252C171.446 19.602 171.51 19.666 171.587 19.7172C171.689 19.7684 171.792 19.794 171.894 19.794H179.957C181.467 19.794 182.849 20.1779 184.103 20.9458C185.383 21.6881 186.305 22.7504 186.868 24.1326C187.457 25.4892 187.649 26.9226 187.444 28.4327C187.265 29.9429 186.689 31.3891 185.716 32.7713C184.769 34.1535 183.553 35.2158 182.069 35.9581C180.61 36.7004 179.151 37.0715 177.692 37.0715H169.629C169.526 37.0715 169.424 37.0971 169.322 37.1483C169.245 37.1995 169.168 37.2763 169.091 37.3787C169.04 37.4554 169.002 37.545 168.976 37.6474L168.899 38.3385C168.874 38.4409 168.874 38.5433 168.899 38.6457C168.95 38.7225 169.014 38.7865 169.091 38.8377C169.194 38.8888 169.296 38.9144 169.398 38.9144H183.22ZM194.547 20.869C194.982 17.3367 196.313 13.958 198.54 10.7329C200.767 7.48213 203.595 4.99929 207.025 3.28433C210.48 1.54378 213.898 0.673505 217.276 0.673505C220.681 0.673505 223.867 1.54378 226.837 3.28433C229.831 4.99929 232.033 7.46933 233.44 10.6945C233.722 11.3344 233.965 11.9743 234.17 12.6142C234.4 13.2029 234.541 13.8044 234.592 14.4187C234.618 14.4443 234.631 14.4699 234.631 14.4955C234.733 15.1866 234.733 15.9033 234.631 16.6456C234.426 18.1558 233.85 19.5892 232.903 20.9458C231.981 22.3024 230.791 23.3647 229.332 24.1326C227.873 24.9004 226.389 25.2844 224.878 25.2844C223.394 25.2844 221.999 24.9004 220.693 24.1326C219.414 23.3647 218.492 22.3024 217.929 20.9458C217.75 20.5619 217.596 20.1139 217.468 19.602C217.443 19.5252 217.417 19.4484 217.391 19.3716C217.187 18.9109 216.867 18.5653 216.432 18.335C215.996 18.079 215.536 17.951 215.049 17.951C214.563 17.951 214.077 18.079 213.59 18.335C213.104 18.5653 212.695 18.9109 212.362 19.3716C212.055 19.8324 211.875 20.3315 211.824 20.869L209.828 36.0349C209.777 36.5468 209.841 37.0331 210.02 37.4938C210.225 37.9546 210.544 38.3001 210.98 38.5305C211.133 38.6329 211.3 38.7225 211.479 38.7993C211.504 38.4665 211.53 38.1338 211.556 37.801C211.76 36.2908 212.323 34.8574 213.245 33.5008C214.192 32.1186 215.395 31.0564 216.854 30.3141C218.339 29.5462 219.823 29.1622 221.308 29.1622H225.109C226.619 29.1622 228.014 29.5462 229.294 30.3141C230.574 31.0564 231.495 32.1186 232.058 33.5008C232.647 34.8574 232.839 36.2908 232.634 37.801L231.367 47.5532C231.188 49.0634 230.612 50.5096 229.639 51.8918C228.667 53.274 227.451 54.3362 225.992 55.0785C224.533 55.8208 223.074 56.192 221.615 56.192C220.156 56.192 218.799 55.8208 217.545 55.0785C217.443 55.0273 217.34 54.9761 217.238 54.925C214.832 55.7696 212.439 56.192 210.058 56.192C206.679 56.192 203.493 55.3345 200.498 53.6195C197.529 51.879 195.353 49.3833 193.971 46.1326C192.614 42.9843 192.128 39.6951 192.512 36.2652L194.547 20.869ZM250.526 36.0349C250.449 36.5468 250.513 37.0331 250.718 37.4938C250.923 37.929 251.23 38.2745 251.639 38.5305C252.075 38.7865 252.535 38.9144 253.022 38.9144C253.534 38.9144 254.033 38.7865 254.519 38.5305C255.005 38.2745 255.402 37.929 255.709 37.4938C256.016 37.0331 256.208 36.5468 256.285 36.0349L258.243 20.8306C258.32 20.3187 258.256 19.8324 258.051 19.3716C257.872 18.9109 257.565 18.5653 257.13 18.335C256.695 18.079 256.234 17.951 255.748 17.951C255.261 17.951 254.775 18.079 254.289 18.335C253.802 18.5653 253.393 18.9109 253.06 19.3716C252.753 19.8324 252.561 20.3187 252.484 20.8306L250.526 36.0349ZM235.207 20.869C235.667 17.3367 237.011 13.958 239.238 10.7329C241.465 7.48213 244.293 4.99929 247.723 3.28433C251.179 1.54378 254.596 0.673505 257.974 0.673505C261.379 0.673505 264.566 1.54378 267.535 3.28433C270.529 4.99929 272.718 7.48213 274.1 10.7329C275.508 13.958 275.982 17.3367 275.521 20.869L273.563 36.0732C273.102 39.5543 271.784 42.8947 269.608 46.0942C267.432 49.2682 264.63 51.751 261.2 53.5428C257.77 55.3089 254.289 56.192 250.756 56.192C247.301 56.192 244.076 55.3089 241.081 53.5428C238.112 51.751 235.949 49.2682 234.592 46.0942C233.236 42.8947 232.788 39.5543 233.248 36.0732L235.207 20.869ZM293.144 36.0349C293.067 36.5468 293.131 37.0331 293.336 37.4938C293.541 37.929 293.848 38.2745 294.257 38.5305C294.692 38.7865 295.153 38.9144 295.64 38.9144C296.151 38.9144 296.651 38.7865 297.137 38.5305C297.623 38.2745 298.02 37.929 298.327 37.4938C298.634 37.0331 298.826 36.5468 298.903 36.0349L300.861 20.8306C300.938 20.3187 300.874 19.8324 300.669 19.3716C300.49 18.9109 300.183 18.5653 299.748 18.335C299.313 18.079 298.852 17.951 298.366 17.951C297.879 17.951 297.393 18.079 296.907 18.335C296.42 18.5653 296.011 18.9109 295.678 19.3716C295.371 19.8324 295.179 20.3187 295.102 20.8306L293.144 36.0349ZM277.824 20.869C278.285 17.3367 279.629 13.958 281.856 10.7329C284.083 7.48213 286.911 4.99929 290.341 3.28433C293.797 1.54378 297.214 0.673505 300.592 0.673505C303.997 0.673505 307.183 1.54378 310.153 3.28433C313.147 4.99929 315.336 7.48213 316.718 10.7329C318.126 13.958 318.599 17.3367 318.139 20.869L316.181 36.0732C315.72 39.5543 314.402 42.8947 312.226 46.0942C310.05 49.2682 307.247 51.751 303.818 53.5428C300.388 55.3089 296.907 56.192 293.374 56.192C289.919 56.192 286.694 55.3089 283.699 53.5428C280.73 51.751 278.567 49.2682 277.21 46.0942C275.854 42.8947 275.406 39.5543 275.866 36.0732L277.824 20.869Z" fill="#5A42EE"/>
</svg>
