<svg width="32" height="33" viewBox="0 0 32 33" fill="none" xmlns="http://www.w3.org/2000/svg">
<path fill-rule="evenodd" clip-rule="evenodd" d="M20.5546 20.5897C19.1424 21.9764 17.2278 22.7564 15.2308 22.7586C14.201 22.7575 13.1932 22.5495 12.2649 22.1583L10.5503 23.8729C11.9755 24.6285 13.5818 25.0345 15.2308 25.0345C17.8432 25.0345 20.3487 24.0154 22.196 22.2015C24.0433 20.3876 25.0811 17.9274 25.0811 15.3621C25.0811 14.9094 25.2642 14.4752 25.5902 14.1551C25.9162 13.835 26.3584 13.6552 26.8194 13.6552C27.2804 13.6552 27.7226 13.835 28.0486 14.1551C28.3745 14.4752 28.5577 14.9094 28.5577 15.3621C28.5536 18.5361 27.3766 21.6008 25.2453 23.9871C23.114 26.3734 20.1733 27.9191 16.9691 28.3373V31.2931C16.9691 31.7458 16.7859 32.18 16.4599 32.5001C16.1339 32.8202 15.6918 33 15.2308 33C14.7697 33 14.3276 32.8202 14.0016 32.5001C13.6756 32.18 13.4925 31.7458 13.4925 31.2931V28.3373C11.5374 28.0822 9.68041 27.4072 8.04553 26.3777L3.25007 31.1731C2.50657 31.9166 1.30112 31.9166 0.557624 31.1731C-0.185874 30.4296 -0.185874 29.2242 0.557624 28.4807L5.13875 23.8996C3.05641 21.5261 1.90789 18.4974 1.90385 15.3621C1.90385 14.9094 2.08699 14.4752 2.41298 14.1551C2.73897 13.835 3.18112 13.6552 3.64214 13.6552C4.10316 13.6552 4.54531 13.835 4.8713 14.1551C5.19729 14.4752 5.38043 14.9094 5.38043 15.3621C5.38043 17.5913 6.16414 19.7412 7.58174 21.4566L9.22172 19.8166C8.24048 18.541 7.70006 16.979 7.69816 15.3621V7.39655C7.69816 5.43486 8.49177 3.55352 9.90441 2.1664C11.317 0.779277 13.233 0 15.2308 0C17.2285 0 19.1445 0.779277 20.5571 2.1664C21.7163 3.3046 22.4586 4.77555 22.6877 6.35061L27.8461 1.19224C28.5896 0.448741 29.795 0.448741 30.5385 1.19224C31.282 1.93574 31.282 3.14119 30.5385 3.88468L22.7634 11.6598V15.3621C22.7611 17.3231 21.9667 19.2031 20.5546 20.5897ZM19.2868 15.1364V15.3621C19.2868 16.4184 18.8595 17.4314 18.0988 18.1783C17.3382 18.9252 16.3065 19.3448 15.2308 19.3448C15.1808 19.3448 15.1309 19.3439 15.0811 19.3421L19.2868 15.1364ZM19.2868 9.75153L11.7059 17.3324C11.3608 16.7372 11.1747 16.059 11.1747 15.3621V7.39655C11.1747 6.34026 11.6021 5.32723 12.3627 4.58032C13.1234 3.8334 14.155 3.41379 15.2308 3.41379C16.3065 3.41379 17.3382 3.8334 18.0988 4.58032C18.8595 5.32723 19.2868 6.34026 19.2868 7.39655V9.75153Z" fill="#606060"/>
</svg>
