<svg width="27" height="33" viewBox="0 0 27 33" fill="none" xmlns="http://www.w3.org/2000/svg">
<path d="M13.5 22.7586C15.523 22.7564 17.4625 21.9764 18.893 20.5897C20.3234 19.2031 21.1281 17.3231 21.1304 15.3621V7.39655C21.1304 5.43486 20.3265 3.55352 18.8955 2.1664C17.4645 0.779277 15.5237 0 13.5 0C11.4763 0 9.53545 0.779277 8.10447 2.1664C6.67348 3.55352 5.86957 5.43486 5.86957 7.39655V15.3621C5.8719 17.3231 6.67656 19.2031 8.10704 20.5897C9.53752 21.9764 11.477 22.7564 13.5 22.7586ZM9.3913 7.39655C9.3913 6.34026 9.82418 5.32723 10.5947 4.58032C11.3652 3.8334 12.4103 3.41379 13.5 3.41379C14.5897 3.41379 15.6348 3.8334 16.4053 4.58032C17.1758 5.32723 17.6087 6.34026 17.6087 7.39655V15.3621C17.6087 16.4184 17.1758 17.4314 16.4053 18.1783C15.6348 18.9252 14.5897 19.3448 13.5 19.3448C12.4103 19.3448 11.3652 18.9252 10.5947 18.1783C9.82418 17.4314 9.3913 16.4184 9.3913 15.3621V7.39655ZM15.2609 28.3373V31.2931C15.2609 31.7458 15.0753 32.18 14.7451 32.5001C14.4149 32.8202 13.967 33 13.5 33C13.033 33 12.5851 32.8202 12.2549 32.5001C11.9246 32.18 11.7391 31.7458 11.7391 31.2931V28.3373C8.49332 27.9191 5.51434 26.3734 3.35537 23.9871C1.1964 21.6008 0.0041489 18.5361 0 15.3621C0 14.9094 0.185519 14.4752 0.515747 14.1551C0.845974 13.835 1.29386 13.6552 1.76087 13.6552C2.22788 13.6552 2.67577 13.835 3.00599 14.1551C3.33622 14.4752 3.52174 14.9094 3.52174 15.3621C3.52174 17.9274 4.57302 20.3876 6.4443 22.2015C8.31559 24.0154 10.8536 25.0345 13.5 25.0345C16.1464 25.0345 18.6844 24.0154 20.5557 22.2015C22.427 20.3876 23.4783 17.9274 23.4783 15.3621C23.4783 14.9094 23.6638 14.4752 23.994 14.1551C24.3242 13.835 24.7721 13.6552 25.2391 13.6552C25.7061 13.6552 26.154 13.835 26.4843 14.1551C26.8145 14.4752 27 14.9094 27 15.3621C26.9959 18.5361 25.8036 21.6008 23.6446 23.9871C21.4857 26.3734 18.5067 27.9191 15.2609 28.3373Z" fill="#5A42EE"/>
</svg>
