<svg width="24" height="30" viewBox="0 0 24 30" fill="none" xmlns="http://www.w3.org/2000/svg">
<path d="M21.5772 22.6899C20.6284 21.6763 18.8532 20.1514 18.8532 15.1562C18.8532 11.3623 16.1778 8.3252 12.5704 7.58008V6.5625C12.5704 5.69971 11.8672 5 11 5C10.1328 5 9.42956 5.69971 9.42956 6.5625V7.58008C5.82216 8.3252 3.14681 11.3623 3.14681 15.1562C3.14681 20.1514 1.37159 21.6763 0.422845 22.6899C0.128203 23.0049 -0.0024214 23.3813 3.3952e-05 23.75C0.00543572 24.5508 0.637443 25.3125 1.57637 25.3125H20.4236C21.3626 25.3125 21.9951 24.5508 22 23.75C22.0024 23.3813 21.8718 23.0044 21.5772 22.6899ZM3.31623 22.9688C4.35828 21.603 5.49756 19.3394 5.50296 15.1846C5.50296 15.1748 5.50002 15.166 5.50002 15.1562C5.50002 12.1357 7.96224 9.6875 11 9.6875C14.0378 9.6875 16.5 12.1357 16.5 15.1562C16.5 15.166 16.497 15.1748 16.497 15.1846C16.5024 19.3398 17.6417 21.6035 18.6838 22.9688H3.31623ZM11 30C12.7345 30 14.1414 28.6011 14.1414 26.875H7.85863C7.85863 28.6011 9.26554 30 11 30Z" fill="#606060"/>
</svg>
