<svg width="14" height="26" viewBox="0 0 14 26" fill="none" xmlns="http://www.w3.org/2000/svg">
<path d="M2.39265 13L13.7093 1.66144C13.8025 1.57006 13.8762 1.46158 13.9261 1.34227C13.9759 1.22296 14.0011 1.09518 14 0.966343C13.9989 0.837503 13.9716 0.710154 13.9197 0.591666C13.8677 0.473178 13.7922 0.365904 13.6975 0.276051C13.6028 0.186198 13.4908 0.11555 13.3679 0.0681969C13.245 0.0208434 13.1136 -0.00227604 12.9815 0.00017657C12.8494 0.00262918 12.7191 0.0306052 12.5981 0.0824854C12.4771 0.134366 12.3679 0.20912 12.2768 0.302423L0.283103 12.3205C0.10157 12.5024 0 12.7462 0 13C0 13.2538 0.10157 13.4976 0.283103 13.6795L12.2768 25.6976C12.3679 25.7909 12.4771 25.8656 12.5981 25.9175C12.7191 25.9694 12.8494 25.9974 12.9815 25.9998C13.1136 26.0023 13.245 25.9792 13.3679 25.9318C13.4908 25.8845 13.6028 25.8138 13.6975 25.724C13.7922 25.6341 13.8677 25.5268 13.9197 25.4083C13.9716 25.2898 13.9989 25.1625 14 25.0337C14.0011 24.9048 13.9759 24.777 13.9261 24.6577C13.8762 24.5384 13.8025 24.4299 13.7093 24.3386L2.39265 13Z" fill="#393939"/>
</svg>
