<svg width="14" height="26" viewBox="0 0 14 26" fill="none" xmlns="http://www.w3.org/2000/svg">
<path d="M11.6073 13L0.290663 1.66144C0.197491 1.57006 0.123831 1.46158 0.073945 1.34227C0.0240593 1.22296 -0.00106335 1.09518 3.43323e-05 0.966343C0.00113201 0.837503 0.0284281 0.710154 0.0803404 0.591666C0.132253 0.473178 0.20775 0.365904 0.302466 0.276051C0.397182 0.186198 0.509236 0.11555 0.632142 0.0681969C0.755048 0.0208434 0.886368 -0.00227604 1.0185 0.00017657C1.15063 0.00262918 1.28095 0.0306052 1.40192 0.0824854C1.52289 0.134366 1.6321 0.20912 1.72324 0.302423L13.7169 12.3205C13.8984 12.5024 14 12.7462 14 13C14 13.2538 13.8984 13.4976 13.7169 13.6795L1.72324 25.6976C1.6321 25.7909 1.52289 25.8656 1.40192 25.9175C1.28095 25.9694 1.15063 25.9974 1.0185 25.9998C0.886368 26.0023 0.755048 25.9792 0.632142 25.9318C0.509236 25.8845 0.397182 25.8138 0.302466 25.724C0.20775 25.6341 0.132253 25.5268 0.0803404 25.4083C0.0284281 25.2898 0.00113201 25.1625 3.43323e-05 25.0337C-0.00106335 24.9048 0.0240593 24.777 0.073945 24.6577C0.123831 24.5384 0.197491 24.4299 0.290663 24.3386L11.6073 13Z" fill="#C5C5C7"/>
</svg>
