<svg width="36" height="29" viewBox="0 0 36 29" fill="none" xmlns="http://www.w3.org/2000/svg">
<path d="M13.6641 2.87966V0H22.2797V2.87966L17.9719 7.19916L13.6641 2.87966Z" fill="#5A42EE"/>
<path d="M22.2797 25.1971L20.1292 12.6186C19.9495 11.5675 19.0383 10.7988 17.9719 10.7988C16.9055 10.7988 15.9943 11.5675 15.8146 12.6186L13.6641 25.1971L17.9719 28.7967L22.2797 25.1971Z" fill="#5A42EE"/>
<path d="M19.8184 8.99899L24.1262 5.39941H35.8189C32.8649 8.75902 27.6135 9.59892 25.357 9.59892L28.434 13.7984L23.5108 16.7981L19.8184 8.99899Z" fill="#5A42EE"/>
<path d="M16.125 8.99899L11.8172 5.39941H0.124491C3.07843 8.75902 8.32988 9.59892 10.5864 9.59892L7.50934 13.7984L12.4326 16.7981L16.125 8.99899Z" fill="#5A42EE"/>
</svg>
