<svg width="26" height="26" viewBox="0 0 26 26" fill="none" xmlns="http://www.w3.org/2000/svg">
<path d="M13.8676 25.5183C15.8216 15.2597 11.4251 4.14621 5.9294 0.482422C8.37192 4.87897 8.98255 10.8632 8.98255 13.3057C6.54003 8.90913 2.26561 6.99582 0.433716 6.58873C2.87624 8.54275 4.30105 11.8809 4.70813 13.3057C5.68514 21.6103 11.2215 24.9077 13.8676 25.5183Z" fill="#5A42EE"/>
<path d="M15.6995 15.1376L14.4782 10.2525C15.6995 6.58873 18.142 2.31432 21.1952 0.482422C17.7756 5.85598 19.3633 10.2525 15.6995 15.1376Z" fill="#5A42EE"/>
<path d="M16.3101 23.0758V18.1907C17.5058 12.8103 22.7985 8.21023 25.312 6.68263C25.3681 6.64434 25.4207 6.61317 25.4696 6.58873C25.4184 6.61861 25.3658 6.64992 25.312 6.68263C24.4339 7.28236 22.7242 9.62733 21.8058 15.1376C20.8288 20.9996 17.5314 22.8722 16.3101 23.0758Z" fill="#5A42EE"/>
</svg>
