<svg width="55" height="52" viewBox="0 0 55 52" fill="none" xmlns="http://www.w3.org/2000/svg">
<ellipse cx="8.78059" cy="9.09167" rx="8.52595" ry="8.52917" fill="#231D18"/>
<ellipse cx="45.993" cy="9.09167" rx="8.52595" ry="8.52917" fill="#231D18"/>
<path d="M26.8106 8.375C9.13792 8.375 5.9104 23.1795 5.9104 29.2592H48.3011C48.3011 22.8636 45.0342 8.375 26.8106 8.375Z" fill="#48382D"/>
<ellipse cx="45.0368" cy="32.0502" rx="5.65741" ry="5.65954" fill="#F9C8BF"/>
<ellipse cx="8.69989" cy="32.0502" rx="5.65741" ry="5.65954" fill="#F9C8BF"/>
<path fill-rule="evenodd" clip-rule="evenodd" d="M9.18164 26.7822V34.7929C9.18164 44.1707 16.7839 51.773 26.1618 51.773H28.2973C37.6752 51.773 45.2775 44.1707 45.2775 34.7929V26.7822H9.18164Z" fill="#FFE6E1"/>
<path fill-rule="evenodd" clip-rule="evenodd" d="M9.1521 35.3369V28.6444C9.1521 19.2666 16.7544 11.6643 26.1322 11.6643H28.2938C37.6717 11.6643 45.274 19.2666 45.274 28.6444V35.3369H9.1521Z" fill="#FFE6E1"/>
<path d="M31.9667 10.1608C30.5175 16.0451 23.5644 27.7628 7.34497 26.5419C9.32229 19.1483 17.1368 5.12436 31.9667 10.1608Z" fill="#48382D"/>
<rect x="19.9319" y="29.1792" width="7.17136" height="10.0437" rx="3.58568" fill="white"/>
<rect x="27.5044" y="29.1792" width="7.17136" height="10.0437" rx="3.58568" fill="white"/>
<rect x="24.1602" y="34.1992" width="2.23109" height="3.10876" rx="1.11555" fill="black"/>
<rect x="31.8083" y="34.1992" width="2.23109" height="3.10876" rx="1.11555" fill="black"/>
<path d="M38.9173 19.4897C36.236 15.6422 31.9275 14.4523 29.4968 13.4607V10.1289C30.6399 10.2479 34.1795 10.8508 39.1932 12.3104C44.2069 13.7701 47.1421 22.4645 47.983 26.6293H44.6752C43.2052 26.6293 41.9194 25.6475 41.3819 24.2793C40.7931 22.7808 39.9499 20.9714 38.9173 19.4897Z" fill="#48382D"/>
<path d="M19.7761 33.4039C19.7761 31.8886 20.4573 29.1792 23.5186 29.1792C26.649 29.1792 27.3732 32.0352 27.3451 33.4039" stroke="#E19283" stroke-width="1.16883" stroke-linecap="round"/>
<path d="M27.3472 33.4039C27.3472 31.8886 28.0283 29.1792 31.0896 29.1792C34.22 29.1792 34.9442 32.0352 34.9162 33.4039" stroke="#E19283" stroke-width="1.16883" stroke-linecap="round"/>
<ellipse cx="27.3458" cy="38.5046" rx="1.11555" ry="1.11597" fill="#F9C8BF"/>
</svg>
