<svg width="70" height="69" viewBox="0 0 70 69" fill="none" xmlns="http://www.w3.org/2000/svg">
<g id="Group 2893" filter="url(#filter0_d_386_5341)">
<circle id="Ellipse 440" cx="35" cy="34.4346" r="27" fill="black" fill-opacity="0.63"/>
<path id="Vector" d="M23.702 46.006H46.353C49.0876 46.006 50.4815 44.6384 50.4815 41.9303V28.1655C50.4815 25.4574 49.0876 24.1033 46.353 24.1033H43.2769C42.2515 24.1033 41.9362 23.8929 41.3445 23.2355L40.2792 22.0519C39.6353 21.3295 38.965 20.9346 37.5974 20.9346H32.3651C31.011 20.9346 30.3401 21.3295 29.6832 22.0519L28.618 23.2355C28.0397 23.8795 27.711 24.1033 26.6856 24.1033H23.7015C20.9669 24.1033 19.573 25.4574 19.573 28.1655V41.9303C19.573 44.6384 20.9675 46.006 23.702 46.006ZM23.7407 43.889C22.4394 43.889 21.69 43.1924 21.69 41.8248V28.2839C21.69 26.9164 22.4394 26.2197 23.7407 26.2197H27.2112C28.3948 26.2197 29.0258 25.9964 29.6832 25.2605L30.7215 24.1033C31.4709 23.2619 31.8524 23.0515 33.0225 23.0515H36.94C38.1101 23.0515 38.4916 23.2619 39.241 24.1033L40.2792 25.2599C40.9367 25.9964 41.5677 26.2197 42.7513 26.2197H46.3138C47.6151 26.2197 48.3651 26.9164 48.3651 28.2839V41.8248C48.3651 43.1924 47.6157 43.889 46.3138 43.889H23.7407ZM35.0211 41.799C35.9655 41.8017 36.9012 41.6174 37.7741 41.2568C38.6471 40.8962 39.44 40.3664 40.1072 39.6979C40.7744 39.0294 41.3027 38.2355 41.6617 37.3619C42.0207 36.4883 42.2032 35.5523 42.1988 34.6079C42.1988 30.6107 39.0172 27.4167 35.0205 27.4167C31.0502 27.4167 27.8557 30.6107 27.8557 34.6079C27.8557 38.6039 31.0502 41.799 35.0205 41.799M44.4728 31.3993C45.3669 31.3993 46.1028 30.6768 46.1028 29.7827C46.1028 29.3504 45.9311 28.9358 45.6254 28.6301C45.3197 28.3244 44.9051 28.1526 44.4728 28.1526C44.0405 28.1526 43.6258 28.3244 43.3201 28.6301C43.0144 28.9358 42.8427 29.3504 42.8427 29.7827C42.8427 30.6768 43.5786 31.3993 44.4728 31.3993ZM35.0211 39.801C32.1682 39.801 29.8414 37.4871 29.8414 34.6079C29.8414 31.7292 32.1553 29.4153 35.0211 29.4153C35.7032 29.4145 36.3788 29.5482 37.0092 29.8089C37.6396 30.0696 38.2124 30.452 38.6948 30.9343C39.1771 31.4166 39.5596 31.9894 39.8204 32.6197C40.0811 33.2501 40.2149 33.9257 40.2142 34.6079C40.215 35.2901 40.0812 35.9657 39.8205 36.5961C39.5598 37.2266 39.1774 37.7994 38.695 38.2817C38.2126 38.7641 37.6398 39.1466 37.0093 39.4073C36.3789 39.668 35.7033 39.8018 35.0211 39.801Z" fill="white"/>
</g>
<defs>
<filter id="filter0_d_386_5341" x="0.799999" y="0.23457" width="68.4" height="68.4" filterUnits="userSpaceOnUse" color-interpolation-filters="sRGB">
<feFlood flood-opacity="0" result="BackgroundImageFix"/>
<feColorMatrix in="SourceAlpha" type="matrix" values="0 0 0 0 0 0 0 0 0 0 0 0 0 0 0 0 0 0 127 0" result="hardAlpha"/>
<feOffset/>
<feGaussianBlur stdDeviation="3.6"/>
<feComposite in2="hardAlpha" operator="out"/>
<feColorMatrix type="matrix" values="0 0 0 0 0 0 0 0 0 0 0 0 0 0 0 0 0 0 0.25 0"/>
<feBlend mode="normal" in2="BackgroundImageFix" result="effect1_dropShadow_386_5341"/>
<feBlend mode="normal" in="SourceGraphic" in2="effect1_dropShadow_386_5341" result="shape"/>
</filter>
</defs>
</svg>
