<svg width="68" height="65" viewBox="0 0 68 65" fill="none" xmlns="http://www.w3.org/2000/svg">
<g filter="url(#filter0_d_394_7960)">
<ellipse cx="15.7806" cy="9.09167" rx="8.52595" ry="8.52917" fill="#231D18"/>
<ellipse cx="52.993" cy="9.09167" rx="8.52595" ry="8.52917" fill="#231D18"/>
<path d="M33.8106 8.375C16.1379 8.375 12.9104 23.1795 12.9104 29.2592H55.3011C55.3011 22.8636 52.0342 8.375 33.8106 8.375Z" fill="#48382D"/>
<ellipse cx="52.0368" cy="32.0502" rx="5.65741" ry="5.65954" fill="#F9C8BF"/>
<ellipse cx="15.6999" cy="32.0502" rx="5.65741" ry="5.65954" fill="#F9C8BF"/>
<path fill-rule="evenodd" clip-rule="evenodd" d="M16.1816 26.7822V34.7929C16.1816 44.1707 23.7839 51.773 33.1618 51.773H35.2973C44.6752 51.773 52.2775 44.1707 52.2775 34.7929V26.7822H16.1816Z" fill="#FFE6E1"/>
<path fill-rule="evenodd" clip-rule="evenodd" d="M16.1521 35.3369V28.6444C16.1521 19.2666 23.7544 11.6643 33.1322 11.6643H35.2938C44.6717 11.6643 52.274 19.2666 52.274 28.6444V35.3369H16.1521Z" fill="#FFE6E1"/>
<path d="M38.9667 10.1608C37.5175 16.0451 30.5644 27.7628 14.345 26.5419C16.3223 19.1483 24.1368 5.12436 38.9667 10.1608Z" fill="#48382D"/>
<rect x="26.9319" y="29.1792" width="7.17136" height="10.0437" rx="3.58568" fill="white"/>
<rect x="34.5044" y="29.1792" width="7.17136" height="10.0437" rx="3.58568" fill="white"/>
<rect x="31.1602" y="34.1992" width="2.23109" height="3.10876" rx="1.11555" fill="black"/>
<rect x="38.8083" y="34.1992" width="2.23109" height="3.10876" rx="1.11555" fill="black"/>
<path d="M45.9173 19.4897C43.236 15.6422 38.9275 14.4523 36.4968 13.4607V10.1289C37.6399 10.2479 41.1795 10.8508 46.1932 12.3104C51.2069 13.7701 54.1421 22.4645 54.983 26.6293H51.6752C50.2052 26.6293 48.9194 25.6475 48.3819 24.2793C47.7931 22.7808 46.9499 20.9714 45.9173 19.4897Z" fill="#48382D"/>
<path d="M26.7761 33.4039C26.7761 31.8886 27.4573 29.1792 30.5186 29.1792C33.649 29.1792 34.3732 32.0352 34.3451 33.4039" stroke="#E19283" stroke-width="1.16883" stroke-linecap="round"/>
<path d="M34.3472 33.4039C34.3472 31.8886 35.0283 29.1792 38.0896 29.1792C41.22 29.1792 41.9442 32.0352 41.9162 33.4039" stroke="#E19283" stroke-width="1.16883" stroke-linecap="round"/>
<ellipse cx="34.3458" cy="38.5046" rx="1.11555" ry="1.11597" fill="#F9C8BF"/>
<path d="M32.3992 42.2417L32.7521 42.4341C33.7507 42.9786 34.966 42.9392 35.9273 42.3312L36.0689 42.2417" stroke="#FF5252" stroke-width="3.554" stroke-linecap="round"/>
<path d="M32.647 42.2417L32.9728 42.4193C33.8946 42.9219 35.0163 42.8856 35.9037 42.3244L36.0344 42.2417" stroke="#C23A3A" stroke-width="0.413256" stroke-linecap="round"/>
</g>
<defs>
<filter id="filter0_d_394_7960" x="0.887513" y="0.5625" width="66.9987" height="63.9447" filterUnits="userSpaceOnUse" color-interpolation-filters="sRGB">
<feFlood flood-opacity="0" result="BackgroundImageFix"/>
<feColorMatrix in="SourceAlpha" type="matrix" values="0 0 0 0 0 0 0 0 0 0 0 0 0 0 0 0 0 0 127 0" result="hardAlpha"/>
<feOffset dy="6.36713"/>
<feGaussianBlur stdDeviation="3.18356"/>
<feComposite in2="hardAlpha" operator="out"/>
<feColorMatrix type="matrix" values="0 0 0 0 0 0 0 0 0 0 0 0 0 0 0 0 0 0 0.25 0"/>
<feBlend mode="normal" in2="BackgroundImageFix" result="effect1_dropShadow_394_7960"/>
<feBlend mode="normal" in="SourceGraphic" in2="effect1_dropShadow_394_7960" result="shape"/>
</filter>
</defs>
</svg>
