<svg width="30" height="27" viewBox="0 0 30 27" fill="none" xmlns="http://www.w3.org/2000/svg">
<path d="M15.1102 1.54974e-05C8.42114 1.54974e-05 2.92365 5.07185 2.38786 11.538H1.04697C0.839505 11.5379 0.636692 11.599 0.464296 11.7135C0.291899 11.8281 0.1577 11.9909 0.078745 12.1812C-0.000209845 12.3716 -0.0203566 12.581 0.0208639 12.7828C0.0620844 12.9846 0.162812 13.1696 0.310251 13.3145L2.65436 15.6212C2.85034 15.814 3.11512 15.9222 3.39108 15.9222C3.66703 15.9222 3.93182 15.814 4.1278 15.6212L6.47191 13.3145C6.61934 13.1696 6.72007 12.9846 6.76129 12.7828C6.80251 12.581 6.78237 12.3716 6.70341 12.1812C6.62446 11.9909 6.49026 11.8281 6.31786 11.7135C6.14546 11.599 5.94265 11.5379 5.73519 11.538H4.48918C5.0194 6.23354 9.56529 2.07693 15.1102 2.07693C16.9384 2.07317 18.737 2.53495 20.334 3.41809C21.9309 4.30124 23.2728 5.57622 24.2313 7.12108C24.3015 7.24094 24.3951 7.34566 24.5066 7.42905C24.6182 7.51245 24.7455 7.57283 24.8809 7.60665C25.0164 7.64046 25.1573 7.64703 25.2954 7.62595C25.4334 7.60488 25.5658 7.55659 25.6848 7.48393C25.8037 7.41128 25.9068 7.31573 25.988 7.20291C26.0691 7.0901 26.1267 6.9623 26.1573 6.82705C26.1879 6.69181 26.1909 6.55186 26.1661 6.41544C26.1414 6.27903 26.0893 6.14892 26.0131 6.03277C24.8675 4.18609 23.2638 2.66182 21.3552 1.60563C19.4466 0.549441 17.2955 -0.00337447 15.1102 1.54974e-05ZM27.3359 11.3774C27.14 11.1854 26.8758 11.0778 26.6005 11.0778C26.3253 11.0778 26.0611 11.1854 25.8652 11.3774L23.5113 13.6841C23.3635 13.8288 23.2624 14.0139 23.2208 14.2158C23.1793 14.4176 23.1992 14.6272 23.278 14.8178C23.3569 15.0084 23.4911 15.1715 23.6636 15.2862C23.8361 15.4009 24.039 15.4621 24.2467 15.462H25.501C24.968 20.7651 20.4068 24.923 14.8353 24.923C13.0014 24.9281 11.1967 24.4671 9.59322 23.5839C7.98973 22.7007 6.64088 21.4247 5.67519 19.8775C5.60299 19.7614 5.50846 19.6606 5.39699 19.5807C5.28552 19.5009 5.15929 19.4436 5.02552 19.4122C4.89174 19.3807 4.75304 19.3757 4.61732 19.3975C4.4816 19.4193 4.35153 19.4673 4.23454 19.539C3.99826 19.6837 3.82957 19.9156 3.76559 20.1837C3.70162 20.4518 3.74758 20.7341 3.89339 20.9686C5.04666 22.8173 6.65772 24.3421 8.57309 25.3979C10.4885 26.4537 12.6443 27.0052 14.8353 27C21.544 27 27.0652 21.9323 27.6024 15.462H28.953C29.1606 15.4621 29.3636 15.4009 29.5361 15.2862C29.7086 15.1715 29.8428 15.0084 29.9216 14.8178C30.0005 14.6272 30.0204 14.4176 29.9788 14.2158C29.9373 14.0139 29.8362 13.8288 29.6883 13.6841L27.3359 11.3774Z" fill="#5A42EE"/>
</svg>
