<svg width="37" height="38" viewBox="0 0 37 38" fill="none" xmlns="http://www.w3.org/2000/svg">
<path d="M12.9614 15.2459H12.9801M24.1723 15.2459H24.191M1.75049 18.9829C1.75049 21.1912 2.18546 23.3779 3.03056 25.4182C3.87566 27.4585 5.11434 29.3123 6.67588 30.8738C8.23743 32.4354 10.0912 33.674 12.1315 34.5191C14.1718 35.3642 16.3585 35.7992 18.5668 35.7992C20.7752 35.7992 22.9619 35.3642 25.0022 34.5191C27.0424 33.674 28.8963 32.4354 30.4578 30.8738C32.0193 29.3123 33.258 27.4585 34.1031 25.4182C34.9482 23.3779 35.3832 21.1912 35.3832 18.9829C35.3832 16.7745 34.9482 14.5878 34.1031 12.5475C33.258 10.5073 32.0193 8.65344 30.4578 7.0919C28.8963 5.53036 27.0424 4.29167 25.0022 3.44657C22.9619 2.60147 20.7752 2.1665 18.5668 2.1665C16.3585 2.1665 14.1718 2.60147 12.1315 3.44657C10.0912 4.29167 8.23743 5.53036 6.67588 7.0919C5.11434 8.65344 3.87566 10.5073 3.03056 12.5475C2.18546 14.5878 1.75049 16.7745 1.75049 18.9829Z" stroke="#C5C5C7" stroke-width="2.8009" stroke-linecap="round" stroke-linejoin="round"/>
<path d="M13.895 26.552C14.5039 25.9305 15.2307 25.4368 16.0328 25.0998C16.8349 24.7627 17.6962 24.5891 18.5662 24.5891C19.4363 24.5891 20.2976 24.7627 21.0997 25.0998C21.9018 25.4368 22.6285 25.9305 23.2374 26.552" stroke="#C5C5C7" stroke-width="2.8009" stroke-linecap="round" stroke-linejoin="round"/>
</svg>
