<svg width="27" height="27" viewBox="0 0 27 27" fill="none" xmlns="http://www.w3.org/2000/svg">
<path d="M9.40278 10.7504H9.41551M17.0408 10.7504H17.0535M1.76477 13.2964C1.76477 14.8009 2.06111 16.2907 2.63688 17.6808C3.21265 19.0708 4.05657 20.3338 5.12045 21.3977C6.18433 22.4616 7.44734 23.3055 8.83737 23.8813C10.2274 24.457 11.7172 24.7534 13.2218 24.7534C14.7263 24.7534 16.2162 24.457 17.6062 23.8813C18.9962 23.3055 20.2592 22.4616 21.3231 21.3977C22.387 20.3338 23.2309 19.0708 23.8067 17.6808C24.3824 16.2907 24.6788 14.8009 24.6788 13.2964C24.6788 11.7918 24.3824 10.302 23.8067 8.91196C23.2309 7.52193 22.387 6.25892 21.3231 5.19504C20.2592 4.13115 18.9962 3.28724 17.6062 2.71147C16.2162 2.1357 14.7263 1.83936 13.2218 1.83936C11.7172 1.83936 10.2274 2.1357 8.83737 2.71147C7.44734 3.28724 6.18433 4.13115 5.12045 5.19504C4.05657 6.25892 3.21265 7.52193 2.63688 8.91196C2.06111 10.302 1.76477 11.7918 1.76477 13.2964Z" stroke="#555555" stroke-width="2.86425" stroke-linecap="round" stroke-linejoin="round"/>
<path d="M10.0386 18.4532C10.4535 18.0298 10.9486 17.6935 11.4951 17.4639C12.0416 17.2342 12.6284 17.1159 13.2211 17.1159C13.8139 17.1159 14.4007 17.2342 14.9471 17.4639C15.4936 17.6935 15.9888 18.0298 16.4036 18.4532" stroke="#555555" stroke-width="2.86425" stroke-linecap="round" stroke-linejoin="round"/>
</svg>
