<svg width="20" height="21" viewBox="0 0 20 21" fill="none" xmlns="http://www.w3.org/2000/svg">
<path id="Vector" d="M18.0435 10.8122C17.8831 10.6298 17.7947 10.3951 17.7947 10.1522C17.7947 9.90933 17.8831 9.67473 18.0435 9.49224L19.3235 8.05224C19.4645 7.89491 19.5521 7.69694 19.5736 7.48675C19.5952 7.27655 19.5496 7.06493 19.4435 6.88224L17.4435 3.42224C17.3384 3.23976 17.1783 3.09512 16.9862 3.00892C16.7941 2.92273 16.5796 2.8994 16.3735 2.94224L14.4935 3.32224C14.2542 3.37167 14.0052 3.33183 13.7933 3.21024C13.5815 3.08865 13.4214 2.89372 13.3435 2.66224L12.7335 0.832239C12.6664 0.633618 12.5386 0.461104 12.3681 0.339081C12.1976 0.217058 11.9931 0.151698 11.7835 0.152239H7.78345C7.56538 0.140857 7.34959 0.201165 7.16902 0.323953C6.98845 0.446741 6.85303 0.625258 6.78345 0.832239L6.22345 2.66224C6.14545 2.89372 5.98542 3.08865 5.77356 3.21024C5.5617 3.33183 5.31267 3.37167 5.07345 3.32224L3.14345 2.94224C2.948 2.91462 2.74875 2.94546 2.5708 3.03088C2.39285 3.1163 2.24415 3.25247 2.14345 3.42224L0.143451 6.88224C0.034611 7.06289 -0.0143269 7.27332 0.00363355 7.48346C0.021594 7.6936 0.105533 7.89268 0.243451 8.05224L1.51345 9.49224C1.67377 9.67473 1.76219 9.90933 1.76219 10.1522C1.76219 10.3951 1.67377 10.6298 1.51345 10.8122L0.243451 12.2522C0.105533 12.4118 0.021594 12.6109 0.00363355 12.821C-0.0143269 13.0312 0.034611 13.2416 0.143451 13.4222L2.14345 16.8822C2.24855 17.0647 2.40857 17.2094 2.6007 17.2956C2.79284 17.3817 3.00728 17.4051 3.21345 17.3622L5.09345 16.9822C5.33267 16.9328 5.5817 16.9726 5.79356 17.0942C6.00542 17.2158 6.16545 17.4108 6.24345 17.6422L6.85345 19.4722C6.92303 19.6792 7.05845 19.8577 7.23902 19.9805C7.41959 20.1033 7.63538 20.1636 7.85345 20.1522H11.8535C12.0631 20.1528 12.2676 20.0874 12.4381 19.9654C12.6086 19.8434 12.7364 19.6709 12.8035 19.4722L13.4135 17.6422C13.4915 17.4108 13.6515 17.2158 13.8633 17.0942C14.0752 16.9726 14.3242 16.9328 14.5635 16.9822L16.4435 17.3622C16.6496 17.4051 16.8641 17.3817 17.0562 17.2956C17.2483 17.2094 17.4084 17.0647 17.5135 16.8822L19.5135 13.4222C19.6196 13.2396 19.6652 13.0279 19.6436 12.8177C19.6221 12.6075 19.5345 12.4096 19.3935 12.2522L18.0435 10.8122ZM16.5535 12.1522L17.3535 13.0522L16.0735 15.2722L14.8935 15.0322C14.1732 14.885 13.424 15.0074 12.788 15.376C12.1521 15.7447 11.6736 16.3341 11.4435 17.0322L11.0635 18.1522H8.50345L8.14345 17.0122C7.91331 16.3141 7.43483 15.7247 6.79886 15.356C6.16288 14.9874 5.41367 14.865 4.69345 15.0122L3.51345 15.2522L2.21345 13.0422L3.01345 12.1422C3.50541 11.5922 3.77738 10.8802 3.77738 10.1422C3.77738 9.40431 3.50541 8.69226 3.01345 8.14224L2.21345 7.24224L3.49345 5.04224L4.67345 5.28224C5.39367 5.42946 6.14288 5.30712 6.77886 4.93844C7.41483 4.56976 7.89331 3.9804 8.12345 3.28224L8.50345 2.15224H11.0635L11.4435 3.29224C11.6736 3.9904 12.1521 4.57976 12.788 4.94844C13.424 5.31712 14.1732 5.43946 14.8935 5.29224L16.0735 5.05224L17.3535 7.27224L16.5535 8.17224C16.067 8.721 15.7984 9.42892 15.7984 10.1622C15.7984 10.8956 16.067 11.6035 16.5535 12.1522ZM9.78345 6.15224C8.99233 6.15224 8.21897 6.38684 7.56117 6.82636C6.90337 7.26589 6.39068 7.8906 6.08793 8.6215C5.78518 9.35241 5.70597 10.1567 5.86031 10.9326C6.01465 11.7085 6.39561 12.4213 6.95502 12.9807C7.51443 13.5401 8.22717 13.921 9.00309 14.0754C9.77901 14.2297 10.5833 14.1505 11.3142 13.8478C12.0451 13.545 12.6698 13.0323 13.1093 12.3745C13.5489 11.7167 13.7835 10.9434 13.7835 10.1522C13.7835 9.09137 13.362 8.07396 12.6119 7.32381C11.8617 6.57367 10.8443 6.15224 9.78345 6.15224ZM9.78345 12.1522C9.38789 12.1522 9.00121 12.0349 8.67231 11.8152C8.34341 11.5954 8.08707 11.2831 7.93569 10.9176C7.78432 10.5522 7.74471 10.15 7.82188 9.76206C7.89905 9.3741 8.08953 9.01773 8.36924 8.73803C8.64894 8.45832 9.00531 8.26784 9.39327 8.19067C9.78123 8.1135 10.1834 8.1531 10.5488 8.30448C10.9143 8.45585 11.2266 8.7122 11.4464 9.0411C11.6662 9.37 11.7835 9.75668 11.7835 10.1522C11.7835 10.6827 11.5727 11.1914 11.1977 11.5665C10.8226 11.9415 10.3139 12.1522 9.78345 12.1522Z" fill="#555555"/>
</svg>
