<svg width="38" height="38" viewBox="0 0 38 38" fill="none" xmlns="http://www.w3.org/2000/svg">
<path d="M13.4609 15.2459H13.4796M24.6718 15.2459H24.6905M2.25 18.9829C2.25 21.1912 2.68497 23.3779 3.53007 25.4182C4.37517 27.4584 5.61385 29.3123 7.1754 30.8738C8.73694 32.4354 10.5908 33.674 12.631 34.5191C14.6713 35.3642 16.858 35.7992 19.0664 35.7992C21.2747 35.7992 23.4614 35.3642 25.5017 34.5191C27.5419 33.674 29.3958 32.4354 30.9573 30.8738C32.5189 29.3123 33.7575 27.4584 34.6026 25.4182C35.4477 23.3779 35.8827 21.1912 35.8827 18.9829C35.8827 16.7745 35.4477 14.5878 34.6026 12.5475C33.7575 10.5073 32.5189 8.65344 30.9573 7.0919C29.3958 5.53036 27.5419 4.29167 25.5017 3.44657C23.4614 2.60147 21.2747 2.1665 19.0664 2.1665C16.858 2.1665 14.6713 2.60147 12.631 3.44657C10.5908 4.29167 8.73694 5.53036 7.1754 7.0919C5.61385 8.65344 4.37517 10.5073 3.53007 12.5475C2.68497 14.5878 2.25 16.7745 2.25 18.9829Z" stroke="#C5C5C7" stroke-width="2.8009" stroke-linecap="round" stroke-linejoin="round"/>
<path d="M14.394 24.5886C15.0029 25.2101 15.7297 25.7038 16.5318 26.0408C17.3339 26.3779 18.1952 26.5515 19.0653 26.5515C19.9353 26.5515 20.7966 26.3779 21.5987 26.0408C22.4008 25.7038 23.1276 25.2101 23.7365 24.5886" stroke="#C5C5C7" stroke-width="2.8009" stroke-linecap="round" stroke-linejoin="round"/>
</svg>
