<svg viewBox="0 0 27 27" fill="none" xmlns="http://www.w3.org/2000/svg">
<path d="M9.51343 10.7504H9.52616M17.1514 10.7504H17.1642M1.87543 13.2964C1.87543 14.8009 2.17177 16.2907 2.74754 17.6808C3.32331 19.0708 4.16723 20.3338 5.23111 21.3977C6.29499 22.4616 7.558 23.3055 8.94803 23.8813C10.3381 24.457 11.8279 24.7534 13.3324 24.7534C14.837 24.7534 16.3268 24.457 17.7168 23.8813C19.1069 23.3055 20.3699 22.4616 21.4338 21.3977C22.4976 20.3338 23.3416 19.0708 23.9173 17.6808C24.4931 16.2907 24.7894 14.8009 24.7894 13.2964C24.7894 11.7918 24.4931 10.302 23.9173 8.91196C23.3416 7.52193 22.4976 6.25892 21.4338 5.19504C20.3699 4.13115 19.1069 3.28724 17.7168 2.71147C16.3268 2.1357 14.837 1.83936 13.3324 1.83936C11.8279 1.83936 10.3381 2.1357 8.94803 2.71147C7.558 3.28724 6.29499 4.13115 5.23111 5.19504C4.16723 6.25892 3.32331 7.52193 2.74754 8.91196C2.17177 10.302 1.87543 11.7918 1.87543 13.2964Z" stroke="#555555" stroke-width="2.86425" stroke-linecap="round" stroke-linejoin="round"/>
<path d="M10.1493 17.1158C10.5642 17.5392 11.0593 17.8756 11.6058 18.1052C12.1523 18.3349 12.7391 18.4531 13.3318 18.4531C13.9246 18.4531 14.5114 18.3349 15.0579 18.1052C15.6043 17.8756 16.0995 17.5392 16.5143 17.1158" stroke="#555555" stroke-width="2.86425" stroke-linecap="round" stroke-linejoin="round"/>
</svg>
