<svg width="45" height="50" viewBox="0 0 45 50" fill="none" xmlns="http://www.w3.org/2000/svg">
<path d="M2.5 7.5H10V5C10 3.67392 10.5268 2.40215 11.4645 1.46447C12.4021 0.526784 13.6739 0 15 0H30C31.3261 0 32.5979 0.526784 33.5355 1.46447C34.4732 2.40215 35 3.67392 35 5V7.5H42.5C43.163 7.5 43.7989 7.76339 44.2678 8.23223C44.7366 8.70107 45 9.33696 45 10C45 10.663 44.7366 11.2989 44.2678 11.7678C43.7989 12.2366 43.163 12.5 42.5 12.5H40V45C40 46.3261 39.4732 47.5979 38.5355 48.5355C37.5979 49.4732 36.3261 50 35 50H10C8.67392 50 7.40215 49.4732 6.46447 48.5355C5.52678 47.5979 5 46.3261 5 45V12.5H2.5C1.83696 12.5 1.20107 12.2366 0.732233 11.7678C0.263392 11.2989 0 10.663 0 10C0 9.33696 0.263392 8.70107 0.732233 8.23223C1.20107 7.76339 1.83696 7.5 2.5 7.5ZM10 12.5V45H35V12.5H10ZM15 7.5H30V5H15V7.5ZM15 17.5H20V40H15V17.5ZM25 17.5H30V40H25V17.5Z" fill="#5A42EE"/>
</svg>
