<svg width="25" height="26" viewBox="0 0 25 26" fill="none" xmlns="http://www.w3.org/2000/svg">
<path fill-rule="evenodd" clip-rule="evenodd" d="M16.6945 16.2222C15.5819 17.3147 14.0735 17.9293 12.5 17.931C11.6887 17.9301 10.8947 17.7663 10.1633 17.458L8.81239 18.8089C9.93521 19.4043 11.2008 19.7241 12.5 19.7241C14.5583 19.7241 16.5323 18.9212 17.9878 17.4921C19.4432 16.0629 20.2609 14.1246 20.2609 12.1034C20.2609 11.7468 20.4052 11.4047 20.662 11.1525C20.9189 10.9003 21.2672 10.7586 21.6304 10.7586C21.9937 10.7586 22.342 10.9003 22.5989 11.1525C22.8557 11.4047 23 11.7468 23 12.1034C22.9968 14.6042 22.0695 17.0188 20.3903 18.8989C18.7111 20.779 16.3941 21.9969 13.8696 22.3264V24.6552C13.8696 25.0118 13.7253 25.3539 13.4684 25.6061C13.2116 25.8583 12.8632 26 12.5 26C12.1368 26 11.7884 25.8583 11.5316 25.6061C11.2747 25.3539 11.1304 25.0118 11.1304 24.6552V22.3264C9.59008 22.1253 8.127 21.5936 6.8389 20.7824L3.06066 24.5607C2.47488 25.1464 1.52513 25.1464 0.939344 24.5607C0.353557 23.9749 0.353557 23.0251 0.939344 22.4393L4.54872 18.83C2.90809 16.9599 2.00319 14.5737 2 12.1034C2 11.7468 2.1443 11.4047 2.40114 11.1525C2.65798 10.9003 3.00634 10.7586 3.36957 10.7586C3.7328 10.7586 4.08115 10.9003 4.338 11.1525C4.59484 11.4047 4.73913 11.7468 4.73913 12.1034C4.73913 13.8598 5.3566 15.5537 6.4735 16.9052L7.7656 15.6131C6.9925 14.608 6.56672 13.3774 6.56522 12.1034V5.82759C6.56522 4.28201 7.19049 2.79975 8.30348 1.70686C9.41647 0.613976 10.926 0 12.5 0C14.074 0 15.5835 0.613976 16.6965 1.70686C17.6098 2.60362 18.1947 3.76256 18.3752 5.00351L22.4393 0.93934C23.0251 0.353553 23.9749 0.353553 24.5607 0.93934C25.1465 1.52513 25.1465 2.47487 24.5607 3.06066L18.4348 9.18654V12.1034C18.433 13.6485 17.8071 15.1297 16.6945 16.2222ZM15.6957 11.9257V12.1034C15.6957 12.9357 15.359 13.7338 14.7597 14.3223C14.1604 14.9108 13.3475 15.2414 12.5 15.2414C12.4606 15.2414 12.4213 15.2407 12.3821 15.2392L15.6957 11.9257ZM15.6957 7.68303L9.72282 13.6559C9.45093 13.1869 9.30435 12.6526 9.30435 12.1034V5.82759C9.30435 4.99536 9.64104 4.19721 10.2403 3.60873C10.8396 3.02026 11.6525 2.68966 12.5 2.68966C13.3475 2.68966 14.1604 3.02026 14.7597 3.60873C15.359 4.19721 15.6957 4.99536 15.6957 5.82759V7.68303Z" fill="white"/>
</svg>
