<svg width="56" height="56" viewBox="0 0 56 56" fill="none" xmlns="http://www.w3.org/2000/svg">
<rect width="56" height="56" rx="10" fill="#8C8C96"/>
<path d="M27.5 32.931C29.0734 32.9293 30.5819 32.3147 31.6945 31.2222C32.8071 30.1297 33.433 28.6485 33.4348 27.1034V20.8276C33.4348 19.282 32.8095 17.7997 31.6965 16.7069C30.5835 15.614 29.074 15 27.5 15C25.926 15 24.4165 15.614 23.3035 16.7069C22.1905 17.7997 21.5652 19.282 21.5652 20.8276V27.1034C21.567 28.6485 22.1929 30.1297 23.3055 31.2222C24.4181 32.3147 25.9266 32.9293 27.5 32.931ZM24.3043 20.8276C24.3043 19.9954 24.641 19.1972 25.2403 18.6087C25.8396 18.0203 26.6525 17.6897 27.5 17.6897C28.3475 17.6897 29.1604 18.0203 29.7597 18.6087C30.359 19.1972 30.6957 19.9954 30.6957 20.8276V27.1034C30.6957 27.9357 30.359 28.7338 29.7597 29.3223C29.1604 29.9108 28.3475 30.2414 27.5 30.2414C26.6525 30.2414 25.8396 29.9108 25.2403 29.3223C24.641 28.7338 24.3043 27.9357 24.3043 27.1034V20.8276ZM28.8696 37.3264V39.6552C28.8696 40.0118 28.7253 40.3539 28.4684 40.6061C28.2116 40.8583 27.8632 41 27.5 41C27.1368 41 26.7884 40.8583 26.5316 40.6061C26.2747 40.3539 26.1304 40.0118 26.1304 39.6552V37.3264C23.6059 36.9969 21.2889 35.779 19.6097 33.8989C17.9305 32.0188 17.0032 29.6042 17 27.1034C17 26.7468 17.1443 26.4047 17.4011 26.1525C17.658 25.9003 18.0063 25.7586 18.3696 25.7586C18.7328 25.7586 19.0812 25.9003 19.338 26.1525C19.5948 26.4047 19.7391 26.7468 19.7391 27.1034C19.7391 29.1246 20.5568 31.0629 22.0122 32.4921C23.4677 33.9212 25.4417 34.7241 27.5 34.7241C29.5583 34.7241 31.5323 33.9212 32.9878 32.4921C34.4432 31.0629 35.2609 29.1246 35.2609 27.1034C35.2609 26.7468 35.4052 26.4047 35.662 26.1525C35.9188 25.9003 36.2672 25.7586 36.6304 25.7586C36.9937 25.7586 37.342 25.9003 37.5989 26.1525C37.8557 26.4047 38 26.7468 38 27.1034C37.9968 29.6042 37.0695 32.0188 35.3903 33.8989C33.7111 35.779 31.3941 36.9969 28.8696 37.3264Z" fill="white"/>
</svg>
