<svg width="130" height="124" viewBox="0 0 130 124" fill="none" xmlns="http://www.w3.org/2000/svg">
<g id="Group 2693" filter="url(#filter0_d_1842_938)">
<path id="Vector 935" d="M52.7964 19.3209C45.0452 19.0876 27.6762 23.1317 20.2102 41.1746" stroke="#55391E" stroke-width="11.1826" stroke-linecap="round"/>
<path id="Vector 939" d="M89.9717 31.2207C96.0897 35.8611 108.248 50.3836 107.937 71.3507" stroke="black" stroke-width="11.1826" stroke-linecap="round"/>
<path id="Vector 936" d="M30.9429 29.9758C27.2876 32.8534 19.4327 44.6279 17.2551 68.7059" stroke="black" stroke-width="11.1826" stroke-linecap="round"/>
<path id="Vector 928" d="M87.0156 28.4255C91.8893 28.2699 101.73 31.6297 102.103 46.3129C102.477 60.9961 102.259 79.3398 102.103 86.6762" stroke="#55391E" stroke-width="11.1826" stroke-linecap="round"/>
<path id="Vector 932" d="M83.283 23.3535C88.027 19.3871 99.4594 23.3535 101.358 36.6798C103.433 51.2429 101.569 69.7479 101.358 77.0934" stroke="#55391E" stroke-width="11.1826" stroke-linecap="round"/>
<path id="Vector 929" d="M77.5283 29.1985C72.6287 20.2548 61.9194 17.007 49.1418 19.477C36.4744 21.9257 26.8517 33.6321 26.6659 40.9419C26.2926 55.6251 26.5104 77.8573 26.6659 85.1938" stroke="black" stroke-width="11.1826" stroke-linecap="round"/>
<circle id="Ellipse 404" cx="96.9705" cy="63.0618" r="11.0435" fill="#EEA586"/>
<circle id="Ellipse 405" cx="26.0435" cy="63.0618" r="11.0435" fill="#EEA586"/>
<path id="Subtract" fill-rule="evenodd" clip-rule="evenodd" d="M26.9758 52.7881V66.3174C26.9758 85.7746 42.749 101.548 62.2062 101.548C81.6634 101.548 97.4365 85.7746 97.4365 66.3174V52.7881H26.9758Z" fill="#FFCEB2"/>
<path id="Subtract_2" fill-rule="evenodd" clip-rule="evenodd" d="M26.9263 69.4749V58.5426C26.9263 39.0714 42.7108 23.2868 62.1821 23.2868C81.6533 23.2868 97.4379 39.0714 97.4379 58.5427V69.4749H26.9263Z" fill="#FFCEB2"/>
<rect id="Rectangle 5823" x="47.9741" y="57.4622" width="13.9988" height="19.5984" rx="6.99942" fill="white"/>
<rect id="Rectangle 5824" x="62.752" y="57.4622" width="13.9988" height="19.5984" rx="6.99942" fill="white"/>
<rect id="Rectangle 5825" x="56.219" y="67.2605" width="4.35519" height="6.06616" rx="2.1776" fill="black"/>
<rect id="Rectangle 5826" x="71.1506" y="67.2605" width="4.35519" height="6.06616" rx="2.1776" fill="black"/>
<path id="Vector 923" d="M47.6631 65.7059C47.6631 62.749 48.9927 57.4621 54.9685 57.4622C61.0792 57.4622 62.4928 63.035 62.4381 65.7059" stroke="#BF7E63" stroke-width="2.10993" stroke-linecap="round"/>
<path id="Vector 924" d="M62.4404 65.7059C62.4404 62.749 63.7701 57.4621 69.7459 57.4622C75.8566 57.4622 77.2702 63.035 77.2155 65.7059" stroke="#BF7E63" stroke-width="2.10993" stroke-linecap="round"/>
<path id="Vector 925" d="M58.8625 82.0383L59.2501 82.2496C61.3012 83.3674 63.7968 83.2865 65.7712 82.0383V82.0383" stroke="#FF5252" stroke-width="9.0727" stroke-linecap="round"/>
<circle id="Ellipse 406" cx="62.4408" cy="75.6605" r="2.1776" fill="#EEA586"/>
<path id="Vector 926" d="M59.3291 82.0383L59.6869 82.2333C61.5802 83.2651 63.8838 83.1905 65.7063 82.0383V82.0383" stroke="#C23A3A" stroke-width="1.05497" stroke-linecap="round"/>
<path id="Vector 927" d="M79.394 30.4482C84.2677 30.2927 94.1084 33.6524 94.4817 48.3356C94.855 63.0188 94.6372 81.3625 94.4817 88.6989" stroke="black" stroke-width="11.1826" stroke-linecap="round"/>
<path id="Vector 930" d="M75.5061 30.7388C71.5366 22.2896 62.8602 19.2214 52.5081 21.5548C42.2453 23.8681 34.2988 33.7864 34.2988 43.43C34.2988 57.3047 34.1727 76.707 34.2988 83.6378" stroke="black" stroke-width="11.1826" stroke-linecap="round"/>
<path id="Vector 933" d="M75.5058 31.5718C72.116 26.2791 58.1842 23.3681 50.9301 30.4043C43.676 37.4406 44.0905 46.9054 44.0906 51.2845" stroke="#55391E" stroke-width="11.1826" stroke-linecap="round"/>
<path id="Vector 934" d="M79.4722 21.1101C77.2946 16.703 69.1442 8.52666 53.9632 11.0776C38.7823 13.6285 29.0764 21.11 26.1211 24.532" stroke="black" stroke-width="11.1826" stroke-linecap="round"/>
<path id="Vector 937" d="M80.3276 19.0887C83.8014 16.4963 92.5844 13.4114 99.926 21.8107" stroke="black" stroke-width="11.1826" stroke-linecap="round"/>
<path id="Vector 938" d="M79.0995 22.1749C87.4764 18.9675 105.315 20.6623 109.652 53.101" stroke="#291C0F" stroke-width="11.1826" stroke-linecap="round"/>
<path id="Vector 931" d="M77.8394 28.6706C73.2729 19.0712 63.2918 15.5852 51.383 18.2364C39.577 20.8646 30.6086 33.4292 30.4354 41.275C30.0875 57.0347 30.2905 80.8969 30.4354 88.7712" stroke="#291C0E" stroke-width="11.1826" stroke-linecap="round"/>
<g id="Group 2111">
<path id="Vector 923_2" d="M33.5867 14.5506C31.8624 8.13682 38.1026 6.93128 41.3868 6.48231C46.8264 5.73868 57.6104 7.87894 58.2702 13.4271C59.0522 20.003 50.9489 22.7549 46.8777 22.9252C39.9622 23.2143 35.3109 20.9643 33.5867 14.5506Z" fill="#5A42EE" fill-opacity="0.49"/>
<path id="Subtract_3" fill-rule="evenodd" clip-rule="evenodd" d="M38.9116 4.26552C48.6097 2.92083 57.8256 7.1009 61.2212 9.35903C63.8699 10.6222 66.9429 9.03645 68.1484 8.08567C74.1587 4.26554 80.7293 3.70525 89.0827 4.11273C95.7654 4.43872 98.3189 8.18754 98.7604 10.0212C99.5753 13.315 99.0049 20.6768 90.2033 23.7737C81.4017 26.8705 73.8361 24.7245 71.1535 23.2643C68.1973 21.7862 66.7141 16.6481 66.3695 15.4544L66.3693 15.4539C66.3459 15.3727 66.3277 15.3097 66.3147 15.2675C66.111 14.6054 65.6526 13.4848 63.5642 13.4848C61.8935 13.4848 61.3061 14.6733 61.2212 15.2675C60.1618 19.5053 57.3162 22.3645 56.0258 23.2643C51.2783 26.5751 42.1205 25.862 35.7027 23.2643C29.6111 20.7987 27.9097 15.4033 27.9097 12.7717C27.9096 10.4796 29.2136 5.6102 38.9116 4.26552ZM33.8063 14.555C32.0949 8.1576 38.2886 6.95512 41.5484 6.50728C46.9475 5.76555 57.6512 7.90037 58.3061 13.4345C59.0823 19.9936 51.0393 22.7386 46.9984 22.9084C40.1344 23.1968 35.5177 20.9525 33.8063 14.555ZM85.6725 6.50728C88.9323 6.95512 95.126 8.1576 93.4146 14.555C91.7032 20.9525 87.0865 23.1968 80.2225 22.9084C76.1816 22.7386 68.1386 19.9936 68.9148 13.4345C69.5697 7.90037 80.2734 5.76555 85.6725 6.50728Z" fill="#D7D7D7"/>
<path id="Vector 924_2" d="M93.5869 14.5506C95.3112 8.13682 89.071 6.93128 85.7867 6.48231C80.3471 5.73868 69.5632 7.87894 68.9034 13.4271C68.1214 20.003 76.2247 22.7549 80.2958 22.9252C87.2114 23.2143 91.8627 20.9643 93.5869 14.5506Z" fill="#5A42EE" fill-opacity="0.49"/>
</g>
</g>
<defs>
<filter id="filter0_d_1842_938" x="0.225798" y="0.0870762" width="129.466" height="123.433" filterUnits="userSpaceOnUse" color-interpolation-filters="sRGB">
<feFlood flood-opacity="0" result="BackgroundImageFix"/>
<feColorMatrix in="SourceAlpha" type="matrix" values="0 0 0 0 0 0 0 0 0 0 0 0 0 0 0 0 0 0 127 0" result="hardAlpha"/>
<feOffset dx="1.50497" dy="9.02982"/>
<feGaussianBlur stdDeviation="6.47137"/>
<feComposite in2="hardAlpha" operator="out"/>
<feColorMatrix type="matrix" values="0 0 0 0 0 0 0 0 0 0 0 0 0 0 0 0 0 0 0.25 0"/>
<feBlend mode="normal" in2="BackgroundImageFix" result="effect1_dropShadow_1842_938"/>
<feBlend mode="normal" in="SourceGraphic" in2="effect1_dropShadow_1842_938" result="shape"/>
</filter>
</defs>
</svg>
