<svg width="92" height="106" viewBox="0 0 92 106" fill="none" xmlns="http://www.w3.org/2000/svg">
<g id="Group 2694">
<path id="Vector 887" d="M39.3109 44.0259C17.2175 45.9101 24.1368 31.0549 30.3581 23.3918C38.9892 11.539 54.6823 0.801565 67.4192 12.8315C77.4586 22.3136 66.9277 41.6706 39.3109 44.0259Z" fill="#7D68FF"/>
<path id="Vector 888" d="M27.13 36.5629C11.2595 21.572 23.3312 11.4046 31.3508 8.19472C43.0848 2.46903 64.1891 8.19472 61.6566 25.632C59.1241 43.0694 46.968 55.3015 27.13 36.5629Z" fill="#9F90F9"/>
<path id="Vector 889" d="M5.49596 62.0224C6.06778 52.8733 8.21209 44.0101 12.7152 37.0768C27.6539 19.3505 45.3803 21.9951 50.0263 21.9951C54.6723 21.9951 70.3973 25.0687 79.189 37.0768C85.6664 45.924 86.4082 57.5908 86.4082 62.0224C86.3188 70.3803 79.6182 78.9076 74.6094 84.1245C71.6219 87.2362 69.8985 93.3083 65.7789 94.5873C61.2735 95.9861 51.6173 95.9141 31.3312 90.9042C27.4086 89.9355 24.597 86.2169 22.2196 82.95C16.9324 75.6849 5.04807 69.1885 5.49596 62.0224Z" fill="#C1B7FF"/>
<path id="Vector 890" d="M45.3082 25.8555C13.2149 25.8555 7.35376 52.6594 7.35376 63.6669H84.3348C84.3348 52.0876 78.4022 25.8555 45.3082 25.8555Z" fill="#C1B7FF"/>
<path id="Vector 891" d="M19.1379 62.4904C37.814 60.3621 45.4888 48.3521 47.8708 38.1047C48.9831 33.3197 44.8253 29.2836 39.9685 30.0216C21.4403 32.8369 13.8745 44.5853 11.5592 54.4478C10.4726 59.0762 14.4142 63.0287 19.1379 62.4904Z" fill="#D68C4B"/>
<path id="Vector 892" d="M72.4664 62.4904C53.7902 60.3621 46.1155 48.3521 43.7334 38.1047C42.6212 33.3197 46.779 29.2836 51.6358 30.0216C70.1639 32.8369 77.7298 44.5853 80.0451 54.4478C81.1316 59.0762 77.19 63.0287 72.4664 62.4904Z" fill="#D68C4B"/>
<circle id="Ellipse 378" cx="80.2713" cy="67.7376" r="10.8145" fill="#F9C8BF"/>
<circle id="Ellipse 379" cx="10.8148" cy="67.7376" r="10.8145" fill="#F9C8BF"/>
<path id="Subtract" fill-rule="evenodd" clip-rule="evenodd" d="M11.7283 57.678V70.9259C11.7283 89.9796 27.1744 105.426 46.2282 105.426C65.2819 105.426 80.728 89.9796 80.728 70.9258V57.678H11.7283Z" fill="#FFE6E1"/>
<path id="Subtract_2" fill-rule="evenodd" clip-rule="evenodd" d="M11.6787 74.0178V63.3136C11.6787 44.2461 27.136 28.7888 46.2035 28.7888C65.2711 28.7888 80.7283 44.2461 80.7283 63.3136V74.0178H11.6787Z" fill="#FFE6E1"/>
<rect id="Rectangle 5801" x="32.2917" y="62.2544" width="13.7086" height="19.192" rx="6.85429" fill="white"/>
<rect id="Rectangle 5802" x="46.762" y="62.2544" width="13.7086" height="19.192" rx="6.85429" fill="white"/>
<rect id="Rectangle 5803" x="40.3645" y="71.8499" width="4.26489" height="5.94039" rx="2.13245" fill="black"/>
<rect id="Rectangle 5804" x="54.9868" y="71.8499" width="4.26489" height="5.94039" rx="2.13245" fill="black"/>
<path id="Vector 883" d="M31.9871 70.3272C31.9871 67.4316 33.2891 62.2544 39.141 62.2544C45.125 62.2544 46.5093 67.7117 46.4558 70.3272" stroke="#E19283" stroke-width="2.06618" stroke-linecap="round"/>
<path id="Vector 884" d="M46.457 70.3272C46.457 67.4316 47.7591 62.2544 53.611 62.2544C59.595 62.2544 60.9793 67.7117 60.9257 70.3272" stroke="#E19283" stroke-width="2.06618" stroke-linecap="round"/>
<path id="Vector 885" d="M42.9543 86.3203L43.3339 86.5272C45.3424 87.6218 47.7863 87.5426 49.7198 86.3203V86.3203" stroke="#FF5252" stroke-width="8.88459" stroke-linecap="round"/>
<circle id="Ellipse 380" cx="46.4569" cy="80.0756" r="2.13245" fill="#F9C8BF"/>
<path id="Vector 886" d="M43.4104 86.3203L43.7608 86.5113C45.6148 87.5217 47.8707 87.4486 49.6554 86.3203V86.3203" stroke="#C23A3A" stroke-width="1.03309" stroke-linecap="round"/>
<path id="Vector 893" d="M18.3458 61.9488C38.0892 59.6988 46.2025 47.0026 48.7206 36.1696C49.8964 31.1112 45.5011 26.8444 40.3668 27.6246C20.7799 30.6008 12.7817 43.0206 10.3341 53.4466C9.18546 58.3395 13.3523 62.5178 18.3458 61.9488Z" fill="#C1B7FF"/>
<path id="Vector 894" d="M74.7666 61.7157C53.2352 59.6716 44.4119 46.9878 41.6806 36.1639C40.4133 31.1416 44.7935 26.9015 49.9304 27.5669C71.3242 30.3383 80.0394 42.7491 82.7027 53.173C83.9456 58.0376 79.765 62.1902 74.7666 61.7157Z" fill="#C1B7FF"/>
</g>
</svg>
