<svg width="104" height="98" viewBox="0 0 104 98" fill="none" xmlns="http://www.w3.org/2000/svg">
<g id="Group 2696">
<circle id="Ellipse 312" cx="16.298" cy="16.298" r="16.298" fill="#231D18"/>
<circle id="Ellipse 313" cx="87.4306" cy="16.2982" r="16.298" fill="#231D18"/>
<path id="Vector 813" d="M50.7666 14.927C16.9841 14.927 10.8145 43.2166 10.8145 54.8342H91.8474C91.8474 42.6131 85.6025 14.927 50.7666 14.927Z" fill="#48382D"/>
<circle id="Ellipse 314" cx="85.6021" cy="60.1656" r="10.8145" fill="#F9C8BF"/>
<circle id="Ellipse 315" cx="16.1456" cy="60.1656" r="10.8145" fill="#F9C8BF"/>
<path id="Subtract" fill-rule="evenodd" clip-rule="evenodd" d="M17.0596 50.1064V63.3543C17.0596 82.4081 32.5057 97.8542 51.5595 97.8542C70.6132 97.8542 86.0593 82.4081 86.0593 63.3543V50.1064H17.0596Z" fill="#FFE6E1"/>
<path id="Subtract_2" fill-rule="evenodd" clip-rule="evenodd" d="M17.0103 66.4453V55.7406C17.0103 36.673 32.4675 21.2158 51.5351 21.2158C70.6026 21.2158 86.0599 36.673 86.0599 55.7406V66.4453H17.0103Z" fill="#FFE6E1"/>
<path id="Vector 814" d="M60.6225 18.3371C57.8524 29.5811 44.561 51.9719 13.5564 49.6389C17.3362 35.5109 32.2741 8.71318 60.6225 18.3371Z" fill="#48382D"/>
<rect id="Rectangle 5734" x="37.6218" y="54.6824" width="13.7086" height="19.192" rx="6.85429" fill="white"/>
<rect id="Rectangle 5735" x="52.0928" y="54.6824" width="13.7086" height="19.192" rx="6.85429" fill="white"/>
<rect id="Rectangle 5736" x="45.6953" y="64.2781" width="4.26489" height="5.94039" rx="2.13245" fill="black"/>
<rect id="Rectangle 5737" x="60.3176" y="64.2781" width="4.26489" height="5.94039" rx="2.13245" fill="black"/>
<path id="Vector 815" d="M73.9088 36.1651C68.7832 28.8133 60.5473 26.5395 55.9009 24.6447V18.2781C58.0859 18.5055 64.8521 19.6575 74.4362 22.4467C84.0203 25.2358 89.6312 41.8496 91.2386 49.8078H87.5288C83.1736 49.8078 79.3815 46.8833 77.61 42.9046C76.6024 40.6414 75.3524 38.2358 73.9088 36.1651Z" fill="#48382D"/>
<path id="Vector 816" d="M37.3179 62.7552C37.3179 59.8596 38.6199 54.6824 44.4718 54.6824C50.4558 54.6824 51.8402 60.1397 51.7866 62.7552" stroke="#E19283" stroke-width="2.06618" stroke-linecap="round"/>
<path id="Vector 817" d="M51.7878 62.7552C51.7878 59.8596 53.0899 54.6824 58.9418 54.6824C64.9258 54.6824 66.3101 60.1397 66.2565 62.7552" stroke="#E19283" stroke-width="2.06618" stroke-linecap="round"/>
<path id="Vector 818" d="M48.2864 78.7583L48.6659 78.9652C50.6745 80.0598 53.1183 79.9806 55.0518 78.7583V78.7583" stroke="#FF5252" stroke-width="8.88459" stroke-linecap="round"/>
<circle id="Ellipse 316" cx="51.788" cy="72.5031" r="2.13245" fill="#F9C8BF"/>
<path id="Vector 819" d="M48.7427 78.7583L49.093 78.9492C50.9471 79.9597 53.203 79.8866 54.9877 78.7583V78.7583" stroke="#C23A3A" stroke-width="1.03309" stroke-linecap="round"/>
<g id="Group 2112">
<circle id="Ellipse 404" cx="22.3906" cy="74.1782" r="0.304635" fill="#E19283"/>
<circle id="Ellipse 406" cx="26.6555" cy="76.1584" r="0.304635" fill="#E19283"/>
<circle id="Ellipse 407" cx="34.1186" cy="79.0522" r="0.304635" fill="#E19283"/>
<circle id="Ellipse 428" cx="37.6223" cy="77.5295" r="0.304635" fill="#E19283"/>
<circle id="Ellipse 429" cx="74.788" cy="78.4431" r="0.304635" fill="#E19283"/>
<circle id="Ellipse 408" cx="35.6425" cy="71.5891" r="0.304635" fill="#E19283"/>
<circle id="Ellipse 409" cx="34.1186" cy="73.5688" r="0.304635" fill="#E19283"/>
<circle id="Ellipse 410" cx="45.9997" cy="74.9399" r="0.304635" fill="#E19283"/>
<circle id="Ellipse 411" cx="60.622" cy="75.8535" r="0.304635" fill="#E19283"/>
<circle id="Ellipse 413" cx="67.6293" cy="72.8068" r="0.304635" fill="#E19283"/>
<circle id="Ellipse 414" cx="70.9804" cy="74.6352" r="0.304635" fill="#E19283"/>
<circle id="Ellipse 415" cx="75.7023" cy="73.4162" r="0.304635" fill="#E19283"/>
<circle id="Ellipse 416" cx="74.1787" cy="71.5891" r="0.304635" fill="#E19283"/>
<circle id="Ellipse 417" cx="78.5956" cy="72.9597" r="0.304635" fill="#E19283"/>
<circle id="Ellipse 418" cx="80.1191" cy="74.6352" r="0.304635" fill="#E19283"/>
<circle id="Ellipse 419" cx="83.3178" cy="72.1982" r="0.304635" fill="#E19283"/>
<circle id="Ellipse 420" cx="82.404" cy="70.218" r="0.304635" fill="#E19283"/>
<circle id="Ellipse 421" cx="78.5956" cy="68.0854" r="0.304635" fill="#E19283"/>
<circle id="Ellipse 422" cx="78.5956" cy="69.6088" r="0.304635" fill="#E19283"/>
<circle id="Ellipse 423" cx="83.6223" cy="68.0854" r="0.304635" fill="#E19283"/>
<circle id="Ellipse 424" cx="72.1987" cy="70.3701" r="0.304635" fill="#E19283"/>
<circle id="Ellipse 425" cx="67.6293" cy="77.8339" r="0.304635" fill="#E19283"/>
<circle id="Ellipse 412" cx="20.8671" cy="69.6088" r="0.304635" fill="#E19283"/>
<circle id="Ellipse 426" cx="41.4304" cy="75.5493" r="0.304635" fill="#E19283"/>
<circle id="Ellipse 427" cx="30.0063" cy="74.6352" r="0.304635" fill="#E19283"/>
<circle id="Ellipse 405" cx="25.4372" cy="70.218" r="0.304635" fill="#E19283"/>
</g>
</g>
</svg>
