<svg width="104" height="106" viewBox="0 0 104 106" fill="none" xmlns="http://www.w3.org/2000/svg">
<g id="Group 2690">
<ellipse id="Ellipse 381" cx="43.5105" cy="25.1523" rx="28.3847" ry="16.171" transform="rotate(20.6779 43.5105 25.1523)" fill="black"/>
<circle id="Ellipse 382" cx="89.0109" cy="66.3171" r="11.2452" fill="#5C4636"/>
<circle id="Ellipse 383" cx="16.7882" cy="66.3171" r="11.2452" fill="#5C4636"/>
<path id="Subtract" fill-rule="evenodd" clip-rule="evenodd" d="M17.739 55.8572V69.6325C17.739 89.445 33.8003 105.506 53.6129 105.506C73.4254 105.506 89.4867 89.445 89.4867 69.6325V55.8572H17.739Z" fill="#957259"/>
<path id="Subtract_2" fill-rule="evenodd" clip-rule="evenodd" d="M17.6868 72.8464V61.7162C17.6868 41.8893 33.7596 25.8164 53.5865 25.8164C73.4134 25.8164 89.4863 41.8893 89.4863 61.7162V72.8464H17.6868Z" fill="#957259"/>
<rect id="Rectangle 5805" x="39.1199" y="60.6162" width="14.2545" height="19.9563" rx="7.12726" fill="white"/>
<rect id="Rectangle 5806" x="54.1663" y="60.6162" width="14.2545" height="19.9563" rx="7.12726" fill="white"/>
<rect id="Rectangle 5807" x="47.5146" y="70.5928" width="4.43474" height="6.17696" rx="2.21737" fill="black"/>
<rect id="Rectangle 5808" x="62.7192" y="70.5928" width="4.43474" height="6.17696" rx="2.21737" fill="black"/>
<path id="Vector 895" d="M38.8032 69.0105C38.8032 65.9996 40.1571 60.6162 46.2421 60.6162C52.4644 60.6162 53.9039 66.2909 53.8481 69.0105" stroke="#4B3729" stroke-width="2.14847" stroke-linecap="round"/>
<path id="Vector 896" d="M53.8491 69.0105C53.8491 65.9996 55.203 60.6162 61.288 60.6162C67.5103 60.6162 68.9498 66.2909 68.894 69.0105" stroke="#4B3729" stroke-width="2.14847" stroke-linecap="round"/>
<path id="Vector 897" d="M50.2068 85.6409L50.6015 85.856C52.69 86.9942 55.2312 86.9119 57.2417 85.6409V85.6409" stroke="#FF5252" stroke-width="9.23841" stroke-linecap="round"/>
<circle id="Ellipse 384" cx="53.8494" cy="79.1461" r="2.21737" fill="#5C4636"/>
<path id="Vector 898" d="M50.6819 85.6409L51.0462 85.8394C52.9741 86.8901 55.3198 86.8141 57.1756 85.6409V85.6409" stroke="#C23A3A" stroke-width="1.07423" stroke-linecap="round"/>
<path id="Vector 899" d="M57.4141 52.9008C39.2317 49.7331 44.0307 33.2613 48.703 25.4213H65.0958C69.8473 28.1402 79.9997 35.0351 82.5972 40.8637C85.8441 48.1493 80.1422 56.8604 57.4141 52.9008Z" fill="black"/>
<path id="Vector 900" d="M70.0243 51.3347C55.9305 39.4183 66.2891 35.9033 74.2812 31.4961L83.4674 32.8652C89.1693 35.32 98.5406 47.3207 97.839 53.6631C96.9621 61.5911 87.6415 66.2303 70.0243 51.3347Z" fill="black"/>
<path id="Vector 901" d="M19.2378 29.0675C34.8248 18.9342 47.9955 17.9742 51.49 28.0603L47.1392 40.259C44.0014 56.7032 18.7693 60.5032 11.8836 57.3028C3.27642 53.3024 -0.245841 41.7343 19.2378 29.0675Z" fill="black"/>
<ellipse id="Ellipse 385" cx="74.6233" cy="31.9729" rx="22.5081" ry="12.2747" transform="rotate(10.8491 74.6233 31.9729)" fill="black"/>
</g>
</svg>
