<svg width="103" height="96" viewBox="0 0 103 96" fill="none" xmlns="http://www.w3.org/2000/svg">
<g id="Group 2695">
<path id="Vector 958" d="M70.5994 5.8358C53.6639 -0.525164 44.7418 10.1814 41.3542 13.9085C46.6402 33.2149 76.8708 72.3635 84.5269 77.2051C92.1829 82.0467 98.5092 74.0997 98.9052 70.1211C100.519 59.9258 102.434 17.7927 70.5994 5.8358Z" fill="#211D18"/>
<path id="Vector 873" d="M3.23103 51.4019C3.83577 41.7343 6.1035 32.3687 10.8658 25.0425C26.6645 6.31139 45.4112 9.10597 50.3247 9.10597C55.2381 9.10597 71.8683 12.3537 81.1661 25.0425C88.0164 34.3911 88.8009 46.7191 88.8009 51.4019C88.7432 56.7926 88.3301 64.1004 87.8414 71.0765C86.9754 83.4362 76.6559 92.8852 64.266 92.9396C53.7394 92.9859 40.744 93.0192 28.4264 92.9861C15.4408 92.9513 4.58034 82.56 3.73848 69.6017C3.27991 62.543 2.95684 55.7854 3.23103 51.4019Z" fill="#463729"/>
<circle id="Ellipse 370" cx="80.2711" cy="57.8523" r="10.8145" fill="#F9C8BF"/>
<circle id="Ellipse 371" cx="10.8145" cy="57.8523" r="10.8145" fill="#F9C8BF"/>
<path id="Subtract" fill-rule="evenodd" clip-rule="evenodd" d="M11.7282 47.7924V61.0403C11.7282 80.0941 27.1743 95.5402 46.228 95.5402C65.2818 95.5402 80.7279 80.0941 80.7279 61.0403V47.7924H11.7282Z" fill="#FFE6E1"/>
<path id="Subtract_2" fill-rule="evenodd" clip-rule="evenodd" d="M11.6792 64.1316V53.4268C11.6792 34.3593 27.1365 18.902 46.204 18.902C65.2715 18.902 80.7288 34.3593 80.7288 53.4268V64.1316H11.6792Z" fill="#FFE6E1"/>
<rect id="Rectangle 5793" x="32.2913" y="52.3689" width="13.7086" height="19.192" rx="6.85429" fill="white"/>
<rect id="Rectangle 5794" x="46.7615" y="52.3689" width="13.7086" height="19.192" rx="6.85429" fill="white"/>
<rect id="Rectangle 5795" x="40.3645" y="61.9651" width="4.26489" height="5.94039" rx="2.13245" fill="black"/>
<rect id="Rectangle 5796" x="54.9868" y="61.9651" width="4.26489" height="5.94039" rx="2.13245" fill="black"/>
<path id="Vector 869" d="M31.9868 60.4417C31.9868 57.5461 33.2889 52.3689 39.1408 52.3689C45.1248 52.3689 46.5091 57.8262 46.4555 60.4417" stroke="#E19283" stroke-width="2.06618" stroke-linecap="round"/>
<path id="Vector 870" d="M46.4568 60.4417C46.4568 57.5461 47.7589 52.3689 53.6108 52.3689C59.5947 52.3689 60.9791 57.8262 60.9255 60.4417" stroke="#E19283" stroke-width="2.06618" stroke-linecap="round"/>
<path id="Vector 871" d="M42.9541 76.4351L43.3337 76.6419C45.3422 77.7366 47.7861 77.6574 49.7195 76.4351V76.4351" stroke="#FF5252" stroke-width="8.88459" stroke-linecap="round"/>
<circle id="Ellipse 372" cx="46.4569" cy="70.1896" r="2.13245" fill="#F9C8BF"/>
<path id="Vector 872" d="M43.4102 76.4351L43.7605 76.626C45.6145 77.6364 47.8704 77.5634 49.6552 76.4351V76.4351" stroke="#C23A3A" stroke-width="1.03309" stroke-linecap="round"/>
<path id="Subtract_3" fill-rule="evenodd" clip-rule="evenodd" d="M7.99671 44.5242C9.70266 34.5321 24.3958 19.8995 30.0823 16.9547C37.1073 13.3167 46.6253 14.6732 56.7044 16.1097C58.754 16.4018 60.8269 16.6972 62.9067 16.9547C75.214 18.4778 81.2864 40.1831 81.1087 47.1897C77.3067 47.1056 72.215 47.0123 66.5684 46.9366C65.7087 46.6086 65.4175 45.7045 65.3431 45.2099C65.3431 42.9164 64.8128 40.1859 64.1312 37.6563C63.7209 36.1333 61.8398 36.4618 61.8398 38.0391V39.6503L61.408 45.2099L61.4011 45.2979C61.351 45.829 61.1143 46.7196 60.4963 46.865C51.7684 46.7766 42.3959 46.7463 34.7048 46.859C33.3829 46.6323 32.9836 45.8273 32.9514 45.4379L32.5107 38.1296C32.4186 36.603 30.5306 36.324 30.1063 37.7934C29.3899 40.2747 28.7788 43.0384 28.6572 45.4379C28.6295 45.9113 28.2717 46.7862 27.1239 47.0416C25.9585 47.0846 24.8832 47.1337 23.9136 47.1897C11.2408 47.9208 6.98126 46.7074 7.99671 44.5242Z" fill="#463729"/>
</g>
</svg>
