<svg width="92" height="117" viewBox="0 0 92 117" fill="none" xmlns="http://www.w3.org/2000/svg">
<g id="Group 2691">
<g id="Group 2130">
<ellipse id="Ellipse 338" cx="14.7749" cy="106.643" rx="4.56953" ry="8.83442" fill="#271709"/>
<ellipse id="Ellipse 342" cx="79.2053" cy="106.643" rx="4.56953" ry="8.83442" fill="#271709"/>
<ellipse id="Ellipse 340" cx="12.9044" cy="106.704" rx="4.56953" ry="8.83442" transform="rotate(13.5098 12.9044 106.704)" fill="#271709"/>
<ellipse id="Ellipse 343" cx="77.3351" cy="106.704" rx="4.56953" ry="8.83442" transform="rotate(13.5098 77.3351 106.704)" fill="#271709"/>
<ellipse id="Ellipse 341" cx="16.8647" cy="106.704" rx="4.56953" ry="8.83442" transform="rotate(-15.7723 16.8647 106.704)" fill="#271709"/>
<ellipse id="Ellipse 344" cx="81.2954" cy="106.704" rx="4.56953" ry="8.83442" transform="rotate(-15.7723 81.2954 106.704)" fill="#271709"/>
<ellipse id="Ellipse 330" cx="14.5463" cy="69.4009" rx="8.75826" ry="7.08277" fill="#271709"/>
<ellipse id="Ellipse 334" cx="79.2817" cy="69.4009" rx="8.75826" ry="7.08277" fill="#271709"/>
<ellipse id="Ellipse 331" cx="14.5465" cy="78.6923" rx="7.69204" ry="6.16886" fill="#271709"/>
<ellipse id="Ellipse 335" cx="79.2814" cy="78.6923" rx="7.69204" ry="6.16886" fill="#271709"/>
<ellipse id="Ellipse 332" cx="14.5467" cy="87.9837" rx="6.4735" ry="5.25496" fill="#271709"/>
<ellipse id="Ellipse 336" cx="79.2809" cy="87.9837" rx="6.4735" ry="5.25496" fill="#271709"/>
<ellipse id="Ellipse 333" cx="14.5467" cy="95.7514" rx="5.55959" ry="4.49337" fill="#271709"/>
<ellipse id="Ellipse 337" cx="79.2815" cy="95.7514" rx="5.55959" ry="4.49337" fill="#271709"/>
<path id="Vector 827" d="M45.4146 7.02661C10.362 7.02661 3.96045 37.4757 3.96045 49.9802H88.0398C88.0398 36.8262 81.5601 7.02661 45.4146 7.02661Z" fill="#271709"/>
<circle id="Ellipse 324" cx="80.2716" cy="55.3114" r="10.8145" fill="#FAC4A6"/>
<circle id="Ellipse 325" cx="10.8145" cy="55.3114" r="10.8145" fill="#FAC4A6"/>
<path id="Subtract" fill-rule="evenodd" clip-rule="evenodd" d="M11.7295 45.252V58.4998C11.7295 77.5536 27.1756 92.9997 46.2294 92.9997C65.2831 92.9997 80.7293 77.5536 80.7293 58.4998V45.252H11.7295Z" fill="#FFE4D5"/>
<path id="Subtract_2" fill-rule="evenodd" clip-rule="evenodd" d="M11.679 61.5911V50.8863C11.679 31.8188 27.1362 16.3615 46.2038 16.3615C65.2713 16.3615 80.7286 31.8188 80.7286 50.8863V61.5911H11.679Z" fill="#FFE4D4"/>
<path id="Vector 828" d="M55.2917 13.4833C52.5216 24.7274 39.2302 47.1182 8.22559 44.7851C12.0054 30.6571 26.9433 3.85942 55.2917 13.4833Z" fill="#271709"/>
<rect id="Rectangle 5742" x="32.292" y="49.8279" width="13.7086" height="19.192" rx="6.85429" fill="white"/>
<rect id="Rectangle 5743" x="46.7612" y="49.8279" width="13.7086" height="19.192" rx="6.85429" fill="white"/>
<rect id="Rectangle 5744" x="40.3643" y="59.4236" width="4.26489" height="5.94039" rx="2.13245" fill="black"/>
<rect id="Rectangle 5745" x="54.9871" y="59.4236" width="4.26489" height="5.94039" rx="2.13245" fill="black"/>
<path id="Vector 829" d="M68.5772 31.3111C63.4517 23.9593 55.2157 21.6855 50.5693 19.7907V13.4241C52.7544 13.6515 59.5205 14.8035 69.1047 17.5927C78.6888 20.3818 84.2996 36.9956 85.907 44.9538H82.1972C77.842 44.9538 74.05 42.0293 72.2785 38.0506C71.2708 35.7874 70.0209 33.3818 68.5772 31.3111Z" fill="#271709"/>
<path id="Vector 830" d="M31.9868 57.9007C31.9868 55.0051 33.2889 49.8279 39.1408 49.8279C45.1248 49.8279 46.5091 55.2852 46.4555 57.9007" stroke="#DFA381" stroke-width="2.06618" stroke-linecap="round"/>
<path id="Vector 831" d="M46.457 57.9007C46.457 55.0051 47.7591 49.8279 53.611 49.8279C59.595 49.8279 60.9793 55.2852 60.9257 57.9007" stroke="#DFA381" stroke-width="2.06618" stroke-linecap="round"/>
<path id="Vector 832" d="M42.9536 73.894L43.3332 74.1009C45.3417 75.1955 47.7856 75.1164 49.7191 73.894V73.894" stroke="#FF5252" stroke-width="8.88459" stroke-linecap="round"/>
<circle id="Ellipse 326" cx="46.4564" cy="67.6493" r="2.13245" fill="#FAC4A6"/>
<path id="Vector 833" d="M43.4106 73.894L43.761 74.085C45.615 75.0954 47.8709 75.0224 49.6557 73.894V73.894" stroke="#C23A3A" stroke-width="1.03309" stroke-linecap="round"/>
<path id="Vector 834" d="M11.2717 99.4839V99.4839C13.3427 100.27 15.6274 100.285 17.7083 99.5251L17.8214 99.4839" stroke="#5A42EE" stroke-width="1.65295" stroke-linecap="round"/>
<path id="Vector 835" d="M76.0068 99.4839V99.4839C78.0778 100.27 80.3625 100.285 82.4434 99.5251L82.5565 99.4839" stroke="#5A42EE" stroke-width="1.65295" stroke-linecap="round"/>
</g>
<path id="Vector 869" d="M84.1733 31.1515C54.0039 16.7576 23.1559 23.2517 8.34985 31.1515C11.4031 21.0465 18.0913 2 47.0976 2C71.9444 2 82.7921 22.1128 84.1733 31.1515Z" fill="#5A42EE" stroke="#5A42EE" stroke-width="2.36673" stroke-linecap="round"/>
<path id="Vector 870" d="M8.26058 25.7907C6.9606 29.6594 5.74887 35.5684 5.08199 39.4455C4.822 40.957 6.33562 42.0572 7.74436 41.4509C38.6239 28.161 70.3433 35.273 85.0975 41.6094C86.4161 42.1757 87.8124 41.2639 87.5701 39.8493C86.8262 35.5062 84.9468 28.8593 83.9922 25.8882C83.8323 25.3908 83.4673 24.9847 82.996 24.7592C50.299 9.12062 20.573 18.373 9.10532 24.7702C8.70177 24.9953 8.40777 25.3527 8.26058 25.7907Z" fill="#5A42EE" stroke="#5A42EE" stroke-width="2.36673" stroke-linecap="round"/>
<path id="Vector 871" d="M14.7472 26.4262C13.9476 28.5344 12.4209 32.6927 12.1301 36.2404M23.4709 23.3002C22.5259 25.0449 21.6535 28.7525 21.6535 32.6782M33.1397 21.3374C32.4127 23.5183 31.8021 26.9496 31.9765 30.4972M43.5354 20.9739L42.9539 29.6976M53.2769 21.3374C53.7858 23.1548 54.3674 27.444 54.3674 30.0611M62.5095 22.864C64.1815 26.1354 64.4723 29.6976 64.4723 31.2969M70.6516 25.0449C71.6451 27.1047 73.1233 30.3519 73.5595 33.4778M79.0845 27.5167C79.8115 29.0918 81.3091 32.9399 81.4835 35.7315" stroke="#9F90F9" stroke-width="2.16951" stroke-linecap="round"/>
<path id="Vector 872" d="M12.8577 22.627C23.2049 17.5624 51.1692 10.6028 80.2482 23.2813" stroke="#9F90F9" stroke-width="2.16951" stroke-linecap="round"/>
</g>
</svg>
