<svg width="101" height="102" viewBox="0 0 101 102" fill="none" xmlns="http://www.w3.org/2000/svg">
<g id="Group 2692">
<ellipse id="Ellipse 386" cx="41.8449" cy="24.1889" rx="27.2975" ry="15.5516" transform="rotate(20.6779 41.8449 24.1889)" fill="#C1B7FF"/>
<circle id="Ellipse 387" cx="85.6029" cy="63.7777" r="10.8145" fill="#755946"/>
<circle id="Ellipse 388" cx="16.1456" cy="63.7777" r="10.8145" fill="#755946"/>
<path id="Subtract" fill-rule="evenodd" clip-rule="evenodd" d="M17.0601 53.7178V66.9651C17.0601 86.0189 32.5062 101.465 51.5599 101.465C70.6137 101.465 86.0598 86.0188 86.0598 66.9651V53.7178H17.0601Z" fill="#957259"/>
<path id="Subtract_2" fill-rule="evenodd" clip-rule="evenodd" d="M17.01 70.0566V59.3524C17.01 40.2849 32.4673 24.8276 51.5348 24.8276C70.6024 24.8276 86.0596 40.2849 86.0596 59.3524V70.0566H17.01Z" fill="#957259"/>
<rect id="Rectangle 5809" x="37.6228" y="58.2942" width="13.7086" height="19.192" rx="6.85429" fill="white"/>
<rect id="Rectangle 5810" x="52.0925" y="58.2942" width="13.7086" height="19.192" rx="6.85429" fill="white"/>
<rect id="Rectangle 5811" x="45.6951" y="67.8899" width="4.26489" height="5.94039" rx="2.13245" fill="black"/>
<rect id="Rectangle 5812" x="60.3179" y="67.8899" width="4.26489" height="5.94039" rx="2.13245" fill="black"/>
<path id="Vector 902" d="M37.3181 66.367C37.3181 63.4714 38.6202 58.2942 44.4721 58.2942C50.4561 58.2942 51.8404 63.7515 51.7868 66.367" stroke="#4B3729" stroke-width="2.06618" stroke-linecap="round"/>
<path id="Vector 903" d="M51.7878 66.367C51.7878 63.4714 53.0899 58.2942 58.9418 58.2942C64.9258 58.2942 66.3101 63.7515 66.2565 66.367" stroke="#4B3729" stroke-width="2.06618" stroke-linecap="round"/>
<path id="Vector 904" d="M48.2842 82.3604L48.6637 82.5672C50.6723 83.6619 53.1161 83.5827 55.0496 82.3604V82.3604" stroke="#FF5252" stroke-width="8.88459" stroke-linecap="round"/>
<circle id="Ellipse 389" cx="51.7877" cy="76.1149" r="2.13245" fill="#755946"/>
<path id="Vector 905" d="M48.7419 82.3604L49.0923 82.5513C50.9463 83.5617 53.2022 83.4887 54.987 82.3604V82.3604" stroke="#C23A3A" stroke-width="1.03309" stroke-linecap="round"/>
<path id="Vector 906" d="M55.2154 50.8739C37.7294 47.8275 42.3446 31.9865 46.838 24.4468H62.6029C67.1724 27.0616 76.936 33.6925 79.434 39.2977C82.5565 46.3044 77.073 54.6818 55.2154 50.8739Z" fill="#C1B7FF"/>
<path id="Vector 907" d="M67.3434 49.3682C53.7894 37.9081 63.7513 34.5278 71.4372 30.2893L80.2716 31.606C85.7552 33.9668 94.7675 45.5078 94.0928 51.6073C93.2494 59.2317 84.2858 63.6932 67.3434 49.3682Z" fill="#C1B7FF"/>
<path id="Vector 908" d="M18.501 27.9545C33.491 18.2092 46.1573 17.286 49.5179 26.9857L45.3338 38.7172C42.3161 54.5317 18.0504 58.1862 11.4284 55.1084C3.15094 51.2611 -0.236419 40.1361 18.501 27.9545Z" fill="#C1B7FF"/>
<ellipse id="Ellipse 390" cx="71.7658" cy="30.7475" rx="21.646" ry="11.8046" transform="rotate(10.8491 71.7658 30.7475)" fill="#C1B7FF"/>
</g>
</svg>
