<svg width="92" height="92" viewBox="0 0 92 92" fill="none" xmlns="http://www.w3.org/2000/svg">
<g id="Group 2697">
<ellipse id="Ellipse 410" cx="32.8333" cy="7.72976" rx="5.50946" ry="3.00457" transform="rotate(36.1529 32.8333 7.72976)" fill="black"/>
<ellipse id="Ellipse 411" cx="38.9404" cy="6.26997" rx="5.50946" ry="3.00457" transform="rotate(116.159 38.9404 6.26997)" fill="black"/>
<path id="Vector 944" d="M45.7403 6.70239C11.9577 6.70239 5.78809 36.5037 5.78809 48.7421H86.8211C86.8211 35.8679 80.5762 6.70239 45.7403 6.70239Z" fill="black"/>
<circle id="Ellipse 407" cx="80.2711" cy="53.4638" r="10.8145" fill="#F9C8BF"/>
<circle id="Ellipse 408" cx="10.8145" cy="53.4638" r="10.8145" fill="#F9C8BF"/>
<path id="Subtract" fill-rule="evenodd" clip-rule="evenodd" d="M11.728 43.4036V56.6514C11.728 75.7052 27.1742 91.1513 46.2279 91.1513C65.2817 91.1513 80.7278 75.7052 80.7278 56.6514V43.4036H11.728Z" fill="#FFE6E1"/>
<path id="Subtract_2" fill-rule="evenodd" clip-rule="evenodd" d="M11.679 59.7437V49.0389C11.679 29.9714 27.1362 14.5141 46.2038 14.5141C65.2713 14.5141 80.7286 29.9714 80.7286 49.0389V59.7437H11.679Z" fill="#FFE6E1"/>
<path id="Vector 945" d="M15.8197 45.9403C41.8634 44.7135 53.3484 24.8895 55.9009 14.5291C31.5452 6.26068 17.0884 24.8768 11.1021 39.2445C9.7081 42.5904 12.199 46.1108 15.8197 45.9403Z" fill="black"/>
<rect id="Rectangle 5827" x="32.2915" y="47.9805" width="13.7086" height="19.192" rx="6.85429" fill="white"/>
<rect id="Rectangle 5828" x="46.7615" y="47.9805" width="13.7086" height="19.192" rx="6.85429" fill="white"/>
<rect id="Rectangle 5829" x="40.3643" y="57.5762" width="4.26489" height="5.94039" rx="2.13245" fill="black"/>
<rect id="Rectangle 5830" x="54.9863" y="57.5762" width="4.26489" height="5.94039" rx="2.13245" fill="black"/>
<path id="Vector 946" d="M69.1864 32.3575C64.0608 25.0056 55.8249 22.7319 51.1785 20.837V14.4705C53.3635 14.6978 60.1297 15.8499 69.7138 18.6391C79.2979 21.4282 84.9088 38.042 86.5162 46.0002H82.8063C78.4512 46.0002 74.6591 43.0757 72.8876 39.097C71.88 36.8338 70.63 34.4282 69.1864 32.3575Z" fill="black"/>
<path id="Vector 940" d="M31.9866 56.0533C31.9866 53.1577 33.2886 47.9805 39.1405 47.9805C45.1245 47.9805 46.5089 53.4378 46.4553 56.0533" stroke="#E19283" stroke-width="2.06618" stroke-linecap="round"/>
<path id="Vector 941" d="M46.4568 56.0533C46.4568 53.1577 47.7589 47.9805 53.6108 47.9805C59.5947 47.9805 60.9791 53.4378 60.9255 56.0533" stroke="#E19283" stroke-width="2.06618" stroke-linecap="round"/>
<path id="Vector 942" d="M42.9541 72.0464L43.3337 72.2532C45.3422 73.3479 47.7861 73.2687 49.7195 72.0464V72.0464" stroke="#FF5252" stroke-width="8.88459" stroke-linecap="round"/>
<circle id="Ellipse 409" cx="46.4567" cy="65.8011" r="2.13245" fill="#F9C8BF"/>
<path id="Vector 943" d="M43.4102 72.0464L43.7605 72.2373C45.6145 73.2478 47.8704 73.1747 49.6552 72.0464V72.0464" stroke="#C23A3A" stroke-width="1.03309" stroke-linecap="round"/>
<path id="Vector 947" d="M41.347 19.6921C54.7393 11.5483 66.5285 11.5042 70.2997 20.7925L67.1444 31.4927C65.3444 46.0867 42.8809 47.9346 36.4872 44.628C28.495 40.4948 24.6066 29.8719 41.347 19.6921Z" fill="black"/>
</g>
</svg>
