<svg width="34" height="33" viewBox="0 0 34 33" fill="none" xmlns="http://www.w3.org/2000/svg">
<path d="M14.1602 14.4676L16.9894 13.2764L19.8185 14.4676L16.9894 17.2968L14.1602 14.4676Z" fill="#606060"/>
<path d="M6.41618 17.1474C4.15282 16.0753 3.88479 11.9358 4.0337 10C7.01175 12.3825 8.20308 12.8292 11.9257 15.5095C14.9038 17.6537 16.4425 21.8628 16.8396 23.6993C13.385 21.0785 9.64249 22.0117 8.20308 22.8058C6.41622 21.7337 6.26728 18.5869 6.41618 17.1474Z" fill="#606060"/>
<path d="M27.7088 17.1474C29.9722 16.0753 30.2402 11.9358 30.0913 10C27.1132 12.3825 25.9219 12.8292 22.1993 15.5095C19.2212 17.6537 17.6825 21.8628 17.2854 23.6993C20.74 21.0785 24.4825 22.0117 25.9219 22.8058C27.7088 21.7337 27.8577 18.5869 27.7088 17.1474Z" fill="#606060"/>
</svg>
