<svg width="27" height="14" viewBox="0 0 27 14" fill="none" xmlns="http://www.w3.org/2000/svg">
<g id="Group 2957">
<path id="Vector 1635" d="M10.1602 4.46761L12.9894 3.27637L15.8185 4.46761L12.9894 7.2968L10.1602 4.46761Z" fill="#606060"/>
<path id="Vector 1633" d="M2.41618 7.14744C0.152819 6.07532 -0.11521 1.93576 0.033695 0C3.01175 2.38248 4.20308 2.82919 7.9257 5.50948C10.9038 7.65372 12.4425 11.8628 12.8396 13.6993C9.38497 11.0785 5.64249 12.0117 4.20308 12.8058C2.41622 11.7337 2.26728 8.58685 2.41618 7.14744Z" fill="#606060"/>
<path id="Vector 1634" d="M23.7088 7.14744C25.9722 6.07532 26.2402 1.93576 26.0913 0C23.1132 2.38248 21.9219 2.82919 18.1993 5.50948C15.2212 7.65372 13.6825 11.8628 13.2854 13.6993C16.74 11.0785 20.4825 12.0117 21.9219 12.8058C23.7088 11.7337 23.8577 8.58685 23.7088 7.14744Z" fill="#606060"/>
</g>
</svg>
