<svg width="52" height="52" viewBox="0 0 52 52" fill="none" xmlns="http://www.w3.org/2000/svg">
<path d="M52 26C52 40.3594 40.3594 52 26 52C11.6406 52 0 40.3594 0 26C0 11.6406 11.6406 0 26 0C40.3594 0 52 11.6406 52 26Z" fill="#D9D9D9"/>
<path d="M24.6328 29.5469C24.6523 27.125 25.2969 26.3633 26.4688 25.6406C27.3086 25.0938 27.9531 24.4883 27.9531 23.5898C27.9531 22.6133 27.1914 21.9688 26.2539 21.9688C25.3359 21.9688 24.4961 22.5742 24.457 23.7266H21.6836C21.7422 20.9727 23.7734 19.6641 26.2734 19.6641C28.9883 19.6641 30.9219 21.0898 30.9219 23.4922C30.9219 25.0938 30.1016 26.1289 28.8125 26.8906C27.7188 27.5547 27.2305 28.1797 27.2109 29.5469V29.7617H24.6328V29.5469ZM25.9805 34.1758C25.0625 34.1758 24.3203 33.4336 24.3398 32.5352C24.3203 31.6367 25.0625 30.9141 25.9805 30.9141C26.8398 30.9141 27.6016 31.6367 27.6016 32.5352C27.6016 33.4336 26.8398 34.1758 25.9805 34.1758Z" fill="#A6A6A6"/>
</svg>
